<?xml version="1.0" encoding="UTF-8"?>
<svg id="OBJECTS" xmlns="http://www.w3.org/2000/svg" viewBox="0 0 729.21 469.48">
  <defs>
    <style>
      .cls-1 {
        fill: #938fad;
      }

      .cls-2, .cls-3 {
        fill: #fff;
      }

      .cls-4 {
        fill: #ffddac;
      }

      .cls-5 {
        fill: #8bbfd3;
      }

      .cls-6, .cls-7 {
        fill: #ffc675;
      }

      .cls-7 {
        opacity: .43;
      }

      .cls-8 {
        letter-spacing: -.02em;
      }

      .cls-9 {
        fill: #94bfc4;
      }

      .cls-10 {
        fill: #78b0c1;
      }

      .cls-11 {
        fill: #746d9b;
      }

      .cls-12 {
        letter-spacing: .03em;
      }

      .cls-13 {
        opacity: .16;
      }

      .cls-14 {
        letter-spacing: 0em;
      }

      .cls-3 {
        opacity: .35;
      }

      .cls-15 {
        opacity: .14;
      }

      .cls-16, .cls-17 {
        fill: #ffa457;
      }

      .cls-18 {
        fill: #a7d2db;
      }

      .cls-19 {
        fill: #f3f9fb;
      }

      .cls-20 {
        fill: #9677a5;
      }

      .cls-17 {
        font-family: HoboStd, 'Hobo Std';
        font-size: 27.2px;
      }

      .cls-21 {
        fill: #a783b5;
      }

      .cls-22 {
        fill: #f8e3c1;
      }

      .cls-23 {
        opacity: .59;
      }

      .cls-24 {
        fill: #f3f1e4;
      }
    </style>
  </defs>
  <ellipse class="cls-15" cx="364.08" cy="458.6" rx="364.08" ry="10.88"/>
  <g>
    <path class="cls-22" d="m290.72,293.07c-18.68-15.13-29.58-38.3-33.75-61.97s-2.19-47.99,1.19-71.79c1.8-12.66,3.96-25.75.46-38.05-1.7-5.96-5.13-11.93-10.84-14.33-4.71-1.98-10.07-1.19-15.11-.37l-28.33,4.6c-1.98.32-4.06.64-5.96-.02-2.9-1-4.62-3.99-5.57-6.92-3.4-10.5,0-21.89,3.7-32.29,3.7-10.4,7.8-21.35,5.74-32.19-2.06-10.85-13.13-20.79-23.57-17.21-10.4,3.57-13.02,16.61-17.12,26.81-2.49,6.21-6.09,11.98-10.57,16.95-2.23,2.48-5.01,4.9-8.34,5.02-3,.1-5.72-1.7-7.99-3.67-11.91-10.32-17.15-26.09-24.52-40.02C102.77,13.72,90.51-.1,74.76,0c-2.53.02-5.13.43-7.32,1.71-2.03,1.19-3.59,3.06-4.76,5.1-7.31,12.68.09,28.68,8.78,40.45,8.69,11.78,19.33,24.1,18.6,38.71-.18,3.56-1.18,7.28-3.8,9.69-2.27,2.09-5.42,2.89-8.46,3.4-10.1,1.68-20.57.87-30.5,3.37-9.93,2.5-19.84,9.72-20.78,19.92-.89,9.58,6.64,18.29,15.46,22.16s18.73,4.03,28.34,4.59c8.77.51,17.52,1.38,26.22,2.63,7.8,1.12,16.59,3.22,20.41,10.12,4.5,8.12-.38,18.16-5.91,25.61-5.53,7.45-12.19,15.45-11.3,24.69,1.24,12.78,16.34,19.55,29.17,19.29,12.84-.25,25.57-4.79,38.29-3.05,5.15.7,10.53,2.72,13.34,7.1,6.28,9.79-3.55,24.88,4.05,33.69,6.3,7.3,17.91,3.28,27.51,2.34,22.01-2.14,40.91,15.56,53.07,34.03,12.16,18.47,21.66,39.79,39.76,52.51l-14.22-64.99Z"/>
    <path class="cls-5" d="m32.27,144.07s23.9,176.9,295.61,286.59c0,0,29.61-165.3-295.61-286.59Z"/>
    <g>
      <path class="cls-9" d="m315.53,381.36c-.67,1.32-1.05,2-1.05,2-.27-.27-.53-.55-.79-.83-.5-.52-1-1.05-1.49-1.58-10.87-94.24-52.98-302.99-65.46-363.93,151.8,186.32,78.72,344.9,68.79,364.34Z"/>
      <path class="cls-18" d="m312.2,380.95c-1.75-1.85-3.45-3.74-5.11-5.66C200.45,252.89,245.62,15.64,245.62,15.64c.12.14.24.29.35.43l.3.36h0c.04.05.07.1.11.14.1.12.2.24.3.37.02.03.04.05.06.08,12.48,60.94,54.59,269.69,65.46,363.93Z"/>
      <polygon class="cls-18" points="246.27 16.44 246.27 16.43 246.27 16.44 313.69 382.53 246.27 16.44"/>
      <path class="cls-18" d="m315.53,381.36L246.38,16.57c.1.12.2.24.3.37,11.97,59.2,52.02,258.97,68.85,364.42Z"/>
    </g>
    <g>
      <g>
        <path class="cls-6" d="m293.46,408.38L195.15,116.91c24.64,68.1,48.68,136.41,72.12,204.93,9.7,28.35,19.03,56.73,28.21,85.14-.69.43-1.35.93-2.02,1.4Z"/>
        <path class="cls-6" d="m290.85,409.43c-28.67-85-57.33-169.99-86-254.99l-12.31-36.48c-1.15-3.41,3.98-5.53,5.22-2.1,34.78,96.21,68.85,192.72,100.32,290.07.37,1.14.16,2.55-.9,3.29-.67.47-1.34.93-2.02,1.4-2.97,2.06-6.39-2.4-3.41-4.47,2.11-1.47-8.88-28.83-10.31-33.2-3.85-11.7-7.74-23.38-11.68-35.05-8.23-24.36-16.64-48.66-25.08-72.94-17.07-49.11-34.46-98.11-52.14-147,1.74-.7,3.48-1.4,5.22-2.1,28.67,85,57.33,169.99,86,254.99,4.1,12.16,8.2,24.32,12.3,36.48,1.15,3.41-4.06,5.54-5.21,2.1Z"/>
      </g>
      <g>
        <path class="cls-6" d="m211.9,156.04c6.89-15.92,10.54-33.23,10.67-50.57-2.13.39-3.39,2.55-4.28,4.52-6.34,13.88-9.12,29.37-7.99,44.59"/>
        <path class="cls-6" d="m209.91,155.19c6.28-15.85,9.87-32.34,10.04-49.42,1.2.72,2.41,1.43,3.61,2.15-6.12,3.1-8.33,18.51-9.36,24.27-1.34,7.55-1.36,15.12-1.5,22.75-.05,2.82-4.45,2.56-4.81-.08-1.44-10.59,0-21.58,2.82-31.84,1.88-6.86,3.87-16.7,10.88-20,2-.94,3.65.99,3.6,2.83-.49,17.69-4.12,34.84-11.29,51.03-1.13,2.55-5.01.9-3.98-1.69h0Z"/>
      </g>
      <g>
        <path class="cls-6" d="m209.62,152.13c-6.05-5.64-12.8-10.54-20.04-14.52-6.06-3.33-13.38-6.06-19.73-3.32,5.24,7.09,13.75,10.85,21.87,14.3,5.17,2.2,10.34,4.4,15.51,6.6"/>
        <path class="cls-6" d="m208.24,153.91c-9.25-7.57-24.34-21.55-37.35-17.04.39-1.43.78-2.85,1.17-4.28,8.94,11.05,24.08,13.92,36.2,20.15,3.05,1.57,1.17,6-2.08,4.89-13.2-4.52-29.6-10.4-38.55-21.66-1.08-1.36-.53-3.7,1.17-4.28,15.34-5.18,32.55,8.86,42.61,19.06,1.8,1.83-1.23,4.74-3.17,3.15h0Z"/>
      </g>
      <g>
        <path class="cls-6" d="m221.01,191.16c9.83-12.51,15.08-28.53,14.56-44.43-.05-1.61-.18-3.28-.98-4.68-3.45.52-5.03,4.5-5.91,7.87-3.36,12.97-5.89,26.16-7.55,39.46"/>
        <path class="cls-6" d="m219.27,189.81c8.37-11.86,18.11-31.82,12.94-46.8,1.11.47,2.23.95,3.34,1.42-6.2,2.35-7.24,18.36-8.35,24.07-1.37,7.05-2.15,14.22-3.67,21.22-.67,3.08-4.92,2.39-4.78-.7.47-10.88,3.08-21.95,5.61-32.52,1.51-6.32,2.4-14.29,9.28-16.84,1.24-.46,2.89.07,3.34,1.42,5.52,16.46-3.94,38.7-14.21,51.42-1.79,2.22-5.13-.39-3.49-2.7h0Z"/>
      </g>
      <g>
        <path class="cls-6" d="m221.77,190.44c-7.25-5.35-14.98-10.04-23.08-14.01-5.01-2.46-10.35-4.68-15.93-4.66-1.49,0-3.39.58-3.46,2.06-.03.64.33,1.23.72,1.75,3.01,4.07,7.94,6.21,12.76,7.77,7.42,2.41,15.11,3.88,22.78,5.34"/>
        <path class="cls-6" d="m220.46,192.13c-5.4-3.72-10.95-7.22-16.75-10.29-3.95-2.1-13.71-8.44-18.24-7.1-3.29.97,2.3,3.51,3.96,4.26,2.76,1.24,5.7,2.09,8.62,2.89,6.13,1.68,12.49,2.46,18.55,4.36,3.04.95,1.41,5.29-1.43,5.08-4.95-.37-47.7-8.78-37.52-20.42,4.48-5.12,15.55,0,20.17,2.2,8.95,4.27,17.39,9.63,25.25,15.64,2.21,1.69-.37,4.94-2.62,3.39h0Z"/>
      </g>
      <g>
        <path class="cls-6" d="m236.64,229.44c8.82-15.33,12.35-33.11,14.37-50.68.5-4.34.84-9.05-1.45-12.78-3.05.1-4.36,3.85-4.85,6.87-2.78,17.01-4.96,34.11-6.54,51.27"/>
        <path class="cls-6" d="m234.65,228.59c4.87-9.26,8.29-18.95,10.52-29.18,2.08-9.51,5.92-23.26,1.91-32.44,1.16.49,2.32.99,3.49,1.48-5.89,2.82-5.79,22.4-6.56,28.4-1.18,9.2-1.89,18.47-3.29,27.63-.51,3.34-5.21,2.49-5.09-.75.5-13.2,2.58-26.45,4.52-39.51,1.12-7.59.54-17.24,8.42-20.74,1.33-.59,2.94.18,3.49,1.48,4.05,9.75.8,21.73-1.23,31.69-2.42,11.84-6.2,23.09-12.19,33.62-1.35,2.37-5.29.8-3.98-1.69h0Z"/>
      </g>
      <g>
        <path class="cls-6" d="m235.54,224.67c-7.49-5.56-16.39-8.82-25.15-12.02-3.26-1.19-6.75-2.4-10.13-1.63-.44,1.91,1,3.74,2.53,4.96,7.29,5.82,17.68,5.14,26.47,8.26"/>
        <path class="cls-6" d="m234.27,226.3c-5.01-3.37-10.47-5.91-16.1-8.09-5.37-2.09-11.79-5.35-17.61-4.49.8-1,1.59-2.01,2.39-3.01.09,8.39,21.74,8.55,27.27,11.25,2.43,1.19,1.57,5.27-1.33,4.74-9.02-1.66-31.54-3.19-31.33-16.08.02-1.18,1.3-2.18,2.38-2.31,6.44-.77,12.59,2.3,18.42,4.67,6.57,2.66,12.77,5.78,18.43,10.05,2.14,1.62-.34,4.74-2.53,3.27h0Z"/>
      </g>
      <g>
        <path class="cls-6" d="m253.78,277.2c7.8-18.68,12.14-38.8,12.74-59.04.03-.98,0-2.1-.75-2.74-.86-.73-2.26-.39-3.03.44-.77.83-1.06,1.97-1.33,3.07-4.41,18.66-6.56,37.86-6.39,57.03"/>
        <path class="cls-6" d="m251.84,276.38c3.81-9.82,6.94-19.86,8.97-30.21.69-3.5,1.27-7.03,1.75-10.57.23-1.74.21-13.55,1.27-14.23-3.29,2.1-3.88,20.27-4.37,24.39-1.2,10.17-1.4,20.36-1.94,30.58-.15,2.84-4.85,2.77-5.01-.08-.44-7.94,1.33-69.46,13.96-63.34,6.14,2.97,1.72,18.57,1.02,23.41-2.09,14.4-6.12,28.32-11.77,41.71-1.06,2.51-4.86.88-3.88-1.65h0Z"/>
      </g>
      <g>
        <path class="cls-6" d="m250.72,280.49c-5.56-7.14-13.3-12.54-21.92-15.3-3.54-1.14-7.28-1.83-10.99-1.53-.75.06-1.57.2-2.03.78-1.05,1.31.58,3.08,2.09,3.81,3.3,1.6,6.9,2.46,10.47,3.31,6.55,1.55,13.1,3.11,19.65,4.66"/>
        <path class="cls-6" d="m249.06,281.76c-7.34-8.67-17.89-15.04-29.43-15.39-3.72-.11,1.09.16,1.88.34,1.53.36,3.04.98,4.57,1.39,2.51.66,5.06,1.21,7.59,1.8,5.13,1.21,10.31,2.28,15.27,4.09,2.67.97,1.38,4.97-1.31,4.66-8.99-1.05-18.93-3.38-27.49-6.4-3.66-1.29-10.73-5.58-6.06-10.02,4.34-4.12,14.52-.09,19.1,1.87,7.65,3.29,14.09,8.57,19.19,15.12,1.66,2.13-1.59,4.57-3.32,2.53h0Z"/>
      </g>
      <g>
        <path class="cls-6" d="m267.61,310.73c7.34-10.26,11.54-22.74,11.87-35.35.03-1.24-.27-2.85-1.49-3.04-2.47,1.51-3.58,4.48-4.45,7.25-3.03,9.59-5.33,19.41-6.89,29.35"/>
        <path class="cls-6" d="m265.79,309.33c3.26-5.2,6.16-10.51,8.07-16.37.75-2.29,5.38-16.81,2.55-18.6,1.04,0,2.08,0,3.12,0-4.57,3.69-5.59,12.62-6.9,17.88-1.4,5.64-2.33,11.38-3.68,17.03-.7,2.92-4.92,2.37-4.65-.68.69-7.78,2.68-15.52,4.77-23.03,1.54-5.54,2.67-11.52,7.35-15.27.95-.76,2.17-.6,3.12,0,5.25,3.36,1.71,14.47.51,19.21-2.06,8.13-5.54,15.93-10.64,22.61-1.83,2.4-5.17-.36-3.63-2.81h0Z"/>
      </g>
      <g>
        <path class="cls-6" d="m264.33,312.63c-4.95-2.29-9.89-4.58-14.94-6.65-4.3-1.76-8.88-3.39-13.48-2.78-1.59.21-3.45,1.05-3.54,2.65-.04.74.34,1.45.8,2.03,1.94,2.43,5.19,3.29,8.21,4,5.91,1.4,11.81,2.79,17.72,4.19"/>
        <path class="cls-6" d="m263.49,314.6c-4.36-1.94-8.72-3.88-13.14-5.67-2.37-.96-11.77-5.44-14.16-3.2-2.11,1.98,10.44,4.63,11.48,4.88,4.16.97,8.31,1.9,12.38,3.2,2.69.86,1.39,5.12-1.32,4.7-4.79-.75-33.96-4.18-28.39-14.73,5.48-10.37,28.81,3.99,34.82,6.88,2.47,1.19.86,5.07-1.68,3.94h0Z"/>
      </g>
      <g>
        <path class="cls-6" d="m280.59,356.75c7.87-11.46,13.31-24.58,15.84-38.25.46-2.49.82-5.09.14-7.53-.35-1.24-1.09-2.51-2.32-2.86-.89-.26-1.85.03-2.67.46-3.39,1.79-4.9,5.77-5.98,9.45-3.31,11.26-5.22,22.93-5.68,34.66"/>
        <path class="cls-6" d="m278.91,355.45c3.54-5.79,6.8-11.65,9.35-17.95,1.55-3.83,2.88-7.74,3.94-11.74.59-2.24,2.4-6.6,1.87-8.89.77-2.29-.68-3.02-4.37-2.19-.93,2.11-1.66,4.3-2.19,6.55-.91,3.3-1.66,6.64-2.31,10-1.4,7.23-1.94,14.51-2.79,21.8-.32,2.75-4.91,2.81-4.97-.08-.13-7.08,2.75-53.88,18.15-47.13,7.4,3.24,2.95,15.92,1.44,21.29-3.09,11.07-7.99,21.63-14.76,30.94-1.65,2.27-4.77-.33-3.37-2.61h0Z"/>
      </g>
      <g>
        <path class="cls-6" d="m277.21,354.78c-9.29-5.81-20.3-8.83-31.25-8.56-.06,1.73,1.01,3.34,2.39,4.37,1.38,1.03,3.05,1.59,4.69,2.13,6.78,2.24,13.55,4.48,20.33,6.72"/>
        <path class="cls-6" d="m276.33,356.85c-9.21-5.3-19.42-8.14-30.07-7.91.8-1.01,1.6-2.01,2.39-3.02.55,4.22,9.44,5.56,12.87,6.69,4.31,1.42,8.65,2.75,12.83,4.54,2.53,1.08,1.5,5.46-1.34,4.78-6.83-1.63-13.48-4.1-20.13-6.34-4.69-1.58-9.04-3.63-9.63-9.06-.14-1.34.91-3.02,2.39-3.02,11.86.02,22.92,3.11,32.94,9.49,2.12,1.35-.04,5.1-2.25,3.83h0Z"/>
      </g>
      <g>
        <path class="cls-6" d="m296.74,404.76c11.38-15.36,18.83-33.61,21.43-52.55-3.95,1.32-6.71,4.84-8.96,8.34-6.49,10.13-10.69,21.73-12.2,33.67"/>
        <path class="cls-6" d="m295,403.42c10.61-15.84,17.82-32.64,20.57-51.59,1.2.94,2.39,1.88,3.59,2.82-12.82,6.03-17.24,27.59-19.75,39.92-.62,3.05-5.04,2.4-4.78-.7,1.21-14.58,8.13-37.47,22.56-44.1,1.83-.84,3.88.92,3.59,2.82-2.98,19.3-10.23,38.04-22.3,53.52-1.76,2.25-5.03-.36-3.48-2.69h0Z"/>
      </g>
      <g>
        <path class="cls-6" d="m291.67,401.92c-6.34-3.27-12.67-6.53-19.01-9.79-2.64-1.36-5.33-2.74-8.27-3.15-2.3-.32-4.83.04-6.58,1.57-1.75,1.54-2.36,4.45-.9,6.26,1.03,1.27,2.75,1.73,4.35,2.1,10.61,2.52,21.21,5.04,31.82,7.55"/>
        <path class="cls-6" d="m290.83,403.89c-5.02-2.33-9.95-4.87-14.9-7.36-2.46-1.24-4.9-2.66-7.46-3.68-1.42-.66-2.9-1.11-4.46-1.35-3.48,3.12-3.89,4.8-1.23,5.04,1.76,1.23,5.85,1.38,7.96,1.88,2.65.63,5.3,1.25,7.96,1.88,5.13,1.21,10.32,2.24,15.3,4.01,2.57.91,1.33,4.81-1.26,4.49-9.93-1.25-19.87-4.31-29.59-6.69-5.03-1.23-11.33-3.26-9.34-9.91,1.68-5.61,8.08-6.54,13-5.27,8.84,2.28,17.82,8.55,25.7,13.03,2.33,1.33.88,5.13-1.68,3.94h0Z"/>
      </g>
      <g>
        <path class="cls-6" d="m203.87,142.12c1.52-.5,1.62-2.59,1.41-4.17-1.84-14.1-5.23-28.93-15.29-38.97-.62-.62-1.38-1.26-2.25-1.19-1.55.12-2.02,2.17-1.97,3.72.25,7.97,2.87,15.72,6.53,22.8,3.66,7.08,8.35,13.57,13.03,20.03"/>
        <path class="cls-6" d="m202.19,140.82c4.1-6.27-10.34-38.87-12.75-36.99-3.08,2.4,4.01,16.27,5.62,19.37,3.57,6.87,8.45,12.89,12.42,19.51,1.76,2.93-1.97,5.94-4.28,3.27-8.19-9.52-15.56-21.4-18.69-33.66-.95-3.71-4.54-17.46,3.65-17.31,7,.13,12.59,14.34,14.48,19.42,2.61,7,8.87,22.98,2.92,29.02-1.91,1.93-4.9-.27-3.37-2.61h0Z"/>
      </g>
    </g>
    <g>
      <g>
        <path class="cls-22" d="m215.95,347.49L21.23,235.9c46.4,25.26,92.59,50.93,138.54,77.01,19.01,10.79,37.84,21.77,56.6,32.84-.17.57-.29,1.16-.42,1.74Z"/>
        <path class="cls-22" d="m215.04,349.33c-56.78-32.54-113.56-65.08-170.35-97.62-8.12-4.66-16.25-9.31-24.37-13.97-2.27-1.3-.5-4.94,1.83-3.67,65.55,35.71,130.85,71.92,195.14,109.85.75.44,1.32,1.32,1.1,2.23-.14.58-.28,1.16-.42,1.74-.62,2.56-4.65,1.78-4.03-.79.44-1.83-18.8-11.45-21.69-13.14-7.76-4.52-15.54-9.02-23.33-13.49-16.28-9.32-32.63-18.52-48.99-27.69-33.09-18.56-66.29-36.9-99.6-55.04.61-1.22,1.22-2.45,1.83-3.67,56.78,32.54,113.56,65.08,170.35,97.62,8.12,4.66,16.25,9.31,24.37,13.97,2.28,1.31.47,4.99-1.83,3.67Z"/>
      </g>
      <g>
        <path class="cls-22" d="m49.31,249.17c-3.94-12.02-10.32-23.24-18.64-32.78-.97,1.24-.61,3.03-.15,4.54,3.25,10.65,9.23,20.45,17.21,28.22"/>
        <path class="cls-22" d="m47.81,249.67c-4.24-11.7-10.26-22.44-18.43-31.85,1-.19,2.01-.38,3.01-.57-1.84,4.66,4.4,14.14,6.63,17.78,2.92,4.77,6.57,8.91,10.19,13.15,1.33,1.56-1.19,3.55-2.66,2.29-5.91-5.08-10.44-11.79-13.87-18.75-2.29-4.66-5.97-10.99-3.73-16.19.64-1.48,2.47-1.22,3.33-.2,8.29,9.9,14.61,21.02,18.53,33.33.62,1.94-2.3,2.91-2.99,1h0Z"/>
      </g>
      <g>
        <path class="cls-22" d="m46.17,248.14c-6.03-.16-12.09.44-17.97,1.77-4.92,1.11-10.24,3.17-12.38,7.73,6.3,1.34,12.76-.73,18.86-2.77,3.89-1.3,7.78-2.6,11.66-3.9"/>
        <path class="cls-22" d="m46.28,249.78c-8.71.34-23.72,0-28.64,8.77l-1.43-2.91c10.23,1.71,19.89-4.05,29.52-6.51,2.42-.62,3.54,2.71,1.23,3.68-9.39,3.92-21.19,8.64-31.53,6.83-1.25-.22-2.08-1.76-1.43-2.91,5.87-10.25,22.06-10.91,32.49-10.21,1.87.13,1.62,3.18-.21,3.25h0Z"/>
      </g>
      <g>
        <path class="cls-22" d="m71.28,263.94c-.69-11.58-5.57-22.88-13.55-31.3-.81-.85-1.69-1.7-2.8-2.08-1.63,1.95-.57,4.89.58,7.15,4.44,8.71,9.44,17.14,14.97,25.2"/>
        <path class="cls-22" d="m69.68,264.04c-1.17-10.53-5.51-26.14-15.58-31.81.84-.28,1.68-.56,2.51-.84-2.25,4.28,4.93,13.53,7.09,17.19,2.66,4.51,5.71,8.8,8.26,13.37,1.12,2-1.53,3.68-2.95,1.93-5.01-6.17-8.94-13.48-12.68-20.47-2.23-4.18-5.61-8.96-3.08-13.68.46-.85,1.61-1.36,2.51-.84,10.98,6.32,16.57,23.04,17.12,34.95.1,2.08-2.99,2.27-3.21.21h0Z"/>
      </g>
      <g>
        <path class="cls-22" d="m71.35,263.17c-6.55.59-13.04,1.77-19.38,3.51-3.93,1.08-7.92,2.45-10.96,5.16-.81.72-1.57,1.96-.89,2.8.3.36.78.51,1.24.61,3.62.77,7.34-.45,10.73-1.93,5.22-2.28,10.13-5.2,15.02-8.11"/>
        <path class="cls-22" d="m71.45,264.73c-4.75.58-9.47,1.36-14.12,2.48-3.17.77-11.57,2.03-13.4,4.95-1.33,2.12,2.95.8,4.22.41,2.11-.66,4.12-1.62,6.1-2.59,4.16-2.05,8.01-4.7,12.24-6.59,2.12-.95,3.33,2.21,1.68,3.46-2.88,2.2-30.3,18.29-30.37,7-.03-4.96,8.49-7.52,12.08-8.56,6.95-2,14.15-3.16,21.36-3.68,2.02-.15,2.19,2.88.21,3.12h0Z"/>
      </g>
      <g>
        <path class="cls-22" d="m98.34,277.28c-2.6-12.64-9.28-24.06-16.68-34.63-1.83-2.61-3.92-5.35-6.98-6.28-1.62,1.53-.52,4.21.67,6.1,6.71,10.63,13.8,21.03,21.24,31.16"/>
        <path class="cls-22" d="m96.84,277.78c-1.82-7.41-4.65-14.36-8.38-21.02-3.47-6.19-8.02-15.57-14.65-18.64.87-.29,1.75-.58,2.62-.88-1.85,4.39,7.68,15.04,10.16,18.68,3.8,5.6,7.91,11,11.58,16.68,1.34,2.07-1.64,3.88-3.14,2.05-6.11-7.45-11.39-15.69-16.65-23.76-3.06-4.69-8.05-9.67-5.44-15.4.44-.97,1.69-1.33,2.62-.88,6.93,3.36,10.95,11.47,14.66,17.9,4.41,7.63,7.79,15.61,9.62,24.26.41,1.95-2.5,3-2.99,1h0Z"/>
      </g>
      <g>
        <path class="cls-22" d="m95.43,275.21c-6.78.59-13.22,3.11-19.55,5.6-2.36.93-4.84,1.96-6.32,4.01.69,1.26,2.35,1.56,3.78,1.48,6.79-.35,12.14-5.75,18.45-8.29"/>
        <path class="cls-22" d="m95.53,276.71c-4.37.58-8.58,1.84-12.71,3.37-3.94,1.46-9.03,2.79-11.79,6.07-.05-.93-.1-1.87-.15-2.8,4.11,4.54,16.01-5.85,20.33-7.05,1.9-.53,3.41,2.12,1.57,3.23-5.73,3.46-18.76,13.52-24.89,6.38-.56-.66-.34-1.82.18-2.41,3.14-3.54,7.99-4.83,12.32-6.37,4.87-1.72,9.77-3.02,14.93-3.43,1.95-.15,2.1,2.75.2,3.01h0Z"/>
      </g>
      <g>
        <path class="cls-22" d="m130.81,295.06c-4.78-13.97-12.15-27.06-21.61-38.4-.46-.55-1.02-1.14-1.74-1.13-.82.02-1.42.88-1.44,1.71-.02.82.37,1.59.76,2.32,6.62,12.32,14.74,23.85,24.11,34.23"/>
        <path class="cls-22" d="m129.35,295.55c-2.68-7.21-5.82-14.2-9.72-20.84-1.32-2.25-2.71-4.46-4.16-6.62-.71-1.06-6.44-7.5-6.19-8.39-.78,2.74,7.69,12.95,9.42,15.43,4.27,6.13,9.09,11.79,13.73,17.64,1.29,1.63-1.31,3.86-2.77,2.38-4.08-4.12-32.89-38.57-23.03-41.34,4.79-1.35,9.92,9.3,11.88,12.29,5.83,8.87,10.36,18.42,13.75,28.47.64,1.88-2.23,2.83-2.92.98h0Z"/>
      </g>
      <g>
        <path class="cls-22" d="m130.73,298.34c-6.49-1.21-13.33-.41-19.37,2.25-2.48,1.09-4.86,2.52-6.74,4.48-.38.39-.76.87-.73,1.41.06,1.22,1.81,1.4,2.98,1.07,2.58-.72,4.96-1.99,7.32-3.26,4.33-2.32,8.66-4.64,12.99-6.96"/>
        <path class="cls-22" d="m130.44,299.84c-8.2-1.18-17.05.44-23.52,5.84-2.09,1.74.68-.44,1.19-.72,1.01-.55,2.13-.93,3.16-1.45,1.69-.86,3.35-1.79,5.02-2.69,3.39-1.83,6.73-3.75,10.32-5.16,1.93-.76,3.16,2.05,1.54,3.18-5.42,3.77-11.97,7.32-18.1,9.81-2.63,1.07-8.56,2.15-8.16-2.54.38-4.35,7.88-7.08,11.34-8.22,5.77-1.91,11.84-2.14,17.79-1.03,1.94.36,1.34,3.27-.59,2.99h0Z"/>
      </g>
      <g>
        <path class="cls-22" d="m154.59,306.68c-.95-9.15-4.7-18-10.62-25.05-.58-.69-1.53-1.43-2.29-.94-.62,2.02.22,4.18,1.08,6.11,2.99,6.7,6.48,13.18,10.44,19.36"/>
        <path class="cls-22" d="m152.92,306.79c-.74-4.42-1.72-8.72-3.51-12.85-.7-1.61-5.2-11.78-7.6-11.39.57-.5,1.14-1,1.71-1.51-.71,4.23,3.05,9.6,4.89,13.1,1.97,3.76,4.23,7.34,6.23,11.08,1.03,1.93-1.54,3.68-2.87,1.88-3.39-4.58-6.05-9.77-8.54-14.88-1.84-3.77-4.12-7.59-3.37-11.89.15-.87.9-1.38,1.71-1.51,4.5-.7,7.94,7.08,9.57,10.25,2.81,5.43,4.68,11.38,5.13,17.49.16,2.19-2.99,2.31-3.34.22h0Z"/>
      </g>
      <g>
        <path class="cls-22" d="m153.71,309.31c-3.81,1.14-7.62,2.29-11.38,3.6-3.2,1.12-6.49,2.45-8.71,5.01-.77.88-1.38,2.25-.65,3.16.34.43.89.63,1.42.72,2.23.39,4.42-.72,6.42-1.79,3.9-2.1,7.8-4.19,11.7-6.29"/>
        <path class="cls-22" d="m154.21,310.79c-3.32,1.05-6.64,2.1-9.91,3.26-1.76.63-9.06,2.72-9.28,5.1-.2,2.1,7.95-2.52,8.63-2.89,2.74-1.48,5.46-2.98,8.31-4.25,1.89-.84,3.24,2.12,1.55,3.2-2.98,1.91-20.57,14.15-22.63,5.7-2.03-8.31,17.66-11.76,22.34-13.09,1.93-.55,2.92,2.35.99,2.96h0Z"/>
      </g>
      <g>
        <path class="cls-22" d="m183.94,325.52c-1.25-10.07-4.63-19.86-9.86-28.55-.95-1.59-2.01-3.18-3.57-4.18-.79-.51-1.81-.84-2.65-.44-.61.29-1,.91-1.24,1.54-.98,2.62.12,5.52,1.31,8.05,3.64,7.75,8.25,15.05,13.67,21.67"/>
        <path class="cls-22" d="m182.39,325.63c-.87-4.88-1.92-9.65-3.58-14.33-1.01-2.84-2.17-5.62-3.53-8.32-.76-1.51-1.88-4.76-3.28-5.76-.69-1.62-1.83-1.32-3.45.92.51,1.61,1.17,3.15,1.97,4.64,1.1,2.24,2.31,4.43,3.58,6.58,2.73,4.62,5.96,8.86,9.02,13.26,1.15,1.66-1.32,3.91-2.75,2.36-3.5-3.8-24.57-30.75-12.89-34.52,5.61-1.81,9.31,7.27,11.09,10.92,3.67,7.54,6.1,15.68,6.91,24.03.2,2.04-2.76,2.13-3.1.21h0Z"/>
      </g>
      <g>
        <path class="cls-22" d="m181.14,326.09c-7.88,1.32-15.36,5-21.21,10.45.8.97,2.16,1.33,3.42,1.23,1.25-.1,2.44-.61,3.6-1.11,4.78-2.06,9.57-4.11,14.35-6.17"/>
        <path class="cls-22" d="m181.66,327.64c-7.59,1.56-14.54,4.95-20.25,10.23-.05-.94-.1-1.87-.15-2.81,2.34,2.03,7.84-1.53,10.26-2.57,3.04-1.31,6.06-2.68,9.2-3.73,1.9-.63,3.46,2.26,1.58,3.26-4.52,2.41-9.35,4.29-14.06,6.28-3.32,1.41-6.69,2.39-9.64-.28-.73-.66-.96-2.09-.15-2.81,6.48-5.73,14.02-9.39,22.58-10.76,1.81-.29,2.45,2.81.63,3.18h0Z"/>
      </g>
      <g>
        <path class="cls-22" d="m215.99,343.93c-1.22-13.89-5.99-27.46-13.73-39.07-1.52,2.63-1.32,5.89-.85,8.89,1.36,8.67,4.68,17.04,9.63,24.29"/>
        <path class="cls-22" d="m214.39,344.03c-1.87-13.78-6.06-26.45-13.73-38.12,1.11-.07,2.22-.13,3.33-.2-4.08,9.5,3.93,23.41,8.53,31.35,1.14,1.97-1.59,3.75-2.95,1.93-6.4-8.55-13.69-24.39-9.02-35,.59-1.34,2.56-1.38,3.33-.2,7.71,11.98,12.82,25.73,13.72,40.01.13,2.08-2.92,2.24-3.2.21h0Z"/>
      </g>
      <g>
        <path class="cls-22" d="m211.85,344.83c-5.04,1.28-10.08,2.57-15.12,3.85-2.1.53-4.24,1.09-6.04,2.28-1.41.94-2.62,2.36-2.83,4.04-.21,1.69.86,3.57,2.54,3.85,1.18.19,2.34-.39,3.39-.95,7.01-3.76,14.02-7.51,21.03-11.27"/>
        <path class="cls-22" d="m212.34,346.31c-3.87,1.16-7.79,2.16-11.69,3.19-1.94.51-3.96.92-5.86,1.6-1.09.33-2.12.8-3.09,1.42-.39,3.39.2,4.51,1.76,3.35,1.56-.18,3.86-2.08,5.25-2.82,1.75-.94,3.5-1.88,5.25-2.82,3.39-1.82,6.72-3.77,10.29-5.22,1.85-.75,3.05,1.99,1.48,3.06-6.03,4.12-12.94,7.26-19.4,10.66-3.34,1.76-7.77,3.7-9.89-.89-1.8-3.88,1.25-7.48,4.55-9.17,5.93-3.04,13.87-3.95,20.34-5.32,1.92-.41,2.97,2.37.99,2.96h0Z"/>
      </g>
      <g>
        <path class="cls-22" d="m38.2,245.45c.59-1.01-.37-2.2-1.25-2.96-7.83-6.81-16.85-13.26-27.21-13.88-.64-.04-1.36-.02-1.81.44-.79.82-.05,2.16.73,2.99,3.99,4.23,9.17,7.19,14.6,9.29,5.43,2.09,11.13,3.37,16.81,4.63"/>
        <path class="cls-22" d="m36.64,245.56c-.8-5.41-24.46-16.22-24.86-14.03-.52,2.8,10.06,6.94,12.44,7.86,5.27,2.03,10.85,2.95,16.22,4.64,2.38.75,1.8,4.2-.75,3.85-9.08-1.23-18.85-4.15-26.5-9.34-2.31-1.57-10.93-7.34-6.38-11.22,3.89-3.32,13.82,1.74,17.3,3.6,4.81,2.56,15.96,8.26,15.64,14.43-.1,1.98-2.8,2.22-3.1.21h0Z"/>
      </g>
    </g>
  </g>
  <path class="cls-22" d="m481.83,410.28c17.77-4.61,32.14-14.03,45.33-26.49,4.83-4.56,11.74-6.71,13.67-12.69,2.09-6.49-1.85-19.17-4.23-25.26-3.96-10.13-11.07-16.41-9.38-27.63,1.47-9.79,6.53-18.94,15.71-23.39,11-5.33,24.96-3.16,34.94-10.22,12.02-8.5,12.6-26.28,8.74-40.49-2.88-10.62-7.48-22.2-2.69-32.1,5.46-11.28,20.32-14.17,32.8-13,12.48,1.18,25.25,4.93,37.29,1.45,10.57-3.06,18.74-11.22,27.72-17.59,8.98-6.37,20.8-11.18,30.8-6.56,8.32,3.85,12.83,13.49,12.83,22.65,0,9.17-3.76,17.92-8.23,25.92-6.56,11.73-23,30.21-20.61,44.82,2.72,16.63,29.97,19.91,32.53,36.57,1.28,8.35-4.8,16.24-11.99,20.67-7.19,4.43-15.57,6.51-23.11,10.32-7.54,3.82-14.66,10.27-15.51,18.67-1.25,12.54,11.33,21.76,16.11,33.43,3.48,8.51,2.49,18.72-2.57,26.4s-14.05,12.62-23.24,12.78c-21.68.37-34.29-20.13-53.12-25.8-19.54-5.89-14.19,23.68-27.29,29.72-8.76,4.04-17.66-4.43-26.01-9.26-19.15-11.06-43.69-2.78-62.4,9-18.72,11.78-36.2,27.25-57.93,31.33,0,0,39.86-53.27,39.86-53.27Z"/>
  <g>
    <path class="cls-18" d="m720.76,410.01s-.19.18-.56.51l-284.11,26.47c10.59-15.65,75.78-93.88,284.67-26.98Z"/>
    <g>
      <path class="cls-9" d="m720.2,410.52c-7.83,7.1-98.03,83.72-285.75,29.09,0,0,.51-.96,1.64-2.62l284.11-26.47Z"/>
      <path class="cls-5" d="m694.51,216.61s-39.35,190.63-159.75,240.14c0,0-19.19-148.45,159.75-240.14Z"/>
      <g>
        <g>
          <path class="cls-6" d="m568,403.73l95.77-292.32c-24.04,68.31-47.49,136.83-70.33,205.55-9.45,28.43-18.54,56.89-27.46,85.38.69.43,1.35.91,2.03,1.38Z"/>
          <path class="cls-6" d="m570.61,404.76c27.93-85.24,55.85-170.49,83.78-255.73l11.99-36.59c1.12-3.41-4.03-5.49-5.23-2.06-33.94,96.51-67.17,193.32-97.79,290.93-.36,1.15-.13,2.55.93,3.28.68.46,1.35.92,2.03,1.38,2.98,2.04,6.37-2.46,3.38-4.5-2.13-1.45,8.63-28.91,10.02-33.28,3.75-11.73,7.53-23.45,11.37-35.15,8.01-24.43,16.21-48.8,24.44-73.16,16.64-49.26,33.61-98.4,50.86-147.45-1.74-.69-3.49-1.37-5.23-2.06-27.93,85.24-55.85,170.49-83.78,255.73l-11.99,36.59c-1.12,3.42,4.1,5.5,5.23,2.06Z"/>
        </g>
        <g>
          <path class="cls-6" d="m647.36,150.69c-7.03-15.86-10.83-33.13-11.11-50.48,2.13.37,3.41,2.52,4.32,4.48,6.46,13.82,9.37,29.29,8.38,44.52"/>
          <path class="cls-6" d="m649.34,149.82c-6.42-15.8-10.16-32.26-10.47-49.33-1.2.73-2.39,1.45-3.59,2.18,6.15,3.05,8.5,18.43,9.57,24.18,1.41,7.54,1.49,15.1,1.7,22.74.08,2.82,4.48,2.52,4.81-.12,1.35-10.6-.19-21.58-3.09-31.81-1.94-6.85-4.01-16.67-11.06-19.91-2-.92-3.64,1.03-3.57,2.86.65,17.68,4.43,34.81,11.74,50.93,1.15,2.54,5.02.85,3.97-1.73h0Z"/>
        </g>
        <g>
          <path class="cls-6" d="m649.61,146.76c6-5.7,12.7-10.65,19.92-14.7,6.03-3.38,13.33-6.17,19.7-3.49-5.18,7.14-13.66,10.97-21.74,14.49-5.15,2.24-10.3,4.49-15.45,6.74"/>
          <path class="cls-6" d="m651,148.53c9.18-7.65,24.15-21.76,37.2-17.36-.4-1.42-.81-2.85-1.21-4.27-8.84,11.13-23.96,14.13-36.02,20.47-3.04,1.6-1.12,6.01,2.12,4.87,13.16-4.63,29.51-10.65,38.36-21.99,1.07-1.37.5-3.71-1.21-4.27-15.38-5.05-32.48,9.14-42.44,19.43-1.79,1.85,1.27,4.73,3.19,3.12h0Z"/>
        </g>
        <g>
          <path class="cls-6" d="m638.55,185.89c-9.94-12.42-15.33-28.4-14.94-44.3.04-1.61.15-3.28.94-4.69,3.45.49,5.07,4.45,5.98,7.82,3.48,12.95,6.12,26.11,7.89,39.4"/>
          <path class="cls-6" d="m640.28,184.52c-8.47-11.79-18.38-31.67-13.34-46.68-1.11.48-2.22.97-3.33,1.45,6.22,2.29,7.4,18.3,8.56,24,1.43,7.03,2.27,14.2,3.86,21.19.7,3.07,4.94,2.35,4.78-.74-.57-10.88-3.27-21.93-5.89-32.47-1.57-6.31-2.52-14.27-9.42-16.76-1.25-.45-2.89.1-3.33,1.45-5.38,16.5,4.27,38.66,14.66,51.29,1.81,2.21,5.12-.43,3.47-2.73h0Z"/>
        </g>
        <g>
          <path class="cls-6" d="m637.78,185.17c7.21-5.41,14.9-10.17,22.95-14.21,4.99-2.5,10.31-4.77,15.89-4.8,1.49,0,3.4.55,3.48,2.03.03.64-.32,1.24-.7,1.76-2.97,4.1-7.89,6.28-12.69,7.88-7.4,2.47-15.08,4.01-22.73,5.54"/>
          <path class="cls-6" d="m639.11,186.85c5.37-3.77,10.89-7.31,16.66-10.44,3.94-2.13,13.64-8.56,18.18-7.26,3.3.94-2.27,3.53-3.93,4.29-2.75,1.27-5.68,2.14-8.59,2.96-6.11,1.73-12.47,2.57-18.51,4.52-3.03.98-1.36,5.3,1.47,5.06,4.95-.41,47.62-9.19,37.34-20.75-4.52-5.08-15.55.14-20.15,2.38-8.91,4.34-17.31,9.78-25.12,15.86-2.19,1.71.41,4.94,2.65,3.37h0Z"/>
        </g>
        <g>
          <path class="cls-6" d="m623.26,224.3c-8.95-15.25-12.64-33-14.81-50.55-.54-4.34-.92-9.05,1.34-12.8,3.05.07,4.39,3.82,4.91,6.83,2.93,16.98,5.26,34.07,6.99,51.21"/>
          <path class="cls-6" d="m625.24,223.44c-4.95-9.21-8.45-18.88-10.77-29.09-2.16-9.49-6.13-23.21-2.19-32.42-1.16.5-2.31,1.01-3.47,1.51,5.91,2.76,5.99,22.35,6.81,28.34,1.26,9.19,2.05,18.45,3.53,27.61.54,3.34,5.23,2.45,5.08-.79-.62-13.2-2.81-26.43-4.86-39.47-1.19-7.58-.69-17.23-8.6-20.67-1.34-.58-2.94.21-3.47,1.51-3.97,9.79-.62,21.73,1.5,31.68,2.52,11.82,6.4,23.04,12.48,33.52,1.37,2.36,5.3.76,3.97-1.73h0Z"/>
        </g>
        <g>
          <path class="cls-6" d="m624.32,219.52c7.44-5.62,16.31-8.97,25.04-12.24,3.25-1.22,6.72-2.45,10.12-1.72.45,1.91-.97,3.75-2.49,4.98-7.24,5.88-17.64,5.29-26.39,8.49"/>
          <path class="cls-6" d="m625.59,221.15c4.98-3.42,10.42-6,16.02-8.23,5.36-2.13,11.75-5.45,17.57-4.64-.81-1-1.61-1.99-2.42-2.99-.01,8.39-21.66,8.74-27.17,11.49-2.42,1.21-1.52,5.29,1.37,4.73,9-1.74,31.51-3.46,31.19-16.35-.03-1.18-1.32-2.17-2.4-2.29-6.45-.72-12.57,2.41-18.38,4.83-6.54,2.72-12.72,5.89-18.35,10.21-2.13,1.64.38,4.73,2.56,3.24h0Z"/>
        </g>
        <g>
          <path class="cls-6" d="m606.53,272.21c-7.96-18.61-12.48-38.7-13.25-58.93-.04-.98,0-2.1.73-2.75.85-.74,2.26-.41,3.04.41.78.82,1.08,1.96,1.35,3.06,4.57,18.62,6.89,37.8,6.88,56.97"/>
          <path class="cls-6" d="m608.47,271.37c-3.89-9.79-7.11-19.8-9.23-30.13-.72-3.5-1.33-7.02-1.84-10.56-.25-1.73-.33-13.55-1.4-14.22,3.3,2.07,4.06,20.23,4.58,24.36,1.28,10.16,1.57,20.35,2.21,30.56.18,2.84,4.88,2.73,5.01-.12.37-7.94-1.93-69.45-14.51-63.22-6.11,3.03-1.56,18.58-.82,23.41,2.21,14.38,6.36,28.27,12.14,41.61,1.08,2.5,4.87.84,3.87-1.68h0Z"/>
        </g>
        <g>
          <path class="cls-6" d="m609.62,275.48c5.49-7.18,13.19-12.66,21.78-15.49,3.53-1.17,7.26-1.89,10.97-1.62.75.05,1.57.19,2.04.77,1.06,1.3-.56,3.08-2.06,3.83-3.28,1.63-6.88,2.52-10.44,3.4-6.53,1.61-13.07,3.22-19.61,4.83"/>
          <path class="cls-6" d="m611.29,276.73c7.26-8.73,17.76-15.2,29.29-15.64,3.72-.14-1.09.17-1.87.36-1.53.37-3.03,1.01-4.56,1.43-2.51.68-5.05,1.25-7.58,1.87-5.12,1.25-10.29,2.37-15.24,4.22-2.66,1-1.33,4.98,1.35,4.65,8.98-1.13,18.9-3.54,27.43-6.64,3.65-1.32,10.69-5.67,5.97-10.07-4.37-4.08-14.52.03-19.08,2.04-7.62,3.36-14.01,8.69-19.06,15.28-1.64,2.15,1.63,4.56,3.34,2.51h0Z"/>
        </g>
        <g>
          <path class="cls-6" d="m592.99,305.86c-7.43-10.19-11.73-22.64-12.18-35.25-.04-1.24.24-2.85,1.47-3.06,2.49,1.49,3.62,4.45,4.51,7.21,3.11,9.57,5.5,19.37,7.15,29.29"/>
          <path class="cls-6" d="m594.8,304.44c-3.31-5.18-6.25-10.45-8.22-16.3-.77-2.29-5.52-16.76-2.72-18.57l-3.12.04c4.6,3.65,5.7,12.57,7.05,17.82,1.45,5.63,2.43,11.36,3.83,16.99.72,2.91,4.94,2.33,4.65-.72-.76-7.77-2.82-15.5-4.97-22.99-1.59-5.52-2.77-11.5-7.48-15.2-.95-.75-2.18-.58-3.12.04-5.22,3.41-1.58,14.49-.34,19.22,2.13,8.11,5.68,15.88,10.83,22.52,1.85,2.38,5.17-.4,3.61-2.84h0Z"/>
        </g>
        <g>
          <path class="cls-6" d="m596.29,307.73c4.93-2.33,9.85-4.67,14.88-6.78,4.28-1.8,8.85-3.46,13.46-2.89,1.59.19,3.46,1.02,3.56,2.62.05.74-.33,1.45-.79,2.04-1.91,2.45-5.16,3.33-8.18,4.07-5.89,1.45-11.79,2.89-17.68,4.34"/>
          <path class="cls-6" d="m597.15,309.7c4.34-1.97,8.68-3.95,13.09-5.78,2.37-.98,11.72-5.54,14.13-3.32,2.13,1.96-10.4,4.72-11.44,4.98-4.15,1.01-8.3,1.98-12.35,3.31-2.69.88-1.35,5.14,1.36,4.69,4.79-.79,33.93-4.48,28.27-14.97-5.57-10.32-28.78,4.24-34.76,7.18-2.46,1.21-.81,5.08,1.71,3.93h0Z"/>
        </g>
        <g>
          <path class="cls-6" d="m580.41,351.99c-7.97-11.39-13.52-24.46-16.17-38.11-.48-2.49-.87-5.09-.21-7.53.34-1.24,1.07-2.52,2.3-2.88.89-.26,1.85.01,2.68.44,3.41,1.76,4.95,5.73,6.06,9.39,3.41,11.23,5.42,22.89,5.98,34.61"/>
          <path class="cls-6" d="m582.08,350.67c-3.59-5.76-6.9-11.59-9.51-17.87-1.58-3.81-2.95-7.72-4.04-11.7-.61-2.23-2.46-6.58-1.95-8.87-.79-2.28.66-3.02,4.35-2.23.95,2.11,1.7,4.28,2.25,6.53.94,3.29,1.72,6.63,2.4,9.98,1.46,7.21,2.06,14.49,2.98,21.78.35,2.75,4.94,2.77,4.97-.12.07-7.08-3.21-53.86-18.56-46.97-7.37,3.31-2.81,15.94-1.26,21.3,3.19,11.04,8.18,21.56,15.02,30.81,1.67,2.25,4.76-.37,3.35-2.64h0Z"/>
        </g>
        <g>
          <path class="cls-6" d="m583.78,349.99c9.24-5.89,20.22-9.01,31.18-8.83.08,1.73-.98,3.34-2.35,4.39-1.37,1.04-3.04,1.62-4.68,2.17-6.76,2.3-13.52,4.6-20.27,6.9"/>
          <path class="cls-6" d="m584.67,352.05c9.16-5.38,19.35-8.31,30-8.17-.81-1-1.61-2-2.42-3-.52,4.22-9.39,5.64-12.81,6.8-4.3,1.46-8.63,2.83-12.79,4.65-2.52,1.1-1.45,5.47,1.38,4.77,6.81-1.69,13.45-4.21,20.08-6.51,4.67-1.62,9.01-3.71,9.55-9.14.13-1.34-.94-3.01-2.42-3-11.86.12-22.89,3.31-32.85,9.78-2.11,1.37.08,5.1,2.28,3.81h0Z"/>
        </g>
        <g>
          <path class="cls-6" d="m564.68,400.14c-11.52-15.26-19.12-33.45-21.89-52.37,3.96,1.29,6.75,4.78,9.03,8.27,6.58,10.08,10.88,21.63,12.49,33.56"/>
          <path class="cls-6" d="m566.41,398.78c-10.74-15.75-18.11-32.48-21.02-51.41-1.19.95-2.38,1.9-3.56,2.85,12.87,5.92,17.48,27.44,20.09,39.75.65,3.05,5.06,2.36,4.78-.74-1.34-14.57-8.45-37.4-22.94-43.9-1.84-.82-3.87.95-3.56,2.85,3.14,19.28,10.56,37.95,22.77,53.32,1.78,2.24,5.03-.41,3.45-2.72h0Z"/>
        </g>
        <g>
          <path class="cls-6" d="m569.73,397.25c6.31-3.32,12.62-6.64,18.92-9.96,2.62-1.38,5.31-2.78,8.24-3.22,2.3-.34,4.83,0,6.59,1.51,1.76,1.52,2.4,4.43.95,6.25-1.02,1.28-2.74,1.75-4.33,2.14-10.58,2.61-21.17,5.22-31.75,7.83"/>
          <path class="cls-6" d="m570.58,399.21c5-2.38,9.91-4.95,14.83-7.49,2.45-1.26,4.88-2.7,7.42-3.75,1.41-.67,2.89-1.13,4.44-1.39,3.51,3.09,3.94,4.77,1.28,5.03-1.75,1.25-5.84,1.43-7.94,1.95-2.65.65-5.29,1.3-7.94,1.95-5.12,1.26-10.3,2.33-15.27,4.14-2.56.93-1.28,4.83,1.3,4.48,9.92-1.34,19.83-4.48,29.53-6.95,5.02-1.28,11.3-3.36,9.25-9.99-1.73-5.6-8.14-6.47-13.04-5.16-8.82,2.35-17.74,8.71-25.59,13.26-2.32,1.35-.84,5.14,1.71,3.93h0Z"/>
        </g>
        <g>
          <path class="cls-6" d="m655.26,136.7c-1.52-.49-1.64-2.57-1.45-4.16,1.72-14.11,4.98-28.97,14.95-39.11.61-.63,1.36-1.27,2.24-1.21,1.55.11,2.04,2.15,2,3.71-.18,7.97-2.73,15.74-6.33,22.85-3.6,7.11-8.24,13.64-12.85,20.14"/>
          <path class="cls-6" d="m656.94,135.39c-4.15-6.24,10-38.96,12.43-37.1,3.1,2.37-3.87,16.3-5.45,19.42-3.51,6.9-8.34,12.96-12.25,19.61-1.73,2.94,2.03,5.93,4.31,3.23,8.11-9.59,15.37-21.53,18.4-33.82.92-3.72,4.39-17.5-3.8-17.28-7,.19-12.46,14.45-14.31,19.54-2.55,7.02-8.67,23.06-2.67,29.04,1.92,1.92,4.89-.31,3.35-2.64h0Z"/>
        </g>
      </g>
      <g>
        <g>
          <path class="cls-6" d="m544.16,434.42l165.44-86.76c-47.32,23.51-94.43,47.44-141.32,71.77-8.27,4.29-16.51,8.63-24.73,12.99.2.67.4,1.33.61,2Z"/>
          <path class="cls-6" d="m708.76,345.79c-55.56,27.63-110.96,55.63-165.8,84.67.6,1.98,1.21,3.97,1.82,5.95,46.93-24.61,93.86-49.22,140.79-73.84,8.29-4.35,16.59-8.7,24.88-13.05,2.32-1.22.69-4.92-1.69-3.74Z"/>
        </g>
        <g>
          <path class="cls-6" d="m681.05,359.86c4.39-11.87,11.18-22.84,19.85-32.06.93,1.28.5,3.05-.02,4.54-3.65,10.52-9.99,20.09-18.26,27.55"/>
          <path class="cls-6" d="m682.53,360.42c4.67-11.53,11.09-22.04,19.61-31.13-1-.23-1.99-.46-2.99-.69,1.67,4.72-4.93,13.96-7.29,17.52-3.1,4.66-6.9,8.66-10.67,12.76-1.39,1.51,1.06,3.59,2.58,2.39,6.1-4.86,10.87-11.39,14.56-18.22,2.47-4.57,6.38-10.76,4.34-16.04-.58-1.5-2.43-1.32-3.32-.32-8.65,9.58-15.38,20.46-19.76,32.62-.69,1.92,2.19,3,2.95,1.11h0Z"/>
        </g>
        <g>
          <path class="cls-6" d="m684.22,358.95c6.03.07,12.06.89,17.89,2.44,4.87,1.3,10.11,3.55,12.08,8.19-6.34,1.1-12.72-1.21-18.74-3.47-3.84-1.45-7.67-2.89-11.51-4.33"/>
          <path class="cls-6" d="m684.05,360.58c8.7.66,23.7.9,28.29,9.84.51-.95,1.03-1.9,1.54-2.85-10.28,1.32-19.72-4.79-29.25-7.61-2.4-.71-3.64,2.58-1.37,3.63,9.24,4.27,20.85,9.43,31.25,8,1.25-.17,2.15-1.68,1.54-2.85-5.48-10.46-21.64-11.73-32.09-11.41-1.87.06-1.74,3.12.08,3.26h0Z"/>
        </g>
        <g>
          <path class="cls-6" d="m658.54,373.8c1.12-11.55,6.43-22.65,14.71-30.78.84-.82,1.75-1.64,2.88-1.97,1.56,2.01.39,4.91-.85,7.13-4.76,8.54-10.08,16.77-15.91,24.62"/>
          <path class="cls-6" d="m660.14,373.97c1.56-10.48,6.48-25.92,16.76-31.21-.83-.31-1.65-.62-2.48-.94,2.09,4.36-5.43,13.34-7.73,16.91-2.83,4.41-6.03,8.58-8.76,13.05-1.2,1.96,1.39,3.74,2.88,2.04,5.23-5.98,9.44-13.14,13.43-19.98,2.39-4.1,5.94-8.75,3.59-13.56-.42-.87-1.56-1.42-2.48-.94-11.21,5.9-17.42,22.4-18.42,34.29-.17,2.08,2.9,2.38,3.2.33h0Z"/>
        </g>
        <g>
          <path class="cls-6" d="m658.5,373.03c6.52.83,12.97,2.25,19.24,4.24,3.88,1.23,7.82,2.74,10.75,5.57.78.75,1.5,2.01.78,2.83-.31.35-.8.48-1.26.56-3.64.63-7.32-.73-10.65-2.33-5.13-2.47-9.93-5.57-14.71-8.66"/>
          <path class="cls-6" d="m658.34,374.59c4.72.76,9.42,1.71,14.02,3.01,3.14.89,11.49,2.46,13.2,5.45,1.25,2.17-2.98.69-4.24.25-2.08-.74-4.06-1.77-6-2.82-4.08-2.2-7.83-5-11.98-7.05-2.08-1.03-3.41,2.08-1.81,3.4,2.8,2.3,29.59,19.41,30.09,8.13.22-4.96-8.21-7.83-11.75-9-6.87-2.26-14.03-3.68-21.21-4.47-2.02-.22-2.3,2.79-.32,3.11h0Z"/>
        </g>
        <g>
          <path class="cls-6" d="m631,386.12c3.07-12.53,10.17-23.69,17.96-33.98,1.92-2.54,4.12-5.2,7.21-6.01,1.56,1.59.36,4.23-.9,6.07-7.11,10.37-14.57,20.5-22.39,30.35"/>
          <path class="cls-6" d="m632.48,386.68c2.1-7.34,5.18-14.18,9.16-20.7,3.7-6.06,8.6-15.26,15.34-18.08-.86-.32-1.72-.65-2.59-.97,1.69,4.45-8.23,14.74-10.85,18.29-4.01,5.45-8.31,10.7-12.19,16.24-1.41,2.02,1.49,3.94,3.06,2.17,6.39-7.22,11.97-15.26,17.53-23.12,3.23-4.57,8.4-9.37,6.01-15.18-.4-.98-1.64-1.39-2.59-.97-7.05,3.1-11.37,11.06-15.32,17.34-4.69,7.46-8.37,15.31-10.52,23.88-.48,1.93,2.39,3.09,2.95,1.11h0Z"/>
        </g>
        <g>
          <path class="cls-6" d="m633.99,384.16c6.75.84,13.09,3.6,19.33,6.33,2.32,1.02,4.77,2.14,6.17,4.25-.73,1.23-2.41,1.47-3.84,1.34-6.78-.6-11.92-6.2-18.13-8.98"/>
          <path class="cls-6" d="m633.83,385.66c4.35.75,8.5,2.16,12.57,3.84,3.89,1.61,8.92,3.12,11.55,6.51.09-.93.17-1.86.26-2.79-4.27,4.38-15.78-6.45-20.06-7.81-1.88-.6-3.48,1.99-1.69,3.17,5.59,3.67,18.25,14.21,24.63,7.31.59-.63.41-1.8-.09-2.42-3.01-3.65-7.8-5.13-12.07-6.82-4.81-1.9-9.65-3.39-14.79-3.99-1.95-.23-2.21,2.67-.31,3h0Z"/>
        </g>
        <g>
          <path class="cls-6" d="m597.89,402.68c5.3-13.79,13.15-26.59,23.03-37.57.48-.53,1.06-1.1,1.78-1.07.82.05,1.39.94,1.38,1.76-.01.82-.43,1.58-.85,2.29-7.08,12.07-15.62,23.28-25.37,33.31"/>
          <path class="cls-6" d="m599.33,403.22c2.94-7.1,6.35-13.98,10.49-20.46,1.4-2.2,2.87-4.35,4.41-6.46.75-1.03,6.72-7.26,6.5-8.15.68,2.76-8.17,12.65-9.99,15.07-4.5,5.97-9.52,11.45-14.38,17.11-1.35,1.58,1.16,3.91,2.68,2.48,4.23-3.97,34.3-37.32,24.56-40.45-4.74-1.52-10.27,8.93-12.33,11.83-6.16,8.65-11.04,18.02-14.81,27.94-.71,1.86,2.12,2.91,2.88,1.09h0Z"/>
        </g>
        <g>
          <path class="cls-6" d="m597.85,405.96c6.53-.96,13.34.09,19.27,2.97,2.44,1.19,4.76,2.7,6.57,4.73.36.41.72.9.68,1.44-.1,1.22-1.86,1.33-3.02.96-2.55-.82-4.88-2.18-7.19-3.53-4.24-2.48-8.48-4.96-12.72-7.44"/>
          <path class="cls-6" d="m598.08,407.46c8.24-.88,17.02,1.08,23.28,6.71,2.02,1.82-.66-.47-1.16-.76-.99-.58-2.1-1.01-3.11-1.57-1.66-.92-3.28-1.91-4.91-2.87-3.32-1.95-6.59-3.99-10.12-5.54-1.9-.83-3.23,1.93-1.66,3.12,5.27,3.97,11.69,7.76,17.72,10.48,2.58,1.16,8.47,2.47,8.24-2.23-.21-4.36-7.61-7.37-11.02-8.64-5.7-2.12-11.75-2.58-17.74-1.7-1.95.29-1.46,3.21.47,3.01h0Z"/>
        </g>
        <g>
          <path class="cls-6" d="m573.69,413.4c1.29-9.11,5.37-17.81,11.55-24.63.61-.67,1.58-1.37,2.32-.85.54,2.05-.37,4.17-1.3,6.07-3.24,6.59-6.97,12.93-11.16,18.96"/>
          <path class="cls-6" d="m575.36,413.57c.9-4.39,2.05-8.65,3.99-12.7.76-1.59,5.63-11.58,8.02-11.1-.55-.52-1.1-1.05-1.65-1.57.55,4.25-3.41,9.47-5.37,12.91-2.11,3.68-4.5,7.18-6.64,10.84-1.1,1.89,1.4,3.73,2.8,1.98,3.55-4.45,6.41-9.54,9.09-14.55,1.98-3.7,4.4-7.43,3.82-11.76-.12-.88-.84-1.41-1.65-1.57-4.47-.87-8.19,6.78-9.95,9.88-3.01,5.32-5.1,11.2-5.78,17.29-.24,2.19,2.91,2.42,3.33.35h0Z"/>
        </g>
        <g>
          <path class="cls-6" d="m574.47,416.06c3.76,1.29,7.53,2.57,11.23,4.02,3.15,1.24,6.39,2.69,8.51,5.33.73.91,1.29,2.3.53,3.18-.35.41-.91.59-1.45.67-2.25.31-4.39-.88-6.35-2.03-3.82-2.24-7.64-4.48-11.46-6.72"/>
          <path class="cls-6" d="m573.92,417.52c3.27,1.17,6.55,2.35,9.79,3.63,1.74.69,8.95,3.06,9.08,5.45.12,2.11-7.85-2.82-8.52-3.21-2.68-1.58-5.35-3.19-8.14-4.55-1.85-.91-3.32,2-1.67,3.14,2.91,2.02,20.03,14.91,22.4,6.54,2.34-8.23-17.21-12.42-21.84-13.92-1.91-.62-3.01,2.24-1.1,2.92h0Z"/>
        </g>
        <g>
          <path class="cls-6" d="m543.66,431.13c1.62-10.01,5.37-19.67,10.92-28.16,1.01-1.55,2.13-3.1,3.72-4.05.81-.48,1.84-.77,2.67-.34.6.31.96.95,1.18,1.59.89,2.65-.32,5.51-1.61,8-3.93,7.61-8.8,14.73-14.47,21.15"/>
          <path class="cls-6" d="m543.61,432.61c.69-.02,1.4-.45,1.59-1.32.03-.12.05-.23.08-.35.6.35,1.35.38,1.95-.22,3.64-3.67,25.71-29.81,14.18-34.01-5.54-2.02-9.57,6.91-11.49,10.5-3.6,6.75-6.18,14.04-7.46,21.58.38,1.27.77,2.54,1.16,3.81Zm9.54-23.68c.81-1.48,2.06-4.69,3.49-5.63.75-1.6,1.88-1.25,3.41,1.05-.57,1.59-1.29,3.11-2.15,4.56-1.18,2.2-2.47,4.34-3.82,6.44-2.31,3.6-4.92,6.94-7.52,10.31.76-2.89,1.64-5.74,2.75-8.55,1.11-2.8,2.38-5.54,3.84-8.18Z"/>
        </g>
        <g>
          <path class="cls-6" d="m546.43,431.8c7.83,1.61,15.16,5.57,20.8,11.24-.84.94-2.21,1.25-3.46,1.1-1.25-.15-2.41-.7-3.55-1.24-4.7-2.23-9.41-4.47-14.11-6.7"/>
          <path class="cls-6" d="m568.76,441.77c-6.27-5.97-13.66-9.91-22.16-11.59-1.8-.36-2.55,2.71-.75,3.16,6.37,1.56,12.22,4.43,17.21,8.59-2.54-.54-5.62-2.58-7.26-3.37-2.99-1.42-5.95-2.91-9.05-4.07-.95-.36-1.85.2-2.26.97.24.77.48,1.54.72,2.31,4.38,2.54,9.08,4.57,13.66,6.72,3.27,1.53,6.6,2.64,9.64.08.75-.63,1.04-2.05.26-2.8Z"/>
        </g>
        <g>
          <path class="cls-6" d="m692.29,356.57c-.55-1.03.45-2.18,1.36-2.91,8.08-6.51,17.34-12.63,27.71-12.86.64-.01,1.36.03,1.79.5.76.85-.03,2.16-.84,2.96-4.15,4.08-9.44,6.85-14.94,8.73-5.5,1.89-11.25,2.95-16.97,4"/>
          <path class="cls-6" d="m693.84,356.73c1-5.37,25.05-15.3,25.37-13.09.42,2.82-10.31,6.56-12.73,7.39-5.34,1.83-10.95,2.54-16.38,4.03-2.4.66-1.95,4.13.61,3.88,9.12-.89,18.99-3.45,26.83-8.34,2.37-1.48,11.2-6.92,6.8-10.98-3.76-3.46-13.87,1.22-17.42,2.95-4.9,2.38-16.26,7.65-16.17,13.84.03,1.98,2.72,2.33,3.09.32h0Z"/>
        </g>
      </g>
    </g>
  </g>
  <g>
    <rect class="cls-11" x="299.55" y="29.38" width="302.54" height="429.84" rx="18.92" ry="18.92"/>
    <path class="cls-18" d="m588.47,71.48v340.96c0,4.71-1.75,9-4.61,12.25-3.33,3.77-8.12,6.13-13.48,6.13h-239.12c-7.42,0-13.82-4.53-16.6-11.05-.95-2.25-1.49-4.71-1.49-7.33V71.48c0-10.13,8.09-18.38,18.09-18.38h239.12c9.98,0,18.09,8.25,18.09,18.38Z"/>
    <path class="cls-13" d="m460.99,444.66c0,5.7-4.55,10.33-10.17,10.33s-10.17-4.62-10.17-10.33,4.55-10.33,10.17-10.33,10.17,4.62,10.17,10.33Z"/>
    <path class="cls-13" d="m456.57,444.66c0,3.23-2.57,5.84-5.75,5.84s-5.75-2.61-5.75-5.84,2.58-5.84,5.75-5.84,5.75,2.61,5.75,5.84Z"/>
    <path class="cls-13" d="m450.82,45.86c-2.38,0-4.3-1.96-4.3-4.37s1.93-4.37,4.3-4.37,4.3,1.96,4.3,4.37-1.93,4.37-4.3,4.37Z"/>
    <g>
      <rect class="cls-21" x="333.31" y="77.83" width="235.02" height="332.33"/>
      <rect class="cls-1" x="333.31" y="77.83" width="235.02" height="16.45"/>
      <g>
        <g>
          <path class="cls-2" d="m551.24,82.3c2.63,2.79,5.26,5.57,7.89,8.36.39.41,1.01-.21.62-.62-2.63-2.79-5.26-5.57-7.89-8.36-.39-.41-1.01.21-.62.62h0Z"/>
          <path class="cls-2" d="m551.86,90.66c2.63-2.79,5.26-5.57,7.89-8.36.39-.41-.23-1.03-.62-.62-2.63,2.79-5.26,5.57-7.89,8.36-.39.41.23,1.03.62.62h0Z"/>
        </g>
        <g>
          <path class="cls-2" d="m544.66,86.87h-5.79c.15.15.29.29.44.44v-5.79c-.15.15-.29.29-.44.44h5.79l-.44-.44v5.79c0,.56.88.56.88,0v-5.79c0-.24-.2-.44-.44-.44h-5.79c-.24,0-.44.2-.44.44v5.79c0,.24.2.44.44.44h5.79c.56,0,.56-.88,0-.88Z"/>
          <path class="cls-2" d="m541.29,89.92h-5.79l.44.44v-5.79l-.44.44h5.79c-.15-.15-.29-.29-.44-.44v5.79c0,.56.88.56.88,0v-5.79c0-.24-.2-.44-.44-.44h-5.79c-.24,0-.44.2-.44.44v5.79c0,.24.2.44.44.44h5.79c.56,0,.56-.88,0-.88Z"/>
        </g>
        <path class="cls-2" d="m520.63,86.61h7.84c.56,0,.56-.88,0-.88h-7.84c-.56,0-.56.88,0,.88h0Z"/>
      </g>
      <g>
        <rect class="cls-2" x="346.98" y="108.59" width="207.24" height="282.55"/>
        <path class="cls-7" d="m440.79,199.4c-38.17,15.85-74.74,3.82-93.81-5.2v-26.58c16,13.28,49.16,34.7,90.87,28.29l2.94,3.49Z"/>
        <path class="cls-7" d="m554.22,167.32v26.71c-18.97,9.04-55.76,21.32-94.17,5.37l2.94-3.49c42.02,6.46,75.37-15.34,91.23-28.59Z"/>
        <text class="cls-17" transform="translate(361.53 154.05)"><tspan x="0" y="0">CE</tspan><tspan class="cls-12" x="33.78" y="0">R</tspan><tspan class="cls-14" x="52.79" y="0">TIFIC</tspan><tspan class="cls-8" x="120.05" y="0">A</tspan><tspan class="cls-14" x="138.54" y="0">TE</tspan></text>
        <rect class="cls-7" x="365.4" y="267.44" width="172.38" height="2.18"/>
        <rect class="cls-7" x="365.4" y="313.16" width="172.38" height="2.18"/>
        <rect class="cls-7" x="365.4" y="278.15" width="172.38" height="7.38"/>
        <rect class="cls-7" x="365.4" y="292.58" width="172.38" height="7.38"/>
        <rect class="cls-7" x="372.82" y="324.39" width="157.56" height="2.18"/>
        <rect class="cls-7" x="384.41" y="358.2" width="136.37" height="2.18"/>
        <rect class="cls-7" x="390.28" y="371.43" width="124.64" height="2.18"/>
        <g>
          <polygon class="cls-16" points="436.06 218.99 430.54 251.83 437.94 243.65 442.51 251.83 452.6 222.85 464.22 251.83 469.24 244.33 476.8 251.79 469.89 218.1 436.06 218.99"/>
          <circle class="cls-6" cx="452.6" cy="198.18" r="29.69"/>
          <circle class="cls-16" cx="452.6" cy="198.18" r="20.81"/>
        </g>
      </g>
      <path d="m333.31,95.28h225.41c3,0,6.22.34,9.21,0,.13-.01.27,0,.4,0,1.29,0,1.29-2,0-2h-225.41c-3,0-6.22-.34-9.21,0-.13.01-.27,0-.4,0-1.29,0-1.29,2,0,2h0Z"/>
    </g>
    <g class="cls-23">
      <path class="cls-3" d="m567.52,53.12l-208.09,377.71h-28.17c-10,0-18.09-8.22-18.09-18.38v-42.01L488,53.12h79.52Z"/>
      <polygon class="cls-3" points="588.48 92.07 588.48 203.13 463.03 430.83 401.83 430.83 588.48 92.07"/>
    </g>
  </g>
  <g>
    <g>
      <path d="m91.72,107.2c5.14-1.34,10.29-2.68,15.43-4.01-.41-.23-.82-.47-1.23-.7,3.46,13.3,6.92,26.59,10.38,39.89.32,1.24,2.25.72,1.93-.53-3.46-13.3-6.92-26.59-10.38-39.89-.14-.53-.71-.83-1.23-.7-5.14,1.34-10.29,2.68-15.43,4.01-1.24.32-.72,2.25.53,1.93h0Z"/>
      <g>
        <rect class="cls-16" x="84.69" y="96.77" width="17.76" height="34.43" transform="translate(-26.86 28.88) rotate(-15.37)"/>
        <polygon class="cls-4" points="134.05 262.11 128.05 255.02 120.72 246.37 125.57 237.53 137.85 241.66 135.84 252.47 134.05 262.11"/>
        <polygon class="cls-16" points="134.05 262.11 128.05 255.02 135.84 252.47 134.05 262.11"/>
        <rect class="cls-6" x="104.83" y="128.48" width="17.76" height="117.63" transform="translate(-45.54 36.8) rotate(-15.36)"/>
      </g>
      <path d="m137.58,240.69c-5.71,1.57-11.42,3.14-17.12,4.71-1.24.34-.71,2.27.53,1.93,5.71-1.57,11.42-3.14,17.12-4.71,1.24-.34.71-2.27-.53-1.93h0Z"/>
    </g>
    <g>
      <rect class="cls-5" x="129.11" y="75.34" width="13.46" height="154.12" transform="translate(12.74 -10.46) rotate(4.63)"/>
      <rect class="cls-2" x="132.91" y="102.43" width="13.46" height="6.09" transform="translate(8.97 -10.92) rotate(4.63)"/>
      <rect class="cls-2" x="133.82" y="91.16" width="13.46" height="6.09" transform="translate(8.06 -11.03) rotate(4.63)"/>
    </g>
    <g>
      <path class="cls-1" d="m153.72,242.34h0c-3.7-.3-6.46-3.55-6.16-7.25l11.35-140.21c.3-3.7,3.55-6.46,7.25-6.16h0c3.7.3,6.46,3.55,6.16,7.25l-11.35,140.21c-.3,3.7-3.55,6.46-7.25,6.16Z"/>
      <rect class="cls-2" x="157.01" y="115.56" width="13.46" height="6.09" transform="translate(10.1 -12.82) rotate(4.63)"/>
    </g>
    <g>
      <path class="cls-21" d="m192.26,178.57l-7.3,66.05-6.54,59.26h-1.05c-38.96-22.03-82.33-101.47-94.72-125.31h109.61Z"/>
      <path class="cls-20" d="m177.37,303.88h-81.91l-6.53-59.26-7.3-66.05h1.02c12.39,23.84,55.76,103.28,94.72,125.31Z"/>
    </g>
  </g>
  <path d="m213.11,289.19l-45.88-7.59c.23-1.41.36-2.86.36-4.33,0-14.63-11.9-26.53-26.53-26.53-13.76,0-25.1,10.52-26.4,23.94-4.83-1.3-9.28-.86-12.8.09-1.08-13.46-10.78-24.03-22.56-24.03-12.5,0-22.66,11.9-22.66,26.53s10.17,26.53,22.66,26.53,22.66-11.9,22.66-26.53c0-.18,0-.35-.01-.53,3.38-.98,7.77-1.46,12.59-.04,0,.19-.01.38-.01.57,0,14.63,11.9,26.53,26.53,26.53,12.46,0,22.94-8.64,25.77-20.24l45.14,7.47,8.23,11.37,1.62-1.17-8.71-12.04Zm-133.81,12.61c-11.06,0-20.12-10.37-20.64-23.35l34.63,5.73-.23-2.06-34.4-5.69c.38-13.14,9.49-23.69,20.64-23.69s19.77,9.99,20.59,22.63c-3.62,1.26-5.87,2.86-5.92,2.9l1.18,1.62c.19-.14,1.97-1.4,4.81-2.48-.06,13.46-9.31,24.39-20.66,24.39Zm61.76,0c-13.49,0-24.47-10.94-24.53-24.42,1.55.62,3.14,1.44,4.75,2.52l1.12-1.66c-1.95-1.32-3.89-2.27-5.78-2.96,1.01-12.61,11.58-22.56,24.45-22.56,13.53,0,24.53,11,24.53,24.53s-11,24.53-24.53,24.53Z"/>
  <g>
    <g>
      <rect class="cls-24" x="54.1" y="378.49" width="196.62" height="21.46"/>
      <path d="m62.62,387.41h181.04c2.38,0,5,.31,7.37,0,.11-.01.23,0,.34,0,1.29,0,1.29-2,0-2H70.33c-2.38,0-5-.31-7.37,0-.11.01-.23,0-.34,0-1.29,0-1.29,2,0,2h0Z"/>
      <path d="m68.26,394.77h174.94c2.32,0,4.88.31,7.19,0,.1-.01.22,0,.33,0,1.29,0,1.29-2,0-2H75.78c-2.32,0-4.88-.31-7.19,0-.1.01-.22,0-.33,0-1.29,0-1.29,2,0,2h0Z"/>
      <polygon class="cls-6" points="47.69 373.53 47.69 381.2 246.36 381.2 246.36 397.62 47.69 397.62 47.69 405.3 253.41 405.3 253.41 403.92 253.41 397.62 253.41 381.2 253.41 375.24 253.41 373.53 47.69 373.53"/>
    </g>
    <g>
      <rect class="cls-10" x="26.17" y="355.28" width="218.66" height="18.25"/>
      <rect class="cls-19" x="210.6" y="355.28" width="11.55" height="18.25"/>
      <rect class="cls-19" x="187.83" y="355.28" width="11.55" height="18.25"/>
    </g>
    <g>
      <rect class="cls-16" x="47.69" y="303.88" width="187.18" height="51.4"/>
      <rect class="cls-6" x="68.71" y="303.88" width="34.67" height="51.4"/>
      <rect class="cls-6" x="119.61" y="303.88" width="26.23" height="51.4"/>
    </g>
    <g>
      <path class="cls-24" d="m264.31,451.26H37.19v-43.07h227.12l-3.22,20.21c-.41,1.59-.39,3.27.06,4.85l3.16,18.01Z"/>
      <path d="m39.99,419.93h197.96c2.62,0,5.47.32,8.08,0,.12-.01.24,0,.36,0,1.29,0,1.29-2,0-2H48.42c-2.62,0-5.47-.32-8.08,0-.12.01-.24,0-.36,0-1.29,0-1.29,2,0,2h0Z"/>
      <path d="m39.99,430.73h197.96c2.62,0,5.47.32,8.08,0,.12-.01.24,0,.36,0,1.29,0,1.29-2,0-2H48.42c-2.62,0-5.47-.32-8.08,0-.12.01-.24,0-.36,0-1.29,0-1.29,2,0,2h0Z"/>
      <path d="m39.89,440.31h177.96c2.36,0,4.96.31,7.3,0,.1-.01.22,0,.32,0,1.29,0,1.29-2,0-2H47.51c-2.36,0-4.96-.31-7.3,0-.1.01-.22,0-.32,0-1.29,0-1.29,2,0,2h0Z"/>
      <polygon class="cls-21" points="268.97 412.69 268.97 405.3 41.88 405.3 34.02 405.3 34.02 412.69 34.02 447.57 34.02 451.26 34.02 454.96 268.97 454.96 268.97 447.57 41.88 447.57 41.88 412.69 268.97 412.69"/>
    </g>
    <g>
      <rect class="cls-1" x="253.37" y="238.66" width="26.54" height="226.65" transform="translate(-107.63 117.64) rotate(-20.8)"/>
      <path d="m224.5,278.69c8.27-3.14,16.54-6.28,24.81-9.43,1.19-.45.67-2.39-.53-1.93-8.27,3.14-16.54,6.28-24.81,9.43-1.19.45-.67,2.39.53,1.93h0Z"/>
      <path d="m228.11,288.2c8.27-3.14,16.54-6.28,24.81-9.43,1.19-.45.67-2.39-.53-1.93-8.27,3.14-16.54,6.28-24.81,9.43-1.19.45-.67,2.39.53,1.93h0Z"/>
      <path d="m232.04,298.54c8.27-3.14,16.54-6.28,24.81-9.43,1.19-.45.67-2.39-.53-1.93-8.27,3.14-16.54,6.28-24.81,9.43-1.19.45-.67,2.39.53,1.93h0Z"/>
    </g>
  </g>
</svg>