<?xml version="1.0" encoding="utf-8"?>
<!-- Generator: Adobe Illustrator 27.3.1, SVG Export Plug-In . SVG Version: 6.00 Build 0)  -->
<svg version="1.1" xmlns="http://www.w3.org/2000/svg" xmlns:xlink="http://www.w3.org/1999/xlink" x="0px" y="0px"
	 viewBox="0 0 500 500" style="enable-background:new 0 0 500 500;" xml:space="preserve">
<style type="text/css">
	.st0{fill:#EBEBEB;}
	.st1{fill:#E0E0E0;}
	.st2{display:none;}
	.st3{display:inline;fill:#F5F5F5;}
	.st4{fill:#263238;}
	.st5{fill:#FF725E;}
	.st6{opacity:0.3;}
	.st7{opacity:0.2;}
	.st8{fill:#FFBF9D;}
	.st9{fill:#FF9A6C;}
	.st10{fill:#455A64;}
</style>
<g id="Background_Complete">
	<g>
		<g>
			<g>
				<g>
					<g>
						<path class="st0" d="M310.86,272.21c-46.12-0.44-87.86-0.85-118.12-1.14c-15.09-0.07-27.31-0.13-35.8-0.17
							c-4.2,0.01-7.47,0.02-9.73,0.02c-1.09,0.01-1.93,0.03-2.53,0.03c-0.57,0.01-0.86,0.03-0.86,0.05c0,0.02,0.29,0.04,0.86,0.06
							c0.6,0.01,1.44,0.03,2.53,0.06c2.26,0.03,5.53,0.07,9.73,0.12c8.48,0.05,20.7,0.11,35.8,0.19c30.26,0.02,72,0.05,118.12,0.08
							c46.1-0.01,87.85,0.06,118.07,0.28c15.11,0.11,27.34,0.25,35.79,0.42c4.23,0.08,7.51,0.17,9.73,0.25
							c2.22,0.09,3.39,0.17,3.39,0.26c0,0.08-1.17,0.16-3.4,0.22c-2.23,0.06-5.51,0.12-9.73,0.15c-8.45,0.08-20.68,0.09-35.8,0.05
							C398.71,273.05,356.96,272.69,310.86,272.21z"/>
					</g>
				</g>
			</g>
		</g>
	</g>
	<g>
		<g>
			<g>
				<g>
					<g>
						<path class="st0" d="M309.94,282.62c-45.49-7.61-86.66-14.5-116.51-19.49c-14.9-2.42-26.96-4.37-35.34-5.73
							c-4.15-0.64-7.39-1.14-9.62-1.49c-1.08-0.15-1.91-0.27-2.51-0.36c-0.57-0.07-0.86-0.1-0.86-0.09c0,0.02,0.28,0.08,0.84,0.19
							c0.59,0.11,1.42,0.26,2.49,0.45c2.23,0.38,5.45,0.93,9.59,1.64c8.37,1.36,20.43,3.33,35.33,5.76
							c29.89,4.72,71.12,11.23,116.68,18.42c45.54,7.15,86.78,13.7,116.6,18.61c14.91,2.46,26.97,4.5,35.29,5.98
							c4.16,0.74,7.39,1.33,9.57,1.77c2.18,0.43,3.32,0.7,3.31,0.78c-0.01,0.08-1.18-0.02-3.39-0.3c-2.21-0.28-5.46-0.74-9.64-1.36
							c-8.36-1.24-20.45-3.12-35.37-5.51C396.59,297.11,355.41,290.26,309.94,282.62z"/>
					</g>
				</g>
			</g>
		</g>
	</g>
	<g>
		<g>
			<g>
				<g>
					<g>
						<path class="st0" d="M307.4,292.75c-43.73-14.68-83.3-27.97-111.98-37.6c-14.33-4.73-25.93-8.56-33.99-11.22
							c-4-1.29-7.11-2.29-9.26-2.98c-1.04-0.32-1.84-0.57-2.42-0.75c-0.55-0.16-0.83-0.24-0.84-0.22c-0.01,0.02,0.27,0.13,0.8,0.32
							c0.57,0.2,1.36,0.48,2.39,0.84c2.14,0.73,5.24,1.78,9.22,3.13c8.05,2.67,19.65,6.51,33.98,11.25
							c28.77,9.36,68.46,22.28,112.32,36.56c43.85,14.23,83.54,27.19,112.21,36.74c14.34,4.77,25.92,8.69,33.91,11.46
							c3.99,1.38,7.09,2.48,9.18,3.25s3.17,1.22,3.15,1.3c-0.03,0.08-1.16-0.21-3.3-0.83c-2.14-0.63-5.27-1.59-9.31-2.86
							c-8.06-2.54-19.7-6.3-34.06-11.01C390.68,320.72,351.1,307.46,307.4,292.75z"/>
					</g>
				</g>
			</g>
		</g>
	</g>
	<g>
		<g>
			<g>
				<g>
					<g>
						<path class="st0" d="M303.3,302.35c-40.87-21.38-77.86-40.72-104.67-54.74c-13.41-6.93-24.26-12.54-31.8-16.43
							c-3.75-1.9-6.67-3.38-8.68-4.4c-0.98-0.48-1.73-0.85-2.27-1.12c-0.51-0.25-0.78-0.37-0.79-0.35
							c-0.01,0.02,0.24,0.17,0.74,0.44c0.53,0.29,1.27,0.69,2.23,1.21c2,1.05,4.89,2.58,8.61,4.54c7.53,3.9,18.39,9.52,31.79,16.46
							c26.94,13.78,64.1,32.78,105.17,53.79c41.06,20.96,78.22,40,105.03,53.95c13.41,6.97,24.23,12.66,31.69,16.65
							c3.73,1.99,6.61,3.56,8.55,4.65c1.94,1.09,2.94,1.7,2.9,1.77c-0.04,0.07-1.11-0.39-3.13-1.34c-2.01-0.96-4.96-2.4-8.74-4.29
							c-7.56-3.78-18.46-9.32-31.9-16.24C381.15,343.07,344.14,323.75,303.3,302.35z"/>
					</g>
				</g>
			</g>
		</g>
	</g>
	<g>
		<g>
			<g>
				<g>
					<g>
						<path class="st0" d="M297.75,311.19c-37.03-27.5-70.54-52.39-94.83-70.43c-12.16-8.94-22.01-16.18-28.84-21.2
							c-3.4-2.46-6.05-4.38-7.88-5.71c-0.89-0.63-1.58-1.11-2.07-1.46c-0.47-0.32-0.72-0.48-0.73-0.47
							c-0.01,0.01,0.21,0.2,0.66,0.55c0.48,0.37,1.14,0.88,2.01,1.54c1.81,1.35,4.43,3.31,7.79,5.83
							c6.83,5.03,16.67,12.27,28.83,21.22c24.45,17.82,58.19,42.4,95.47,69.56c37.28,27.12,71,51.74,95.31,69.7
							c12.15,8.98,21.96,16.29,28.69,21.4c3.37,2.55,5.97,4.55,7.72,5.93c1.75,1.38,2.64,2.14,2.59,2.21
							c-0.05,0.07-1.04-0.56-2.88-1.82c-1.84-1.26-4.52-3.15-7.96-5.6c-6.88-4.91-16.78-12.09-28.97-21.02
							C368.27,363.58,334.74,338.71,297.75,311.19z"/>
					</g>
				</g>
			</g>
		</g>
	</g>
	<g>
		<g>
			<g>
				<g>
					<g>
						<path class="st0" d="M290.88,319.06c-32.3-32.93-61.53-62.72-82.72-84.32c-10.62-10.72-19.22-19.4-25.19-25.43
							c-2.98-2.96-5.3-5.27-6.9-6.86c-0.78-0.76-1.38-1.35-1.82-1.76c-0.41-0.39-0.63-0.59-0.64-0.58
							c-0.01,0.01,0.18,0.23,0.57,0.65c0.42,0.44,0.99,1.04,1.75,1.83c1.58,1.62,3.86,3.96,6.79,6.97
							c5.97,6.03,14.56,14.72,25.18,25.45c21.38,21.4,50.89,50.94,83.49,83.57c32.61,32.59,62.09,62.15,83.31,83.68
							c10.61,10.76,19.16,19.51,25.02,25.6c2.93,3.05,5.19,5.43,6.7,7.06c1.51,1.63,2.28,2.52,2.22,2.58
							c-0.06,0.06-0.94-0.71-2.56-2.24c-1.62-1.53-3.98-3.81-6.99-6.77c-6.03-5.92-14.7-14.56-25.35-25.27
							C352.4,381.77,323.14,351.99,290.88,319.06z"/>
					</g>
				</g>
			</g>
		</g>
	</g>
	<g>
		<g>
			<g>
				<g>
					<g>
						<path class="st0" d="M282.88,325.76c-26.79-37.55-51.03-71.53-68.6-96.16c-8.83-12.24-15.97-22.16-20.93-29.04
							c-2.48-3.39-4.42-6.03-5.75-7.85c-0.65-0.87-1.16-1.54-1.52-2.03c-0.35-0.45-0.53-0.68-0.55-0.67
							c-0.01,0.01,0.14,0.26,0.46,0.73c0.34,0.49,0.82,1.19,1.44,2.08c1.31,1.84,3.2,4.51,5.63,7.94
							c4.96,6.89,12.09,16.8,20.91,29.05c17.79,24.47,42.34,58.23,69.47,95.53c27.14,37.27,51.67,71.05,69.28,95.61
							c8.81,12.28,15.89,22.25,20.73,29.18c2.42,3.46,4.28,6.17,5.52,8.02c1.24,1.85,1.86,2.85,1.79,2.9
							c-0.07,0.05-0.82-0.85-2.18-2.61c-1.36-1.76-3.34-4.38-5.86-7.78c-5.04-6.79-12.25-16.66-21.11-28.91
							C333.9,397.28,309.63,363.31,282.88,325.76z"/>
					</g>
				</g>
			</g>
		</g>
	</g>
	<g>
		<g>
			<g>
				<g>
					<g>
						<path class="st0" d="M273.93,331.13c-20.59-41.28-39.21-78.63-52.72-105.71c-6.8-13.47-12.31-24.38-16.13-31.95
							c-1.92-3.74-3.42-6.65-4.45-8.66c-0.51-0.96-0.9-1.71-1.18-2.24c-0.27-0.5-0.42-0.75-0.44-0.75c-0.02,0.01,0.1,0.28,0.34,0.79
							c0.26,0.54,0.62,1.3,1.1,2.28c1,2.02,2.45,4.96,4.32,8.72c3.82,7.58,9.32,18.49,16.11,31.97
							c13.75,26.95,32.72,64.13,53.68,105.22c20.98,41.05,39.93,78.25,53.48,105.27c6.78,13.51,12.21,24.46,15.91,32.06
							c1.85,3.8,3.27,6.76,4.2,8.78c0.93,2.02,1.39,3.1,1.31,3.14c-0.08,0.04-0.68-0.97-1.75-2.92c-1.07-1.95-2.61-4.85-4.57-8.6
							c-3.92-7.49-9.5-18.37-16.33-31.85C313.14,409.75,294.47,372.4,273.93,331.13z"/>
					</g>
				</g>
			</g>
		</g>
	</g>
	<g>
		<g>
			<g>
				<g>
					<g>
						<path class="st0" d="M264.25,335.03c-13.83-44-26.35-83.82-35.43-112.69c-4.6-14.38-8.32-26.01-10.91-34.09
							c-1.31-3.99-2.33-7.1-3.03-9.25c-0.35-1.03-0.62-1.83-0.82-2.4c-0.19-0.54-0.3-0.81-0.31-0.81c-0.02,0.01,0.05,0.29,0.21,0.84
							c0.17,0.58,0.41,1.38,0.72,2.43c0.67,2.16,1.64,5.28,2.89,9.29c2.58,8.08,6.29,19.72,10.88,34.1
							c9.34,28.78,22.22,68.48,36.46,112.36c14.27,43.84,27.12,83.56,36.25,112.37c4.57,14.4,8.21,26.08,10.67,34.17
							c1.23,4.04,2.16,7.19,2.76,9.33c0.6,2.14,0.88,3.28,0.8,3.31c-0.08,0.03-0.52-1.06-1.26-3.16c-0.75-2.1-1.82-5.2-3.16-9.21
							c-2.69-8.01-6.49-19.64-11.12-34.03C290.6,418.84,278.04,379.02,264.25,335.03z"/>
					</g>
				</g>
			</g>
		</g>
	</g>
	<g>
		<g>
			<g>
				<g>
					<g>
						<path class="st0" d="M254.07,337.36c-6.74-45.63-12.84-86.92-17.26-116.86c-2.28-14.92-4.12-27-5.4-35.39
							c-0.67-4.15-1.18-7.38-1.54-9.61c-0.19-1.07-0.33-1.9-0.43-2.49c-0.1-0.56-0.16-0.85-0.18-0.84c-0.02,0,0.01,0.29,0.08,0.86
							c0.08,0.6,0.19,1.43,0.33,2.51c0.32,2.24,0.79,5.47,1.39,9.63c1.28,8.39,3.11,20.47,5.38,35.39
							c4.69,29.89,11.17,71.13,18.33,116.69c7.19,45.54,13.63,86.79,18.12,116.68c2.25,14.94,4.01,27.05,5.16,35.42
							c0.58,4.19,1,7.44,1.26,9.65c0.26,2.21,0.35,3.38,0.27,3.39c-0.08,0.01-0.34-1.13-0.75-3.32c-0.41-2.19-0.97-5.42-1.67-9.59
							c-1.39-8.34-3.32-20.42-5.62-35.35C266.9,424.27,260.77,382.97,254.07,337.36z"/>
					</g>
				</g>
			</g>
		</g>
	</g>
	<g>
		<g>
			<g>
				<g>
					<g>
						<path class="st0" d="M243.65,338.07c0.42-46.12,0.79-87.86,1.06-118.12c0.06-15.09,0.12-27.31,0.15-35.8
							c-0.01-4.2-0.02-7.47-0.03-9.73c-0.02-1.09-0.03-1.93-0.04-2.53c-0.01-0.57-0.03-0.86-0.05-0.86c-0.02,0-0.04,0.29-0.06,0.86
							c-0.01,0.6-0.03,1.44-0.06,2.53c-0.03,2.26-0.07,5.53-0.12,9.73c-0.04,8.48-0.1,20.7-0.17,35.8c0,30.26,0,72,0,118.12
							c0.03,46.1,0,87.85-0.21,118.08c-0.1,15.11-0.24,27.34-0.39,35.79c-0.08,4.23-0.16,7.51-0.25,9.73
							c-0.09,2.23-0.17,3.39-0.25,3.39c-0.08,0-0.16-1.17-0.22-3.39c-0.06-2.23-0.12-5.51-0.16-9.73
							c-0.08-8.45-0.11-20.68-0.07-35.8C242.86,425.91,243.2,384.17,243.65,338.07z"/>
					</g>
				</g>
			</g>
		</g>
	</g>
	<g>
		<g>
			<g>
				<g>
					<g>
						<path class="st0" d="M233.24,337.15c7.58-45.5,14.44-86.67,19.41-116.52c2.41-14.9,4.36-26.96,5.71-35.34
							c0.64-4.15,1.14-7.39,1.48-9.62c0.15-1.08,0.27-1.91,0.36-2.51c0.07-0.57,0.1-0.86,0.09-0.86c-0.02,0-0.08,0.28-0.19,0.84
							c-0.11,0.59-0.26,1.42-0.45,2.49c-0.38,2.23-0.93,5.45-1.63,9.6c-1.36,8.38-3.32,20.44-5.73,35.33
							c-4.7,29.89-11.18,71.12-18.35,116.69c-7.12,45.55-13.64,86.79-18.54,116.61c-2.45,14.91-4.48,26.97-5.95,35.3
							c-0.74,4.16-1.33,7.39-1.76,9.58c-0.43,2.18-0.7,3.32-0.78,3.31c-0.08-0.01,0.02-1.18,0.3-3.39c0.28-2.21,0.74-5.46,1.35-9.64
							c1.23-8.36,3.11-20.45,5.49-35.37C218.8,423.81,225.63,382.62,233.24,337.15z"/>
					</g>
				</g>
			</g>
		</g>
	</g>
	<g>
		<g>
			<g>
				<g>
					<g>
						<path class="st0" d="M223.11,334.62c14.65-43.74,27.91-83.32,37.53-112c4.72-14.33,8.55-25.94,11.2-34
							c1.29-4,2.28-7.12,2.98-9.27c0.32-1.04,0.57-1.84,0.75-2.42c0.16-0.55,0.24-0.83,0.22-0.84c-0.02-0.01-0.13,0.27-0.32,0.8
							c-0.2,0.57-0.48,1.36-0.84,2.39c-0.72,2.14-1.77,5.24-3.12,9.22c-2.66,8.06-6.49,19.66-11.23,33.99
							c-9.35,28.78-22.24,68.48-36.49,112.35c-14.21,43.86-27.13,83.56-36.67,112.24c-4.76,14.34-8.67,25.93-11.44,33.92
							c-1.38,3.99-2.48,7.09-3.25,9.18c-0.77,2.09-1.22,3.17-1.3,3.15c-0.08-0.03,0.21-1.16,0.83-3.3c0.62-2.14,1.59-5.28,2.85-9.31
							c2.53-8.07,6.28-19.71,10.99-34.07C195.19,417.92,208.43,378.32,223.11,334.62z"/>
					</g>
				</g>
			</g>
		</g>
	</g>
	<g>
		<g>
			<g>
				<g>
					<g>
						<path class="st0" d="M213.5,330.53c21.35-40.89,40.67-77.89,54.68-104.71c6.92-13.41,12.52-24.27,16.41-31.81
							c1.9-3.75,3.38-6.67,4.4-8.68c0.48-0.98,0.85-1.73,1.12-2.27c0.25-0.51,0.36-0.78,0.35-0.79c-0.02-0.01-0.17,0.24-0.44,0.74
							c-0.29,0.53-0.69,1.27-1.2,2.23c-1.05,2-2.58,4.89-4.53,8.61c-3.9,7.54-9.51,18.39-16.44,31.8
							c-13.76,26.95-32.74,64.12-53.72,105.2c-20.94,41.08-39.95,78.24-53.88,105.07c-6.96,13.41-12.65,24.24-16.63,31.7
							c-1.99,3.73-3.56,6.61-4.65,8.55c-1.09,1.94-1.7,2.94-1.77,2.9c-0.07-0.04,0.39-1.11,1.34-3.13c0.95-2.01,2.4-4.96,4.28-8.74
							c3.77-7.57,9.31-18.47,16.22-31.91C172.84,408.4,192.13,371.38,213.5,330.53z"/>
					</g>
				</g>
			</g>
		</g>
	</g>
	<g>
		<g>
			<g>
				<g>
					<g>
						<path class="st0" d="M204.66,324.98c27.48-37.05,52.35-70.57,70.37-94.87c8.93-12.17,16.16-22.02,21.18-28.85
							c2.46-3.41,4.38-6.06,5.7-7.89c0.63-0.89,1.11-1.58,1.46-2.07c0.32-0.47,0.48-0.72,0.47-0.73c-0.01-0.01-0.2,0.21-0.55,0.66
							c-0.37,0.48-0.88,1.14-1.54,2.01c-1.35,1.81-3.31,4.43-5.82,7.8c-5.03,6.84-12.26,16.68-21.2,28.84
							c-17.8,24.46-42.36,58.22-69.5,95.51c-27.1,37.3-51.69,71.04-69.64,95.35c-8.97,12.16-16.28,21.97-21.38,28.71
							c-2.55,3.37-4.55,5.97-5.93,7.72c-1.38,1.75-2.14,2.64-2.2,2.59c-0.07-0.05,0.56-1.04,1.81-2.88c1.26-1.84,3.14-4.52,5.6-7.97
							c4.91-6.88,12.08-16.79,21.01-28.98C152.32,395.54,177.17,361.98,204.66,324.98z"/>
					</g>
				</g>
			</g>
		</g>
	</g>
	<g>
		<g>
			<g>
				<g>
					<g>
						<path class="st0" d="M196.79,318.12c32.91-32.32,62.69-61.57,84.27-82.78c10.72-10.63,19.39-19.23,25.41-25.21
							c2.96-2.98,5.27-5.3,6.86-6.9c0.76-0.78,1.34-1.38,1.76-1.82c0.39-0.41,0.59-0.63,0.58-0.64c-0.01-0.01-0.23,0.18-0.65,0.57
							c-0.44,0.42-1.04,0.99-1.83,1.75c-1.62,1.58-3.96,3.86-6.96,6.8c-6.03,5.97-14.71,14.57-25.43,25.19
							c-21.39,21.4-50.9,50.92-83.52,83.54c-32.57,32.63-62.11,62.13-83.62,83.36c-10.75,10.62-19.5,19.17-25.59,25.03
							c-3.04,2.93-5.42,5.19-7.06,6.71c-1.63,1.51-2.52,2.28-2.58,2.22c-0.06-0.06,0.71-0.94,2.24-2.56c1.53-1.62,3.81-3.98,6.77-7
							c5.92-6.04,14.55-14.7,25.26-25.36C134.12,379.68,163.88,350.4,196.79,318.12z"/>
					</g>
				</g>
			</g>
		</g>
	</g>
	<g>
		<g>
			<g>
				<g>
					<g>
						<path class="st0" d="M190.09,310.12c37.53-26.81,71.5-51.07,96.12-68.66c12.24-8.83,22.15-15.98,29.03-20.95
							c3.39-2.49,6.03-4.42,7.85-5.75c0.87-0.65,1.54-1.16,2.02-1.52c0.45-0.35,0.68-0.53,0.67-0.55c-0.01-0.01-0.26,0.14-0.73,0.46
							c-0.49,0.34-1.18,0.82-2.08,1.44c-1.84,1.31-4.51,3.2-7.94,5.63c-6.88,4.96-16.8,12.1-29.04,20.93
							c-24.46,17.81-58.2,42.38-95.49,69.53c-37.25,27.17-71.02,51.71-95.57,69.34c-12.28,8.81-22.24,15.9-29.17,20.75
							c-3.46,2.42-6.17,4.29-8.01,5.53c-1.85,1.24-2.84,1.86-2.89,1.79c-0.05-0.07,0.85-0.82,2.61-2.18
							c1.76-1.36,4.38-3.34,7.77-5.86c6.78-5.04,16.66-12.26,28.9-21.13C118.6,361.18,152.55,336.89,190.09,310.12z"/>
					</g>
				</g>
			</g>
		</g>
	</g>
	<g>
		<g>
			<g>
				<g>
					<g>
						<path class="st0" d="M184.71,301.17c41.26-20.61,78.61-39.26,105.67-52.78c13.47-6.81,24.37-12.33,31.94-16.15
							c3.74-1.92,6.64-3.42,8.65-4.46c0.96-0.51,1.71-0.9,2.24-1.19c0.5-0.27,0.75-0.42,0.75-0.44c-0.01-0.02-0.28,0.1-0.79,0.34
							c-0.54,0.26-1.3,0.62-2.28,1.1c-2.02,1-4.95,2.45-8.72,4.32c-7.57,3.82-18.48,9.33-31.96,16.13
							c-26.94,13.77-64.11,32.76-105.19,53.75c-41.04,21.01-78.23,39.98-105.24,53.55c-13.5,6.79-24.46,12.23-32.05,15.93
							c-3.8,1.85-6.76,3.27-8.78,4.2c-2.02,0.94-3.1,1.39-3.14,1.31c-0.04-0.08,0.97-0.68,2.92-1.75c1.95-1.07,4.85-2.61,8.59-4.57
							c7.49-3.92,18.37-9.51,31.84-16.35C106.12,340.43,143.45,321.74,184.71,301.17z"/>
					</g>
				</g>
			</g>
		</g>
	</g>
	<g>
		<g>
			<g>
				<g>
					<g>
						<path class="st0" d="M180.8,291.49c43.99-13.86,83.81-26.41,112.66-35.5c14.37-4.61,26.01-8.34,34.09-10.93
							c3.99-1.31,7.1-2.34,9.25-3.04c1.03-0.35,1.83-0.62,2.4-0.82c0.54-0.19,0.81-0.3,0.8-0.31c-0.01-0.02-0.29,0.05-0.84,0.21
							c-0.58,0.17-1.38,0.41-2.43,0.72c-2.16,0.67-5.28,1.64-9.29,2.89c-8.08,2.58-19.72,6.3-34.1,10.9
							c-28.77,9.36-68.47,22.27-112.33,36.53c-43.83,14.29-83.54,27.17-112.35,36.32c-14.4,4.58-26.07,8.23-34.16,10.69
							c-4.04,1.23-7.19,2.16-9.33,2.77c-2.14,0.61-3.28,0.88-3.31,0.8c-0.03-0.08,1.06-0.52,3.16-1.27c2.1-0.75,5.2-1.82,9.21-3.17
							c8.01-2.69,19.64-6.5,34.02-11.14C97.01,317.89,136.82,305.32,180.8,291.49z"/>
					</g>
				</g>
			</g>
		</g>
	</g>
	<g>
		<g>
			<g>
				<g>
					<g>
						<path class="st0" d="M178.47,281.32c45.63-6.77,86.92-12.89,116.85-17.33c14.92-2.29,27-4.14,35.38-5.43
							c4.15-0.67,7.38-1.19,9.61-1.55c1.07-0.19,1.9-0.33,2.49-0.43c0.56-0.1,0.85-0.17,0.84-0.18c0-0.02-0.29,0.01-0.86,0.08
							c-0.6,0.08-1.43,0.19-2.51,0.33c-2.23,0.32-5.47,0.79-9.63,1.4c-8.39,1.28-20.47,3.12-35.39,5.4
							c-29.89,4.71-71.12,11.22-116.68,18.4c-45.53,7.22-86.78,13.69-116.67,18.19c-14.94,2.26-27.04,4.02-35.42,5.18
							c-4.19,0.58-7.44,1.01-9.65,1.27c-2.21,0.26-3.38,0.36-3.39,0.27c-0.01-0.08,1.13-0.34,3.32-0.75
							c2.19-0.41,5.42-0.98,9.59-1.68c8.34-1.4,20.41-3.33,35.35-5.65C91.57,294.21,132.86,288.05,178.47,281.32z"/>
					</g>
				</g>
			</g>
		</g>
	</g>
	<g>
		<g>
			<g>
				<g>
					<g>
						<path class="st0" d="M177.75,270.9c46.12,0.39,87.86,0.74,118.12,0.99c15.09,0.05,27.31,0.1,35.8,0.13
							c4.2-0.02,7.47-0.03,9.73-0.03c1.09-0.02,1.93-0.03,2.53-0.04c0.57-0.01,0.86-0.03,0.86-0.05c0-0.02-0.29-0.04-0.86-0.05
							c-0.6-0.01-1.44-0.03-2.53-0.06c-2.26-0.03-5.53-0.06-9.73-0.11c-8.48-0.04-20.7-0.09-35.8-0.15
							c-30.26,0.02-72,0.04-118.12,0.07c-46.1,0.06-87.85,0.05-118.08-0.13c-15.11-0.09-27.34-0.22-35.79-0.37
							c-4.23-0.08-7.51-0.16-9.73-0.24c-2.23-0.08-3.39-0.17-3.39-0.25c0-0.08,1.17-0.16,3.39-0.23c2.23-0.07,5.51-0.12,9.73-0.17
							c8.45-0.09,20.68-0.12,35.8-0.09C89.9,270.16,131.65,270.48,177.75,270.9z"/>
					</g>
				</g>
			</g>
		</g>
	</g>
	<g>
		<g>
			<g>
				<g>
					<g>
						<path class="st0" d="M178.66,260.49c45.5,7.55,86.68,14.39,116.53,19.34c14.9,2.4,26.96,4.34,35.34,5.69
							c4.15,0.64,7.39,1.13,9.62,1.47c1.08,0.15,1.91,0.27,2.51,0.35c0.57,0.07,0.86,0.1,0.86,0.08c0-0.02-0.28-0.08-0.84-0.19
							c-0.59-0.11-1.42-0.26-2.49-0.45c-2.23-0.38-5.45-0.92-9.6-1.62c-8.38-1.35-20.44-3.3-35.34-5.71
							c-29.89-4.68-71.13-11.14-116.7-18.27c-45.55-7.1-86.79-13.59-116.62-18.47c-14.91-2.44-26.98-4.46-35.3-5.93
							c-4.16-0.73-7.39-1.32-9.58-1.75c-2.18-0.43-3.33-0.7-3.31-0.78c0.01-0.08,1.18,0.02,3.39,0.3c2.21,0.28,5.46,0.73,9.64,1.35
							c8.36,1.23,20.45,3.09,35.38,5.47C91.99,246.1,133.18,252.91,178.66,260.49z"/>
					</g>
				</g>
			</g>
		</g>
	</g>
	<g>
		<g>
			<g>
				<g>
					<g>
						<path class="st0" d="M181.19,250.35c43.75,14.63,83.33,27.86,112.03,37.45c14.34,4.71,25.95,8.53,34.01,11.18
							c4,1.28,7.12,2.28,9.27,2.97c1.04,0.32,1.84,0.57,2.42,0.74c0.55,0.16,0.83,0.24,0.84,0.22c0.01-0.02-0.27-0.13-0.8-0.32
							c-0.57-0.2-1.36-0.48-2.39-0.84c-2.14-0.72-5.24-1.77-9.22-3.12c-8.06-2.66-19.66-6.48-34-11.21
							c-28.78-9.33-68.49-22.2-112.37-36.42c-43.87-14.18-83.57-27.08-112.26-36.6c-14.34-4.76-25.94-8.66-33.93-11.42
							c-4-1.38-7.09-2.47-9.18-3.24c-2.09-0.77-3.17-1.21-3.15-1.29c0.03-0.08,1.16,0.21,3.3,0.83c2.14,0.62,5.28,1.58,9.31,2.85
							c8.07,2.53,19.71,6.27,34.07,10.97C97.87,222.49,137.47,235.7,181.19,250.35z"/>
					</g>
				</g>
			</g>
		</g>
	</g>
	<g>
		<g>
			<g>
				<g>
					<g>
						<path class="st0" d="M185.27,240.75c40.9,21.32,77.91,40.62,104.74,54.61c13.42,6.91,24.28,12.51,31.82,16.39
							c3.75,1.9,6.67,3.37,8.68,4.39c0.98,0.48,1.73,0.85,2.27,1.12c0.51,0.25,0.78,0.36,0.79,0.35c0.01-0.02-0.24-0.17-0.74-0.44
							c-0.53-0.29-1.27-0.68-2.23-1.2c-2-1.05-4.89-2.57-8.62-4.53c-7.54-3.89-18.4-9.49-31.81-16.42
							c-26.95-13.74-64.14-32.7-105.24-53.65c-41.09-20.91-78.27-39.9-105.1-53.81c-13.42-6.95-24.25-12.63-31.71-16.61
							c-3.73-1.99-6.61-3.56-8.56-4.64c-1.94-1.09-2.94-1.7-2.91-1.77c0.04-0.07,1.11,0.39,3.13,1.34c2.01,0.95,4.96,2.39,8.75,4.28
							c7.57,3.77,18.48,9.3,31.92,16.2C107.37,200.13,144.41,219.4,185.27,240.75z"/>
					</g>
				</g>
			</g>
		</g>
	</g>
	<g>
		<g>
			<g>
				<g>
					<g>
						<path class="st0" d="M190.82,231.9c37.06,27.46,70.61,52.3,94.92,70.31c12.17,8.92,22.03,16.15,28.87,21.17
							c3.41,2.46,6.06,4.37,7.89,5.7c0.89,0.63,1.58,1.11,2.07,1.46c0.47,0.32,0.72,0.48,0.73,0.47c0.01-0.01-0.21-0.2-0.66-0.55
							c-0.48-0.37-1.15-0.87-2.01-1.54c-1.81-1.35-4.43-3.31-7.8-5.82c-6.84-5.02-16.69-12.25-28.85-21.19
							c-24.48-17.79-58.24-42.33-95.55-69.44c-37.32-27.07-71.07-51.65-95.4-69.58c-12.17-8.96-21.98-16.27-28.72-21.36
							c-3.37-2.55-5.98-4.55-7.73-5.92c-1.75-1.38-2.64-2.14-2.59-2.2c0.05-0.07,1.04,0.56,2.88,1.81c1.84,1.26,4.53,3.14,7.97,5.59
							c6.89,4.9,16.8,12.07,29,20.99C120.22,179.61,153.79,204.43,190.82,231.9z"/>
					</g>
				</g>
			</g>
		</g>
	</g>
	<g>
		<g>
			<g>
				<g>
					<g>
						<path class="st0" d="M197.67,224.03c32.34,32.89,61.61,62.65,82.83,84.22c10.64,10.71,19.25,19.38,25.22,25.4
							c2.98,2.96,5.31,5.26,6.91,6.86c0.78,0.76,1.39,1.34,1.82,1.76c0.41,0.39,0.63,0.59,0.65,0.57c0.01-0.01-0.18-0.23-0.57-0.65
							c-0.42-0.44-1-1.04-1.75-1.83c-1.58-1.62-3.86-3.95-6.8-6.96c-5.98-6.02-14.58-14.7-25.21-25.42
							c-21.41-21.38-50.95-50.87-83.59-83.46c-32.65-32.55-62.17-62.07-83.41-83.57c-10.62-10.75-19.18-19.49-25.05-25.57
							c-2.93-3.04-5.2-5.42-6.71-7.05c-1.51-1.63-2.28-2.52-2.22-2.58c0.06-0.06,0.94,0.71,2.56,2.24c1.62,1.53,3.98,3.81,7,6.76
							c6.04,5.91,14.71,14.54,25.38,25.24C136.07,161.39,165.37,191.13,197.67,224.03z"/>
					</g>
				</g>
			</g>
		</g>
	</g>
	<g>
		<g>
			<g>
				<g>
					<g>
						<path class="st0" d="M205.67,217.32c26.83,37.52,51.12,71.47,68.72,96.08c8.84,12.23,16,22.14,20.97,29.01
							c2.49,3.39,4.42,6.03,5.76,7.85c0.66,0.87,1.16,1.54,1.52,2.02c0.35,0.45,0.53,0.68,0.55,0.67c0.01-0.01-0.14-0.26-0.46-0.73
							c-0.34-0.49-0.82-1.18-1.44-2.08c-1.31-1.84-3.2-4.51-5.64-7.93c-4.97-6.88-12.11-16.79-20.95-29.03
							c-17.83-24.45-42.42-58.18-69.59-95.45c-27.19-37.23-51.76-70.99-69.4-95.53c-8.82-12.27-15.92-22.23-20.77-29.16
							c-2.43-3.46-4.29-6.16-5.53-8.01c-1.24-1.85-1.86-2.84-1.79-2.89c0.07-0.05,0.82,0.85,2.18,2.61
							c1.36,1.76,3.34,4.38,5.87,7.77c5.05,6.78,12.27,16.65,21.15,28.88C154.56,145.86,178.87,179.8,205.67,217.32z"/>
					</g>
				</g>
			</g>
		</g>
	</g>
	<g>
		<g>
			<g>
				<g>
					<g>
						<path class="st0" d="M214.61,211.93c20.64,41.25,39.31,78.58,52.85,105.64c6.82,13.46,12.34,24.36,16.17,31.93
							c1.93,3.74,3.43,6.64,4.46,8.65c0.51,0.96,0.9,1.7,1.19,2.24c0.27,0.5,0.42,0.75,0.44,0.75c0.02-0.01-0.1-0.28-0.34-0.79
							c-0.26-0.54-0.63-1.3-1.1-2.28c-1-2.02-2.46-4.95-4.33-8.72c-3.83-7.57-9.34-18.48-16.15-31.95
							c-13.78-26.93-32.8-64.09-53.82-105.15c-21.04-41.02-40.03-78.2-53.61-105.2c-6.8-13.5-12.24-24.45-15.95-32.04
							c-1.85-3.8-3.27-6.76-4.21-8.78c-0.94-2.02-1.39-3.1-1.32-3.14c0.08-0.04,0.68,0.97,1.75,2.92c1.07,1.95,2.62,4.85,4.58,8.59
							c3.92,7.49,9.52,18.36,16.37,31.83C175.3,133.36,194.01,170.69,214.61,211.93z"/>
					</g>
				</g>
			</g>
		</g>
	</g>
	<g>
		<g>
			<g>
				<g>
					<g>
						<path class="st0" d="M224.28,208.02c13.89,43.99,26.46,83.79,35.57,112.64c4.62,14.37,8.35,26,10.95,34.08
							c1.32,3.99,2.34,7.1,3.05,9.24c0.35,1.03,0.63,1.83,0.82,2.39c0.19,0.54,0.3,0.81,0.31,0.8c0.02-0.01-0.05-0.29-0.21-0.84
							c-0.17-0.58-0.41-1.38-0.73-2.43c-0.67-2.16-1.65-5.28-2.9-9.29c-2.59-8.08-6.32-19.72-10.92-34.09
							c-9.38-28.77-22.31-68.45-36.6-112.31c-14.32-43.82-27.23-83.53-36.4-112.33c-4.59-14.4-8.25-26.07-10.71-34.16
							c-1.23-4.04-2.17-7.19-2.78-9.33c-0.61-2.14-0.89-3.28-0.8-3.31c0.08-0.03,0.52,1.06,1.27,3.16c0.75,2.1,1.82,5.2,3.17,9.2
							c2.7,8.01,6.51,19.63,11.16,34.01C197.83,124.25,210.44,164.05,224.28,208.02z"/>
					</g>
				</g>
			</g>
		</g>
	</g>
	<g>
		<g>
			<g>
				<g>
					<g>
						<path class="st0" d="M234.46,205.68c6.8,45.62,12.95,86.91,17.41,116.83c2.3,14.92,4.16,26.99,5.45,35.38
							c0.67,4.15,1.19,7.38,1.55,9.61c0.19,1.07,0.33,1.9,0.43,2.49c0.1,0.56,0.17,0.85,0.18,0.84c0.02,0-0.01-0.29-0.08-0.86
							c-0.08-0.6-0.19-1.43-0.34-2.51c-0.33-2.23-0.8-5.47-1.4-9.63c-1.29-8.39-3.14-20.46-5.42-35.38
							c-4.73-29.88-11.26-71.11-18.47-116.67c-7.25-45.53-13.74-86.77-18.27-116.65c-2.26-14.94-4.04-27.04-5.2-35.42
							c-0.58-4.19-1.01-7.44-1.27-9.65c-0.26-2.21-0.36-3.38-0.28-3.39c0.08-0.01,0.34,1.13,0.76,3.32s0.98,5.42,1.68,9.59
							c1.4,8.34,3.34,20.41,5.67,35.34C221.52,118.79,227.7,160.07,234.46,205.68z"/>
					</g>
				</g>
			</g>
		</g>
	</g>
	<g>
		<g>
			<g>
				<g>
					<g>
						<path class="st0" d="M244.88,204.96c-0.36,46.12-0.68,87.86-0.92,118.12c-0.04,15.09-0.08,27.31-0.11,35.8
							c0.02,4.2,0.03,7.47,0.04,9.73c0.02,1.09,0.03,1.93,0.04,2.53c0.01,0.57,0.03,0.86,0.05,0.86c0.02,0,0.04-0.29,0.05-0.86
							c0.01-0.6,0.03-1.44,0.06-2.53c0.02-2.26,0.06-5.53,0.1-9.73c0.03-8.48,0.07-20.7,0.13-35.8c-0.04-30.26-0.09-72-0.15-118.12
							c-0.09-46.1-0.11-87.85,0.06-118.08c0.08-15.11,0.2-27.34,0.35-35.79c0.07-4.23,0.15-7.51,0.24-9.73
							c0.08-2.23,0.17-3.39,0.25-3.39c0.08,0,0.16,1.17,0.23,3.39c0.07,2.23,0.13,5.51,0.17,9.73c0.09,8.45,0.13,20.68,0.12,35.8
							C245.56,117.11,245.27,158.86,244.88,204.96z"/>
					</g>
				</g>
			</g>
		</g>
	</g>
	<g>
		<g>
			<g>
				<g>
					<g>
						<path class="st0" d="M255.29,205.86c-7.52,45.51-14.33,86.69-19.26,116.54c-2.39,14.9-4.32,26.97-5.66,35.35
							c-0.63,4.16-1.13,7.39-1.47,9.62c-0.15,1.08-0.27,1.91-0.35,2.51c-0.07,0.57-0.1,0.86-0.08,0.86c0.02,0,0.08-0.28,0.19-0.84
							c0.11-0.59,0.26-1.42,0.45-2.49c0.38-2.23,0.92-5.45,1.62-9.6c1.35-8.38,3.29-20.44,5.69-35.34
							c4.66-29.9,11.09-71.14,18.2-116.71c7.07-45.56,13.53-86.8,18.39-116.63c2.43-14.92,4.45-26.98,5.91-35.3
							c0.73-4.16,1.32-7.39,1.75-9.58c0.43-2.19,0.69-3.33,0.78-3.31c0.08,0.01-0.02,1.18-0.3,3.39c-0.28,2.21-0.73,5.46-1.34,9.64
							c-1.22,8.36-3.08,20.45-5.44,35.38C269.62,119.18,262.84,160.38,255.29,205.86z"/>
					</g>
				</g>
			</g>
		</g>
	</g>
	<g>
		<g>
			<g>
				<g>
					<g>
						<path class="st0" d="M265.43,208.38c-14.6,43.76-27.81,83.35-37.38,112.05c-4.7,14.34-8.51,25.95-11.16,34.01
							c-1.28,4-2.28,7.12-2.96,9.27c-0.32,1.04-0.57,1.84-0.74,2.42c-0.16,0.55-0.23,0.83-0.22,0.84c0.02,0.01,0.13-0.27,0.32-0.8
							c0.2-0.57,0.48-1.36,0.84-2.39c0.72-2.14,1.77-5.24,3.11-9.22c2.65-8.06,6.47-19.67,11.18-34
							c9.31-28.79,22.15-68.51,36.34-112.39c14.15-43.88,27.03-83.59,36.52-112.28c4.75-14.35,8.64-25.94,11.4-33.93
							c1.38-4,2.47-7.09,3.24-9.18c0.77-2.09,1.21-3.17,1.29-3.15c0.08,0.03-0.2,1.16-0.83,3.3c-0.62,2.14-1.58,5.28-2.84,9.31
							c-2.52,8.07-6.26,19.71-10.95,34.08C293.23,125.04,280.05,164.66,265.43,208.38z"/>
					</g>
				</g>
			</g>
		</g>
	</g>
	<g>
		<g>
			<g>
				<g>
					<g>
						<path class="st0" d="M275.03,212.46c-21.3,40.91-40.57,77.94-54.54,104.78c-6.9,13.42-12.49,24.29-16.37,31.83
							c-1.89,3.75-3.37,6.67-4.39,8.69c-0.48,0.98-0.85,1.73-1.11,2.27c-0.25,0.51-0.36,0.78-0.35,0.79
							c0.02,0.01,0.17-0.24,0.44-0.74c0.29-0.53,0.68-1.27,1.2-2.23c1.05-2,2.57-4.9,4.52-8.62c3.89-7.54,9.48-18.4,16.4-31.82
							c13.73-26.96,32.66-64.16,53.59-105.27c20.88-41.1,39.85-78.29,53.74-105.13c6.94-13.42,12.61-24.26,16.59-31.72
							c1.99-3.73,3.55-6.62,4.64-8.56c1.09-1.94,1.69-2.95,1.77-2.91c0.07,0.04-0.39,1.12-1.34,3.13c-0.95,2.01-2.39,4.96-4.27,8.75
							c-3.76,7.57-9.29,18.48-16.18,31.93C315.6,134.53,296.35,171.58,275.03,212.46z"/>
					</g>
				</g>
			</g>
		</g>
	</g>
	<g>
		<g>
			<g>
				<g>
					<g>
						<path class="st0" d="M283.89,218c-27.43,37.08-52.26,70.64-70.25,94.96c-8.92,12.18-16.13,22.04-21.15,28.88
							c-2.46,3.41-4.37,6.06-5.69,7.89c-0.63,0.89-1.11,1.58-1.46,2.07c-0.32,0.47-0.48,0.72-0.47,0.73
							c0.01,0.01,0.2-0.21,0.55-0.66c0.37-0.48,0.87-1.15,1.54-2.01c1.35-1.81,3.3-4.43,5.81-7.81c5.02-6.84,12.24-16.7,21.17-28.87
							c17.77-24.49,42.29-58.27,69.38-95.6c27.05-37.33,51.6-71.1,69.52-95.44c8.96-12.17,16.25-21.99,21.35-28.74
							c2.55-3.37,4.54-5.98,5.92-7.73c1.38-1.75,2.13-2.64,2.2-2.59c0.07,0.05-0.56,1.04-1.81,2.88c-1.25,1.84-3.14,4.53-5.59,7.97
							c-4.9,6.89-12.06,16.8-20.97,29.01C336.13,147.37,311.33,180.95,283.89,218z"/>
					</g>
				</g>
			</g>
		</g>
	</g>
	<g>
		<g>
			<g>
				<g>
					<g>
						<path class="st0" d="M291.76,224.85c-32.87,32.36-62.61,61.65-84.16,82.88c-10.7,10.64-19.37,19.26-25.38,25.24
							c-2.96,2.99-5.26,5.31-6.85,6.91c-0.76,0.78-1.34,1.39-1.76,1.82c-0.39,0.41-0.59,0.63-0.57,0.65
							c0.01,0.01,0.23-0.18,0.65-0.57c0.43-0.42,1.04-1,1.83-1.75c1.61-1.58,3.95-3.87,6.96-6.81c6.02-5.98,14.69-14.59,25.4-25.22
							c21.36-21.42,50.84-50.98,83.41-83.64c32.53-32.67,62.03-62.21,83.52-83.46c10.74-10.63,19.47-19.19,25.55-25.07
							c3.04-2.94,5.42-5.2,7.05-6.72c1.63-1.51,2.52-2.28,2.58-2.22c0.06,0.06-0.71,0.94-2.24,2.56c-1.52,1.62-3.8,3.98-6.76,7.01
							c-5.91,6.04-14.53,14.72-25.23,25.4C354.36,163.21,324.64,192.52,291.76,224.85z"/>
					</g>
				</g>
			</g>
		</g>
	</g>
	<g>
		<g>
			<g>
				<g>
					<g>
						<path class="st0" d="M298.48,232.84c-37.5,26.86-71.43,51.16-96.03,68.78c-12.23,8.85-22.13,16.01-29,20.99
							c-3.39,2.49-6.02,4.43-7.84,5.76c-0.87,0.66-1.54,1.16-2.02,1.52c-0.45,0.35-0.68,0.53-0.67,0.55
							c0.01,0.01,0.26-0.14,0.73-0.46c0.49-0.34,1.18-0.82,2.08-1.44c1.84-1.31,4.51-3.21,7.93-5.64
							c6.88-4.97,16.78-12.13,29.01-20.97c24.44-17.84,58.15-42.45,95.4-69.65c37.21-27.21,70.95-51.8,95.48-69.46
							c12.26-8.83,22.22-15.93,29.14-20.79c3.46-2.43,6.16-4.29,8.01-5.54c1.85-1.24,2.84-1.86,2.89-1.79
							c0.05,0.07-0.85,0.82-2.61,2.18s-4.38,3.35-7.77,5.87c-6.78,5.05-16.64,12.28-28.87,21.16
							C369.9,181.68,335.98,206.02,298.48,232.84z"/>
					</g>
				</g>
			</g>
		</g>
	</g>
	<g>
		<g>
			<g>
				<g>
					<g>
						<path class="st0" d="M303.87,241.77c-41.24,20.66-78.56,39.37-105.61,52.92c-13.46,6.83-24.36,12.36-31.92,16.2
							c-3.73,1.93-6.64,3.43-8.65,4.47c-0.96,0.51-1.7,0.91-2.24,1.19c-0.5,0.27-0.75,0.42-0.74,0.44c0.01,0.02,0.28-0.1,0.79-0.34
							c0.54-0.26,1.3-0.63,2.28-1.1c2.02-1.01,4.95-2.46,8.72-4.33c7.57-3.83,18.47-9.35,31.94-16.17
							c26.93-13.8,64.07-32.84,105.12-53.88c41.01-21.06,78.18-40.08,105.17-53.68c13.49-6.8,24.44-12.26,32.03-15.97
							c3.8-1.86,6.76-3.28,8.78-4.22c2.02-0.94,3.1-1.39,3.14-1.32c0.04,0.08-0.97,0.68-2.92,1.75c-1.95,1.07-4.85,2.62-8.59,4.58
							c-7.48,3.93-18.36,9.53-31.82,16.39C382.41,202.42,345.1,221.15,303.87,241.77z"/>
					</g>
				</g>
			</g>
		</g>
	</g>
	<g>
		<g>
			<g>
				<g>
					<g>
						<path class="st0" d="M307.79,251.45c-43.98,13.92-83.77,26.51-112.62,35.64c-14.37,4.63-26,8.37-34.07,10.97
							c-3.99,1.32-7.1,2.34-9.24,3.05c-1.03,0.35-1.82,0.63-2.39,0.82c-0.54,0.19-0.81,0.3-0.8,0.32c0.01,0.02,0.29-0.05,0.84-0.21
							c0.58-0.17,1.38-0.41,2.42-0.73c2.16-0.67,5.28-1.65,9.29-2.91c8.08-2.59,19.71-6.33,34.08-10.95
							c28.76-9.39,68.44-22.36,112.29-36.68c43.81-14.35,83.51-27.28,112.3-36.47c14.4-4.6,26.06-8.26,34.15-10.73
							c4.04-1.24,7.19-2.17,9.33-2.78c2.14-0.61,3.28-0.89,3.31-0.81c0.03,0.08-1.06,0.52-3.16,1.27c-2.1,0.75-5.2,1.83-9.2,3.18
							c-8.01,2.7-19.63,6.53-34,11.18C391.54,224.94,351.75,237.57,307.79,251.45z"/>
					</g>
				</g>
			</g>
		</g>
	</g>
	<g>
		<g>
			<g>
				<g>
					<g>
						<path class="st0" d="M310.13,261.62c-45.62,6.83-86.9,13-116.82,17.48c-14.92,2.31-26.99,4.18-35.38,5.47
							c-4.15,0.67-7.38,1.2-9.61,1.56c-1.07,0.19-1.9,0.33-2.49,0.43c-0.56,0.1-0.85,0.17-0.84,0.18c0,0.02,0.29-0.01,0.86-0.08
							c0.6-0.08,1.43-0.19,2.51-0.34c2.23-0.33,5.47-0.8,9.63-1.41c8.39-1.29,20.46-3.15,35.38-5.45
							c29.88-4.75,71.1-11.31,116.66-18.55c45.53-7.28,86.76-13.8,116.64-18.34c14.94-2.27,27.04-4.06,35.41-5.23
							c4.19-0.58,7.44-1.02,9.65-1.28c2.21-0.26,3.38-0.36,3.39-0.28c0.01,0.08-1.13,0.34-3.32,0.76c-2.19,0.41-5.42,0.98-9.59,1.69
							c-8.34,1.41-20.41,3.36-35.34,5.69C397.02,248.62,355.73,254.84,310.13,261.62z"/>
					</g>
				</g>
			</g>
		</g>
	</g>
	<g>
		<g>
			<g>
				<g>
					<g>
						<path class="st1" d="M357.45,94.36l1.05,1.74c1.18,1.96,2.89,3.54,4.94,4.55l1.82,0.9l-1.74,1.05
							c-1.96,1.18-3.54,2.89-4.55,4.94l-0.9,1.82l-1.05-1.74c-1.18-1.96-2.89-3.54-4.94-4.55l-1.82-0.9l1.74-1.05
							c1.96-1.18,3.54-2.89,4.55-4.94L357.45,94.36z"/>
					</g>
				</g>
			</g>
		</g>
	</g>
	<g>
		<g>
			<g>
				<g>
					<g>
						<path class="st1" d="M355.28,298.89l0.64,1.07c0.72,1.2,1.77,2.16,3.02,2.78l1.12,0.55l-1.07,0.64
							c-1.2,0.72-2.16,1.77-2.78,3.02l-0.55,1.12l-0.64-1.07c-0.72-1.2-1.77-2.16-3.02-2.78l-1.12-0.55l1.07-0.64
							c1.2-0.72,2.16-1.77,2.78-3.02L355.28,298.89z"/>
					</g>
				</g>
			</g>
		</g>
	</g>
	<g>
		<g>
			<g>
				<g>
					<g>
						<path class="st1" d="M459.42,411.62l0.64,1.07c0.72,1.2,1.77,2.16,3.02,2.78l1.12,0.55l-1.07,0.64
							c-1.2,0.72-2.16,1.77-2.78,3.02l-0.55,1.12l-0.64-1.07c-0.72-1.2-1.77-2.16-3.02-2.78l-1.12-0.55l1.07-0.64
							c1.2-0.72,2.16-1.77,2.78-3.02L459.42,411.62z"/>
					</g>
				</g>
			</g>
		</g>
	</g>
	<g>
		<g>
			<g>
				<g>
					<g>
						<path class="st1" d="M56.05,357.04l0.64,1.07c0.72,1.2,1.77,2.16,3.02,2.78l1.12,0.55l-1.07,0.64
							c-1.2,0.72-2.16,1.77-2.78,3.02l-0.55,1.12l-0.64-1.07c-0.72-1.2-1.77-2.16-3.02-2.78l-1.12-0.55l1.07-0.64
							c1.2-0.72,2.16-1.77,2.78-3.02L56.05,357.04z"/>
					</g>
				</g>
			</g>
		</g>
	</g>
	<g>
		<g>
			<g>
				<g>
					<g>
						<path class="st1" d="M181.64,58.91l0.64,1.07c0.72,1.2,1.77,2.16,3.02,2.78l1.12,0.55l-1.07,0.64
							c-1.2,0.72-2.16,1.77-2.78,3.02l-0.55,1.12l-0.64-1.07c-0.72-1.2-1.77-2.16-3.02-2.78l-1.12-0.55l1.07-0.64
							c1.2-0.72,2.16-1.77,2.78-3.02L181.64,58.91z"/>
					</g>
				</g>
			</g>
		</g>
	</g>
	<g>
		<g>
			<g>
				<g>
					<g>
						<path class="st1" d="M78.98,69.39l0.64,1.07c0.72,1.2,1.77,2.16,3.02,2.78l1.12,0.55l-1.07,0.64
							c-1.2,0.72-2.16,1.77-2.78,3.02l-0.55,1.12l-0.64-1.07c-0.72-1.2-1.77-2.16-3.02-2.78l-1.12-0.55l1.07-0.64
							c1.2-0.72,2.16-1.77,2.78-3.02L78.98,69.39z"/>
					</g>
				</g>
			</g>
		</g>
	</g>
	<g>
		<g>
			<g>
				<g>
					<g>
						<path class="st1" d="M126.88,173.56l0.64,1.07c0.72,1.2,1.77,2.16,3.02,2.78l1.12,0.55l-1.07,0.64
							c-1.2,0.72-2.16,1.77-2.78,3.02l-0.55,1.12l-0.64-1.07c-0.72-1.2-1.77-2.16-3.02-2.78l-1.12-0.55l1.07-0.64
							c1.2-0.72,2.16-1.77,2.78-3.02L126.88,173.56z"/>
					</g>
				</g>
			</g>
		</g>
	</g>
	<g>
		<g>
			<g>
				<g>
					<g>
						<path class="st1" d="M364.58,202.68l0.64,1.07c0.72,1.2,1.77,2.16,3.02,2.78l1.12,0.55l-1.07,0.64
							c-1.2,0.72-2.16,1.77-2.78,3.02l-0.55,1.12l-0.64-1.07c-0.72-1.2-1.77-2.16-3.02-2.78l-1.12-0.55l1.07-0.64
							c1.2-0.72,2.16-1.77,2.78-3.02L364.58,202.68z"/>
					</g>
				</g>
			</g>
		</g>
	</g>
	<g>
		<g>
			<g>
				<g>
					<g>
						<path class="st1" d="M355.28,414.19l0.64,1.07c0.72,1.2,1.77,2.16,3.02,2.78l1.12,0.55l-1.07,0.64
							c-1.2,0.72-2.16,1.77-2.78,3.02l-0.55,1.12l-0.64-1.07c-0.72-1.2-1.77-2.16-3.02-2.78l-1.12-0.55l1.07-0.64
							c1.2-0.72,2.16-1.77,2.78-3.02L355.28,414.19z"/>
					</g>
				</g>
			</g>
		</g>
	</g>
	<g>
		<g>
			<g>
				<g>
					<g>
						<path class="st1" d="M170.39,102.4l1.29,2.15c1.45,2.41,3.57,4.36,6.09,5.61l2.25,1.11l-2.15,1.29
							c-2.42,1.45-4.36,3.57-5.61,6.09l-1.11,2.25l-1.29-2.15c-1.45-2.41-3.57-4.36-6.09-5.61l-2.25-1.11l2.15-1.29
							c2.41-1.45,4.36-3.57,5.61-6.09L170.39,102.4z"/>
					</g>
				</g>
			</g>
		</g>
	</g>
	<g>
		<g>
			<g>
				<g>
					<g>
						<path class="st1" d="M449.97,91.69l1.29,2.15c1.45,2.41,3.57,4.36,6.09,5.61l2.25,1.11l-2.15,1.29
							c-2.42,1.45-4.36,3.57-5.61,6.09l-1.11,2.25l-1.29-2.15c-1.45-2.41-3.57-4.36-6.09-5.61l-2.25-1.11l2.15-1.29
							c2.42-1.45,4.36-3.57,5.61-6.09L449.97,91.69z"/>
					</g>
				</g>
			</g>
		</g>
	</g>
	<g>
		<g>
			<g>
				<g>
					<g>
						<path class="st1" d="M331.28,58.13l0.75,1.25c0.84,1.4,2.07,2.53,3.54,3.26l1.31,0.65l-1.25,0.75
							c-1.4,0.84-2.53,2.07-3.26,3.54l-0.65,1.31l-0.75-1.25c-0.84-1.4-2.07-2.53-3.54-3.26l-1.31-0.65l1.25-0.75
							c1.4-0.84,2.53-2.07,3.26-3.54L331.28,58.13z"/>
					</g>
				</g>
			</g>
		</g>
	</g>
	<g>
		<g>
			<g>
				<g>
					<g>
						<path class="st1" d="M75,312.28l1.13,1.88c1.27,2.11,3.12,3.82,5.34,4.91l1.97,0.97l-1.88,1.13
							c-2.11,1.27-3.82,3.12-4.91,5.34l-0.97,1.97l-1.13-1.88c-1.27-2.11-3.12-3.82-5.34-4.91l-1.97-0.97l1.88-1.13
							c2.11-1.27,3.82-3.12,4.91-5.34L75,312.28z"/>
					</g>
				</g>
			</g>
		</g>
	</g>
	<g>
		<g>
			<g>
				<g>
					<g>
						<path class="st1" d="M404.17,421.54l1.13,1.88c1.27,2.11,3.12,3.82,5.34,4.91l1.97,0.97l-1.88,1.13
							c-2.11,1.27-3.82,3.12-4.91,5.34l-0.97,1.97l-1.13-1.88c-1.27-2.11-3.12-3.82-5.34-4.91l-1.97-0.97l1.88-1.13
							c2.11-1.27,3.82-3.12,4.91-5.34L404.17,421.54z"/>
					</g>
				</g>
			</g>
		</g>
	</g>
</g>
<g id="Background_Simple" class="st2">
	<path class="st3" d="M414.44,114.16l-2.31-3.81c-19.48-32.09-54.69-51.44-91.81-49.09c-4.77,0.3-9.52,0.95-14.21,1.95
		c-33.75,7.23-63.12,32.75-75.3,65.44c-7.16,19.23-9.16,41.36-22.75,56.62c-17.68,19.86-47.7,20.48-74.1,19.66
		s-56.43-0.12-74.03,19.82C48.92,237.25,45.41,255,46.3,271.73c2.35,44.28,33.2,83.86,72.44,103.54
		c39.24,19.68,85.43,21.44,128.37,12.78c60.16-12.13,117.36-45.43,151.75-96.86C433.25,239.75,441.95,169.68,414.44,114.16z"/>
</g>
<g id="Desk">
	<path class="st4" d="M477.56,500.22c0,0.14-101.89,0.26-227.54,0.26c-125.7,0-227.57-0.12-227.57-0.26s101.87-0.26,227.57-0.26
		C375.67,499.96,477.56,500.07,477.56,500.22z"/>
</g>
<g id="Character_2">
	<polygon class="st5" points="325.12,457.8 323.93,455.98 178.24,451.02 159.61,500.17 334,499.96 	"/>
	<polygon class="st6" points="325.12,457.8 323.93,455.98 178.24,451.02 159.61,500.17 334,499.96 	"/>
	<g>
		<g>
			<g>
				<path class="st5" d="M395.01,323.43c-0.07-2.14-1.35-4.03-3.14-5.21c-27.88-18.45-48.89-59.35-51.01-93.98
					c-0.06-1.97-0.12-3.97-0.18-5.99c0-0.01,0-0.02,0-0.03l0,0c-1.61-49.51-8.9-109.55-15.45-125.55
					c-12.09-29.56-53.03-32.34-53.03-32.34c-54.35-3.89-64.06,37.87-69.54,75.91c-3.41,23.65-16.56,108.15-16.56,108.15l9.99,3.86
					c11.77,34.87,38.27,63.08,72.72,76.05c10.02,3.77,18.5,5.29,22.48,2.04c15.82,16.04,35.63,28.16,57.19,34.72
					c8.78,2.67,17.98,4.45,27.11,3.6c5.93-0.55,12.19-2.51,15.72-7.31c3.05-4.13,3.47-10.04,1.03-14.56
					c-2.43-4.52-7.6-7.42-12.72-7.15C381.69,328.99,395.24,330.96,395.01,323.43z"/>
			</g>
			<g class="st6">
				<path d="M395.01,323.43c-0.07-2.14-1.35-4.03-3.14-5.21c-27.88-18.45-48.89-59.35-51.01-93.98c-0.06-1.97-0.12-3.97-0.18-5.99
					c0-0.01,0-0.02,0-0.03l0,0c-1.61-49.51-8.9-109.55-15.45-125.55c-12.09-29.56-53.03-32.34-53.03-32.34
					c-54.35-3.89-64.06,37.87-69.54,75.91c-3.41,23.65-16.56,108.15-16.56,108.15l9.99,3.86c11.77,34.87,38.27,63.08,72.72,76.05
					c10.02,3.77,18.5,5.29,22.48,2.04c15.82,16.04,35.63,28.16,57.19,34.72c8.78,2.67,17.98,4.45,27.11,3.6
					c5.93-0.55,12.19-2.51,15.72-7.31c3.05-4.13,3.47-10.04,1.03-14.56c-2.43-4.52-7.6-7.42-12.72-7.15
					C381.69,328.99,395.24,330.96,395.01,323.43z"/>
			</g>
			<g>
				<g>
					<path class="st5" d="M279.44,75.72l-3.4-3.24l-36.75,14.81c-5.32,0.29-9.52,4.61-9.69,9.93l0.32,119.72
						c-0.05,8.12,1.58,15.15,6.48,21.62l5.16,6.81c11.77,15.53,35.97,14.26,45.29-2.86c0.65-1.2,1.1-2.25,1.3-3.1
						c0.2-1.07,0.49-1.77,0.55-2.68c1.09-9.63,1.16-17.98,1.16-17.98c0.65-10.58,0.87-14.91,0.87-14.82c0,0,22.51-2.59,28.59-31.48
						c3.03-14.37,2.46-34.13,1.6-53.59C319.75,91.95,301.08,75.69,279.44,75.72z"/>
				</g>
				<g class="st6">
					<g>
						<g>
							<g>
								<g>
									<g>
										<g>
											<g>
												<g>
													<path d="M271.9,135c-0.03,1.98-1.73,3.58-3.79,3.59c-2.06,0.01-3.71-1.58-3.68-3.56c0.03-1.98,1.73-3.58,3.79-3.59
														C270.28,131.43,271.93,133.03,271.9,135z"/>
												</g>
											</g>
										</g>
									</g>
								</g>
							</g>
						</g>
					</g>
				</g>
				<g class="st6">
					<g>
						<g>
							<g>
								<g>
									<g>
										<g>
											<g>
												<g>
													<path d="M309.89,136.03c-0.03,1.98-1.73,3.58-3.79,3.59c-2.06,0.01-3.71-1.58-3.68-3.56c0.03-1.98,1.73-3.58,3.79-3.59
														C308.27,132.46,309.92,134.05,309.89,136.03z"/>
												</g>
											</g>
										</g>
									</g>
								</g>
							</g>
						</g>
					</g>
				</g>
				<g class="st6">
					<g>
						<g>
							<g>
								<g>
									<g>
										<g>
											<g>
												<g>
													<g>
														<path d="M317.08,126.57c-0.49,0.46-3.21-1.77-7.23-1.96c-4.01-0.25-7.07,1.67-7.48,1.16
															c-0.2-0.23,0.31-1.08,1.64-1.95c1.31-0.87,3.51-1.66,6.02-1.53c2.5,0.14,4.56,1.17,5.73,2.17
															C316.95,125.46,317.32,126.36,317.08,126.57z"/>
													</g>
												</g>
											</g>
										</g>
									</g>
								</g>
							</g>
						</g>
					</g>
				</g>
				<g class="st6">
					<g>
						<g>
							<g>
								<g>
									<g>
										<g>
											<g>
												<g>
													<g>
														<path d="M276.3,126.99c-0.53,0.41-3.02-2.09-6.99-2.69c-3.96-0.66-7.2,0.94-7.56,0.38c-0.18-0.25,0.42-1.05,1.84-1.78
															c1.39-0.73,3.66-1.3,6.14-0.9c2.48,0.4,4.42,1.63,5.47,2.75C276.27,125.87,276.56,126.81,276.3,126.99z"/>
													</g>
												</g>
											</g>
										</g>
									</g>
								</g>
							</g>
						</g>
					</g>
				</g>
				<g class="st6">
					<g>
						<g>
							<g>
								<g>
									<g>
										<g>
											<g>
												<g>
													<path d="M290.34,156.24c-0.01-0.23,2.51-0.54,6.59-0.85c1.03-0.05,2.01-0.21,2.22-0.9c0.28-0.73-0.09-1.86-0.53-3.08
														c-0.84-2.53-1.72-5.19-2.64-7.97c-3.66-11.34-6.25-20.64-5.79-20.78c0.46-0.14,3.79,8.93,7.45,20.27
														c0.88,2.79,1.72,5.46,2.51,8.01c0.33,1.19,0.93,2.54,0.33,4.05c-0.31,0.75-1.1,1.27-1.76,1.42
														c-0.67,0.17-1.25,0.15-1.76,0.15C292.87,156.58,290.34,156.47,290.34,156.24z"/>
												</g>
											</g>
										</g>
									</g>
								</g>
							</g>
						</g>
					</g>
				</g>
				<g class="st7">
					<g>
						<g>
							<g>
								<g>
									<g>
										<g>
											<g>
												<path d="M290.73,203.94c0,0-19.65,0.28-38.48-12.36c0,0,8.8,20.65,38.08,19.39L290.73,203.94z"/>
											</g>
										</g>
									</g>
								</g>
							</g>
						</g>
					</g>
				</g>
				<g>
					<g>
						<g>
							<g>
								<g>
									<g>
										<g>
											<g>
												<path class="st5" d="M288.15,165.84c-1.35-1.98-3.83-3.16-6.36-3.02c-1.75,0.1-3.56,0.85-4.69,2.22
													c-1.13,1.37-1.45,3.37-0.56,4.77c1.01,1.58,3.26,2.04,5.2,1.6c1.95-0.45,3.66-1.63,5.29-2.81
													c0.45-0.33,0.91-0.67,1.21-1.13c0.3-0.46,0.38-1.08,0.07-1.5"/>
											</g>
										</g>
									</g>
								</g>
							</g>
						</g>
					</g>
				</g>
				<g class="st7">
					<g>
						<g>
							<g>
								<g>
									<g>
										<g>
											<g>
												<path d="M288.15,165.84c-1.35-1.98-3.83-3.16-6.36-3.02c-1.75,0.1-3.56,0.85-4.69,2.22c-1.13,1.37-1.45,3.37-0.56,4.77
													c1.01,1.58,3.26,2.04,5.2,1.6c1.95-0.45,3.66-1.63,5.29-2.81c0.45-0.33,0.91-0.67,1.21-1.13
													c0.3-0.46,0.38-1.08,0.07-1.5"/>
											</g>
										</g>
									</g>
								</g>
							</g>
						</g>
					</g>
				</g>
				<g class="st6">
					<g>
						<g>
							<g>
								<g>
									<path d="M279.45,112.46c-0.79,0.85-4.29-1.19-8.86-2.5c-4.55-1.4-8.59-1.61-8.79-2.76c-0.07-0.54,0.94-1.23,2.77-1.61
										c1.82-0.38,4.45-0.36,7.18,0.45c2.73,0.82,4.95,2.24,6.26,3.55C279.34,110.92,279.81,112.05,279.45,112.46z"/>
								</g>
							</g>
						</g>
					</g>
				</g>
				<g class="st6">
					<g>
						<g>
							<g>
								<g>
									<path d="M314.45,116.99c-0.63,0.97-3.47,0.24-6.8,0.46c-3.33,0.1-6.09,1.1-6.81,0.2c-0.32-0.44,0.05-1.39,1.21-2.35
										c1.14-0.96,3.11-1.82,5.4-1.93c2.29-0.11,4.33,0.56,5.56,1.4C314.27,115.61,314.73,116.52,314.45,116.99z"/>
								</g>
							</g>
						</g>
					</g>
				</g>
				<g>
					<path class="st5" d="M230.34,148.31c0,0,20.58,6.41,32.23-44.4c3.98-17.37,20.09-31.44,20.09-31.44l-6.53-1.96
						c0,0-40.59,11.44-41.27,11.95c-0.68,0.51-10.24,20.99-10.24,20.99L230.34,148.31z"/>
				</g>
				<g>
					<path class="st5" d="M235.41,146.42c0.1-2.17-2.15-7.41-4.27-7.85c-5.67-1.18-16.01-1.24-16.83,13.28
						c-1.13,19.85,19.03,16.88,19.1,16.32C233.46,167.73,235.05,153.91,235.41,146.42z"/>
				</g>
				<g class="st6">
					<path d="M227.77,160.3c-0.08-0.07-0.36,0.22-0.96,0.46c-0.59,0.23-1.58,0.35-2.59-0.09c-2.05-0.89-3.63-4.32-3.52-7.9
						c0.05-1.81,0.53-3.51,1.25-4.9c0.69-1.42,1.68-2.38,2.75-2.51c1.06-0.18,1.78,0.49,1.99,1.06c0.23,0.57,0.09,0.96,0.19,1
						c0.05,0.05,0.44-0.31,0.33-1.14c-0.06-0.4-0.27-0.88-0.71-1.29c-0.45-0.41-1.14-0.65-1.88-0.61c-1.54,0.02-2.99,1.35-3.79,2.87
						c-0.88,1.53-1.45,3.43-1.51,5.46c-0.1,4.01,1.73,7.87,4.56,8.86c1.37,0.44,2.56,0.09,3.19-0.35
						C227.71,160.78,227.84,160.34,227.77,160.3z"/>
				</g>
			</g>
			<g class="st6">
				<path d="M230.34,148.31c0,0,20.58,6.41,32.23-44.4c3.98-17.37,20.09-31.44,20.09-31.44l-6.53-1.96c0,0-40.59,11.44-41.27,11.95
					c-0.68,0.51-10.24,20.99-10.24,20.99L230.34,148.31z"/>
			</g>
			<g>
				<g>
					<g>
						<g>
							<g>
								<g>
									<g>
										<g>
											<g>
												<path class="st5" d="M278.37,158.43c0.66-0.01,0.44,4.36,4.02,7.64c3.57,3.29,8.25,3.04,8.25,3.65
													c0.05,0.28-1.08,0.8-3.04,0.75c-1.93-0.03-4.71-0.79-6.9-2.8c-2.18-2.01-3.04-4.6-3.09-6.39
													C277.54,159.44,278.08,158.39,278.37,158.43z"/>
											</g>
										</g>
									</g>
								</g>
							</g>
						</g>
					</g>
				</g>
			</g>
			<g class="st6">
				<g>
					<g>
						<g>
							<g>
								<g>
									<g>
										<g>
											<g>
												<path d="M278.37,158.43c0.66-0.01,0.44,4.36,4.02,7.64c3.57,3.29,8.25,3.04,8.25,3.65c0.05,0.28-1.08,0.8-3.04,0.75
													c-1.93-0.03-4.71-0.79-6.9-2.8c-2.18-2.01-3.04-4.6-3.09-6.39C277.54,159.44,278.08,158.39,278.37,158.43z"/>
											</g>
										</g>
									</g>
								</g>
							</g>
						</g>
					</g>
				</g>
			</g>
		</g>
		<g>
			<g>
				<g>
					<g>
						<path class="st5" d="M434.29,159.71c0,0,26.54,53.38,31.04,64.6c3.9,9.71,25.46,55.2,18.79,67.82
							c-6.67,12.62-12.59,11.96-21.87,12.47c-9.29,0.51-69.72-1.98-85.38-2.63c-19.94-0.83-41.86-6.49-41.86-6.49l10.28-54.69
							l79.88,14.86l0,0l-13.5-86.79L434.29,159.71z"/>
					</g>
					<g>
						<path class="st5" d="M434.44,160.11c0,0-4.61-8.17-7.46-10.13c-2.85-1.96-26.01-22.26-26.01-22.26s-9.08-9.62-11.58-9.08
							c-2.49,0.53-26.18,16.39-26.36,18.88c-0.18,2.49,1.07,3.92,2.49,4.27c1.42,0.36-0.71,1.96,3.03,5.7c0,0-3.56-0.18-3.38,3.21
							c0.18,3.38,0,8.02,2.32,8.19c2.32,0.18,9.62,2.32,9.97-1.6l0.71-1.6c0,0,6.23,4.45,11.93,6.77c5.7,2.32,14.78,2.14,14.78,2.14
							s2.49,3.74,6.77,4.27C415.94,169.39,434.44,160.11,434.44,160.11z"/>
					</g>
					<g class="st6">
						<g>
							<path d="M398.94,145.48c-0.07-0.06-0.86,0.84-1.24,2.68c-0.4,1.81-0.18,4.49,1.07,7.04c1.25,2.54,2.99,4.4,4.27,5.66
								c1.29,1.25,2.17,1.94,2.25,1.86c0.09-0.09-0.62-0.95-1.78-2.3c-1.14-1.36-2.74-3.23-3.92-5.61
								c-1.16-2.38-1.46-4.83-1.25-6.53C398.53,146.53,399.08,145.55,398.94,145.48z"/>
						</g>
					</g>
					<g class="st6">
						<g>
							<path d="M388.04,150.18c-0.04,0.03-0.02,0.2,0.19,0.39c0.21,0.19,0.62,0.33,1.1,0.3c0.97-0.05,2.15-0.68,3.02-1.78
								c0.87-1.1,1.14-2.4,1.1-3.29c-0.05-0.91-0.34-1.4-0.45-1.37c-0.14,0.03-0.09,0.55-0.2,1.33c-0.12,0.77-0.45,1.83-1.18,2.76
								c-0.71,0.92-1.68,1.53-2.38,1.7C388.52,150.43,388.14,150.11,388.04,150.18z"/>
						</g>
					</g>
					<g class="st6">
						<g>
							<path d="M396.92,127.52c0.04-0.02-0.84-0.43-2.27,0.18c-0.69,0.3-1.46,0.88-2.12,1.7c-0.68,0.82-1.27,1.84-1.99,2.92
								c-1.42,2.16-3.21,4.67-5.38,7.3c-1.08,1.32-2.26,2.67-3.53,4.02c-0.63,0.68-1.34,1.41-1.76,2.43
								c-0.45,1.02-0.24,2.31,0.34,3.21c0.56,0.93,1.32,1.63,2.03,2.28c0.72,0.66,1.45,1.28,2.18,1.88
								c1.48,1.18,2.89,2.28,4.45,3.16c0.79,0.42,1.68,0.72,2.59,0.71c0.91-0.01,1.74-0.33,2.43-0.73c1.37-0.83,2.44-1.88,3.12-3.09
								c0.68-1.21,0.72-2.61,0.28-3.62c-0.42-1.06-1.39-1.63-2.15-1.69c-0.78-0.09-1.37,0.15-1.69,0.4
								c-0.32,0.25-0.4,0.45-0.38,0.46c0.03,0.1,0.61-0.76,2.01-0.5c0.67,0.12,1.41,0.62,1.73,1.53c0.33,0.89,0.26,2.07-0.37,3.12
								c-0.61,1.04-1.67,2.03-2.92,2.74c-0.63,0.34-1.34,0.59-2.06,0.58c-0.73,0-1.47-0.26-2.18-0.65
								c-1.42-0.82-2.86-1.96-4.28-3.11c-0.72-0.59-1.43-1.21-2.13-1.85c-0.7-0.65-1.4-1.3-1.86-2.08c-0.47-0.77-0.61-1.62-0.28-2.4
								c0.31-0.79,0.94-1.47,1.57-2.15c1.27-1.38,2.45-2.75,3.53-4.1c2.16-2.69,3.91-5.27,5.27-7.48c0.69-1.11,1.24-2.15,1.84-2.95
								c0.59-0.81,1.25-1.37,1.87-1.7C396.06,127.36,396.92,127.61,396.92,127.52z"/>
						</g>
					</g>
					<g class="st6">
						<g>
							<path d="M392.73,144.54c-0.1,0.06-0.01,0.48,0.39,1.03c0.4,0.55,1.15,1.18,2.14,1.55c0.99,0.36,1.97,0.35,2.63,0.19
								c0.66-0.16,1-0.43,0.96-0.54c-0.08-0.25-1.59,0.13-3.28-0.51C393.86,145.66,392.95,144.4,392.73,144.54z"/>
						</g>
					</g>
					<g class="st6">
						<g>
							<path d="M387.59,124.31c-0.05-0.04-0.53,0.46-1.36,1.41c-0.83,0.94-2.01,2.33-3.45,4.05c-1.48,1.79-3.17,3.84-5.02,6.08
								c-0.94,1.16-1.92,2.36-2.94,3.61c-1,1.25-2.14,2.53-2.98,4.11c-0.86,1.53-1.25,3.58-0.38,5.2c0.84,1.6,2.23,2.53,3.37,3.43
								c2.39,1.78,4.4,3.49,6.38,4.7c1,0.58,2.03,0.94,2.99,0.96c0.94,0.03,1.74-0.22,2.31-0.55c1.17-0.69,1.3-1.54,1.27-1.52
								c-0.08-0.06-0.33,0.68-1.43,1.2c-0.54,0.25-1.28,0.42-2.12,0.35c-0.83-0.07-1.76-0.43-2.68-1.01
								c-1.81-1.2-3.85-3.01-6.19-4.81c-1.15-0.92-2.42-1.85-3.09-3.16c-0.69-1.31-0.4-2.94,0.38-4.37c0.77-1.45,1.87-2.7,2.87-3.97
								c1-1.26,1.97-2.48,2.9-3.64c1.8-2.29,3.44-4.38,4.87-6.21c1.37-1.78,2.47-3.22,3.22-4.23
								C387.26,124.93,387.64,124.35,387.59,124.31z"/>
						</g>
					</g>
					<g class="st6">
						<g>
							<path d="M379.87,126.14c-0.23-0.16-3.14,4.33-8.03,8.65c-1.22,1.09-2.41,2.15-3.33,3.3c-0.93,1.14-1.54,2.36-1.82,3.45
								c-0.58,2.23,0.17,3.6,0.24,3.52c0.16-0.03-0.31-1.36,0.38-3.34c0.33-0.98,0.94-2.06,1.85-3.1c0.9-1.05,2.06-2.06,3.29-3.16
								c2.48-2.2,4.42-4.52,5.66-6.29C379.37,127.4,379.97,126.2,379.87,126.14z"/>
						</g>
					</g>
					<g class="st6">
						<g>
							<path d="M368.68,151.53c0,0.33,2.61,0.01,5.43,0.96c1.39,0.5,2.46,1.34,3.09,2.07c0.64,0.73,0.88,1.32,1.02,1.27
								c0.11-0.02,0.08-0.72-0.5-1.66c-0.56-0.93-1.73-1.99-3.3-2.55c-1.56-0.56-3.06-0.58-4.09-0.49
								C369.29,151.22,368.67,151.41,368.68,151.53z"/>
						</g>
					</g>
				</g>
				<g>
					<g>
						<path class="st6" d="M425.38,255.1c-0.1,0.05,0.3,1.24,1.23,3.05c0.92,1.8,2.42,4.2,4.41,6.58c1.99,2.38,4.09,4.28,5.7,5.51
							c1.61,1.23,2.71,1.84,2.78,1.75c0.17-0.23-3.88-3.15-7.77-7.84C427.79,259.48,425.63,254.97,425.38,255.1z"/>
					</g>
				</g>
			</g>
			<polygon class="st7" points="366.61,301.17 375.66,246.44 381.85,247.59 374.71,301.86 			"/>
		</g>
		<g>
			<g>
				<g>
					<g>
						<path class="st5" d="M63.7,138.4c0,0-26.54,53.38-31.04,64.6c-3.9,9.71-25.46,55.2-18.79,67.82
							c6.67,12.62,12.59,11.96,21.87,12.47c9.29,0.51,69.72-1.98,85.38-2.63c19.94-0.83,41.86-6.49,41.86-6.49l-10.28-54.69
							l-79.88,14.86l0,0l13.5-86.79L63.7,138.4z"/>
					</g>
					<g>
						<path class="st5" d="M63.55,138.8c0,0,4.61-8.17,7.46-10.13c2.85-1.96,26-22.26,26-22.26s9.08-9.62,11.58-9.08
							c2.49,0.53,26.18,16.39,26.36,18.88c0.18,2.49-1.07,3.92-2.49,4.27c-1.42,0.36,0.71,1.96-3.03,5.7c0,0,2.51-0.07,3.38,3.21
							c0.84,3.14,1,6.32-2.32,8.19c-2.51,1.42-8.52,2.84-10.62-3.06l-0.07-0.15c0,0-6.23,4.45-11.93,6.77
							c-5.7,2.32-14.78,2.14-14.78,2.14s-2.49,3.74-6.77,4.27C82.05,148.08,63.55,138.8,63.55,138.8z"/>
					</g>
					<g class="st6">
						<g>
							<path d="M99.05,124.17c0.07-0.06,0.86,0.84,1.24,2.68c0.4,1.81,0.18,4.49-1.07,7.04c-1.25,2.54-2.99,4.4-4.27,5.66
								c-1.29,1.25-2.17,1.94-2.25,1.86c-0.09-0.09,0.62-0.95,1.78-2.3c1.14-1.36,2.74-3.23,3.92-5.61
								c1.16-2.38,1.46-4.83,1.25-6.53C99.47,125.22,98.91,124.24,99.05,124.17z"/>
						</g>
					</g>
					<g class="st6">
						<g>
							<path d="M109.96,128.87c0.04,0.03,0.02,0.2-0.19,0.39c-0.21,0.19-0.62,0.33-1.1,0.3c-0.97-0.05-2.15-0.68-3.02-1.78
								c-0.87-1.1-1.14-2.4-1.1-3.29c0.05-0.91,0.34-1.4,0.45-1.37c0.14,0.03,0.09,0.55,0.2,1.33c0.12,0.77,0.45,1.83,1.18,2.76
								c0.71,0.92,1.68,1.53,2.38,1.7C109.47,129.13,109.85,128.8,109.96,128.87z"/>
						</g>
					</g>
					<g class="st6">
						<g>
							<path d="M101.08,106.21c-0.04-0.02,0.84-0.43,2.27,0.18c0.69,0.3,1.46,0.88,2.12,1.7c0.68,0.82,1.27,1.84,1.99,2.92
								c1.42,2.16,3.21,4.67,5.38,7.3c1.08,1.32,2.26,2.67,3.53,4.02c0.63,0.68,1.34,1.41,1.76,2.43c0.45,1.02,0.24,2.31-0.34,3.21
								c-0.56,0.93-1.32,1.63-2.03,2.28c-0.72,0.66-1.45,1.28-2.18,1.88c-1.48,1.18-2.89,2.28-4.45,3.16
								c-0.79,0.42-1.68,0.72-2.59,0.71c-0.91-0.01-1.74-0.33-2.43-0.73c-1.37-0.83-2.44-1.88-3.12-3.09
								c-0.68-1.21-0.72-2.61-0.28-3.62c0.42-1.06,1.39-1.63,2.15-1.69c0.78-0.09,1.37,0.15,1.69,0.4c0.32,0.25,0.4,0.45,0.38,0.46
								c-0.03,0.1-0.61-0.76-2.01-0.51c-0.67,0.12-1.41,0.62-1.73,1.53c-0.33,0.89-0.26,2.07,0.37,3.12
								c0.61,1.04,1.67,2.03,2.92,2.74c0.63,0.34,1.34,0.59,2.06,0.58c0.73,0,1.47-0.26,2.18-0.65c1.42-0.82,2.86-1.96,4.29-3.11
								c0.71-0.59,1.43-1.21,2.13-1.85c0.7-0.65,1.4-1.3,1.86-2.08c0.47-0.77,0.61-1.62,0.28-2.4c-0.31-0.79-0.94-1.47-1.57-2.15
								c-1.27-1.38-2.45-2.75-3.53-4.1c-2.16-2.69-3.91-5.27-5.27-7.48c-0.69-1.11-1.24-2.15-1.84-2.95
								c-0.59-0.81-1.25-1.37-1.87-1.7C101.93,106.05,101.07,106.3,101.08,106.21z"/>
						</g>
					</g>
					<g class="st6">
						<g>
							<path d="M105.27,123.23c0.1,0.06,0.01,0.48-0.39,1.03c-0.4,0.55-1.15,1.18-2.14,1.55c-0.99,0.36-1.97,0.35-2.63,0.19
								c-0.66-0.16-1-0.43-0.96-0.54c0.08-0.25,1.59,0.13,3.28-0.51C104.13,124.36,105.04,123.1,105.27,123.23z"/>
						</g>
					</g>
					<g class="st6">
						<g>
							<path d="M110.4,103c0.05-0.04,0.53,0.46,1.36,1.41c0.83,0.94,2.01,2.33,3.45,4.05c1.48,1.79,3.17,3.84,5.02,6.08
								c0.94,1.16,1.92,2.36,2.94,3.61c1,1.25,2.14,2.53,2.98,4.11c0.86,1.53,1.25,3.58,0.38,5.2c-0.84,1.6-2.23,2.53-3.37,3.43
								c-2.39,1.78-4.4,3.49-6.38,4.7c-1,0.58-2.03,0.94-2.99,0.96c-0.94,0.03-1.74-0.22-2.31-0.55c-1.17-0.69-1.3-1.54-1.27-1.52
								c0.08-0.06,0.33,0.68,1.43,1.2c0.54,0.25,1.28,0.42,2.12,0.35c0.83-0.07,1.76-0.43,2.68-1.01c1.81-1.2,3.85-3.01,6.19-4.81
								c1.15-0.92,2.42-1.85,3.09-3.16c0.69-1.31,0.4-2.94-0.38-4.37c-0.77-1.45-1.87-2.7-2.87-3.97c-1-1.26-1.97-2.48-2.9-3.64
								c-1.8-2.29-3.44-4.38-4.87-6.21c-1.37-1.78-2.47-3.22-3.22-4.23C110.74,103.62,110.35,103.04,110.4,103z"/>
						</g>
					</g>
					<g class="st6">
						<g>
							<path d="M118.12,104.83c0.23-0.16,3.14,4.33,8.03,8.65c1.22,1.09,2.41,2.15,3.33,3.3c0.93,1.14,1.54,2.36,1.82,3.45
								c0.58,2.23-0.17,3.6-0.24,3.52c-0.16-0.03,0.31-1.36-0.38-3.34c-0.33-0.98-0.94-2.06-1.85-3.1c-0.9-1.05-2.06-2.06-3.29-3.16
								c-2.48-2.2-4.42-4.52-5.66-6.29C118.62,106.1,118.02,104.89,118.12,104.83z"/>
						</g>
					</g>
					<g class="st6">
						<g>
							<path d="M129.83,130.58c0,0.33-2.61,0.01-5.43,0.96c-1.39,0.5-2.46,1.34-3.09,2.07c-0.64,0.73-0.88,1.32-1.02,1.27
								c-0.11-0.02-0.08-0.72,0.5-1.66c0.56-0.93,1.73-1.99,3.3-2.55c1.56-0.56,3.06-0.58,4.09-0.49
								C129.22,130.27,129.84,130.46,129.83,130.58z"/>
						</g>
					</g>
				</g>
				<g>
					<g>
						<path class="st6" d="M72.62,233.79c0.1,0.05-0.3,1.24-1.23,3.05c-0.92,1.8-2.42,4.2-4.41,6.58c-1.99,2.38-4.09,4.28-5.7,5.51
							c-1.61,1.23-2.71,1.84-2.78,1.75c-0.17-0.23,3.88-3.15,7.77-7.84C70.2,238.17,72.36,233.67,72.62,233.79z"/>
					</g>
				</g>
			</g>
			<polygon class="st7" points="137.56,279.22 127.22,224.22 121.32,225.32 128.38,280.17 			"/>
		</g>
		<g>
			<g>
				<g>
					<path class="st5" d="M175.94,418.55c0,0-12.98-88.21-12.95-100.97c0.01-5.04-2.68-38.16-2.68-38.16l-22.37,2.01l-11.33-60.28
						c0,0,44.45-7.98,56.4-8.61c11.91-0.63,52.16,5.53,52.16,5.53l71.53,11.29c0,0,19.81,3.17,19.61,2.98l49.56,12.82l-9.33,56.41
						l-29.51-1.15l0.19,35.68c-0.39,2.7,1.93,16.19-15.8,37.77l-2.98,37.57l13.3,68.36H167.49L175.94,418.55z"/>
				</g>
			</g>
			<g class="st6">
				<path d="M289.94,226.72c0.15,0.09-0.24,1.11-1.42,2.65c-1.17,1.53-3.15,3.57-6.07,5.47c-2.9,1.9-6.76,3.63-11.27,4.52
					c-1.13,0.18-2.29,0.42-3.48,0.55c-1.19,0.08-2.42,0.22-3.66,0.26c-1.24-0.01-2.51,0-3.79-0.04c-1.28-0.13-2.59-0.26-3.9-0.4
					c-5.26-0.77-10.11-2.61-14-5.1c-3.9-2.48-6.83-5.51-8.88-8.28c-2.06-2.78-3.28-5.31-3.97-7.09c-0.69-1.79-0.84-2.86-0.67-2.92
					c0.17-0.05,0.64,0.87,1.59,2.48c0.95,1.6,2.37,3.89,4.5,6.39c2.13,2.49,5,5.19,8.7,7.39c3.68,2.21,8.18,3.85,13.11,4.57
					c4.92,0.73,9.78,0.56,14.02-0.15c4.26-0.71,7.92-2.15,10.77-3.74c2.86-1.59,4.92-3.31,6.27-4.57
					C289.12,227.42,289.79,226.63,289.94,226.72z"/>
			</g>
			<g class="st6">
				<path d="M289.92,320.71c0.28-0.08,1.65,3.35,1.95,9.26c0.15,2.94-0.03,6.48-0.81,10.32c-0.77,3.84-2.18,7.97-4.33,11.96
					c-2.18,3.98-4.88,7.41-7.68,10.15c-2.8,2.74-5.67,4.83-8.22,6.3c-5.12,2.97-8.75,3.68-8.83,3.4c-0.15-0.39,3.18-1.72,7.84-4.96
					c4.64-3.19,10.5-8.6,14.6-16.14c4.09-7.54,5.44-15.41,5.59-21.03C290.21,324.31,289.5,320.79,289.92,320.71z"/>
			</g>
		</g>
	</g>
</g>
<g id="Character_1">
	<g>
		<g>
			<path class="st4" d="M75.99,403.87c0.06-1.85,1.17-3.48,2.71-4.5c24.06-15.93,42.19-51.22,44.02-81.1
				c0.05-1.7,0.1-3.43,0.16-5.17c0-0.01,0-0.01,0-0.02l0,0c1.39-42.72,7.68-94.54,13.33-108.35c10.43-25.51,45.76-27.91,45.76-27.91
				c46.9-3.36,55.28,32.68,60.01,65.51c2.94,20.41,14.29,93.34,14.29,93.34l-8.62,3.34c-10.16,30.1-33.03,54.44-62.75,65.63
				c-8.65,3.26-15.97,4.56-19.4,1.76c-13.66,13.84-30.75,24.3-49.36,29.96c-7.58,2.3-15.51,3.84-23.4,3.11
				c-5.12-0.48-10.52-2.17-13.57-6.31c-2.63-3.56-2.99-8.66-0.89-12.56c2.1-3.9,6.55-6.4,10.98-6.17
				C87.49,408.67,75.79,410.36,75.99,403.87z"/>
		</g>
		<g>
			<path class="st8" d="M175.73,190.09l2.93-2.8l31.71,12.78c4.59,0.25,8.22,3.98,8.36,8.57l-0.28,103.32
				c0.04,7.01-1.36,13.07-5.59,18.66l-4.45,5.88c-10.15,13.41-31.04,12.3-39.08-2.47c-0.56-1.03-0.95-1.94-1.12-2.67
				c-0.17-0.92-0.42-1.53-0.47-2.31c-0.94-8.31-1-15.52-1-15.52c-0.57-9.13-0.75-12.87-0.75-12.79c0,0-19.42-2.23-24.67-27.16
				c-2.61-12.4-2.12-29.46-1.38-46.24C140.94,204.1,157.06,190.07,175.73,190.09z"/>
		</g>
		<g>
			<g>
				<g>
					<g>
						<g>
							<g>
								<g>
									<g>
										<g>
											<path class="st4" d="M182.23,241.26c0.03,1.71,1.49,3.09,3.27,3.1c1.78,0.01,3.2-1.37,3.18-3.07
												c-0.03-1.7-1.49-3.09-3.27-3.1C183.63,238.18,182.21,239.55,182.23,241.26z"/>
										</g>
									</g>
								</g>
							</g>
						</g>
					</g>
				</g>
			</g>
		</g>
		<g>
			<g>
				<g>
					<g>
						<g>
							<g>
								<g>
									<g>
										<g>
											<path class="st4" d="M149.45,242.14c0.03,1.71,1.49,3.09,3.27,3.1c1.78,0.01,3.2-1.37,3.18-3.07
												c-0.03-1.7-1.49-3.09-3.27-3.1C150.85,239.06,149.43,240.43,149.45,242.14z"/>
										</g>
									</g>
								</g>
							</g>
						</g>
					</g>
				</g>
			</g>
		</g>
		<g>
			<g>
				<g>
					<g>
						<g>
							<g>
								<g>
									<g>
										<g>
											<g>
												<path class="st4" d="M143.24,233.98c0.42,0.4,2.77-1.53,6.24-1.69c3.46-0.21,6.1,1.44,6.45,1
													c0.18-0.2-0.27-0.94-1.42-1.69c-1.13-0.75-3.03-1.44-5.19-1.32c-2.16,0.12-3.94,1.01-4.94,1.87
													C143.36,233.02,143.04,233.8,143.24,233.98z"/>
											</g>
										</g>
									</g>
								</g>
							</g>
						</g>
					</g>
				</g>
			</g>
		</g>
		<g>
			<g>
				<g>
					<g>
						<g>
							<g>
								<g>
									<g>
										<g>
											<g>
												<path class="st4" d="M178.44,234.34c0.46,0.35,2.6-1.81,6.04-2.33c3.42-0.57,6.21,0.81,6.52,0.33
													c0.15-0.21-0.36-0.9-1.58-1.53c-1.2-0.63-3.16-1.12-5.3-0.78c-2.14,0.34-3.81,1.41-4.72,2.37
													C178.46,233.37,178.22,234.18,178.44,234.34z"/>
											</g>
										</g>
									</g>
								</g>
							</g>
						</g>
					</g>
				</g>
			</g>
		</g>
		<g>
			<g>
				<g>
					<g>
						<g>
							<g>
								<g>
									<g>
										<g>
											<path class="st4" d="M166.32,259.58c0.01-0.2-2.17-0.46-5.68-0.73c-0.89-0.05-1.74-0.18-1.92-0.78
												c-0.24-0.63,0.08-1.6,0.46-2.65c0.73-2.18,1.48-4.48,2.28-6.88c3.16-9.78,5.39-17.81,5-17.93
												c-0.4-0.12-3.27,7.71-6.43,17.49c-0.76,2.41-1.48,4.71-2.17,6.91c-0.28,1.02-0.8,2.19-0.29,3.5
												c0.27,0.65,0.95,1.1,1.52,1.22c0.58,0.14,1.07,0.13,1.51,0.13C164.14,259.87,166.32,259.78,166.32,259.58z"/>
										</g>
									</g>
								</g>
							</g>
						</g>
					</g>
				</g>
			</g>
		</g>
		<g>
			<g>
				<g>
					<g>
						<g>
							<g>
								<g>
									<g>
										<path class="st9" d="M165.98,300.74c0,0,16.96,0.24,33.21-10.66c0,0-7.59,17.82-32.86,16.73L165.98,300.74z"/>
									</g>
								</g>
							</g>
						</g>
					</g>
				</g>
			</g>
		</g>
		<g>
			<g>
				<g>
					<g>
						<g>
							<g>
								<g>
									<g>
										<path class="st9" d="M168.21,267.87c1.16-1.71,3.3-2.73,5.49-2.6c1.51,0.09,3.07,0.74,4.05,1.92
											c0.98,1.18,1.25,2.91,0.48,4.12c-0.87,1.36-2.81,1.76-4.49,1.38c-1.68-0.39-3.16-1.41-4.57-2.42
											c-0.39-0.28-0.79-0.58-1.04-0.98c-0.25-0.4-0.33-0.94-0.06-1.29"/>
									</g>
								</g>
							</g>
						</g>
					</g>
				</g>
			</g>
		</g>
		<g>
			<g>
				<g>
					<g>
						<g>
							<g>
								<g>
									<g>
										<g>
											<path class="st4" d="M176.65,261.47c-0.57,0-0.38,3.76-3.47,6.59c-3.08,2.84-7.12,2.62-7.12,3.15
												c-0.04,0.24,0.93,0.69,2.63,0.65c1.66-0.03,4.06-0.68,5.95-2.41c1.88-1.74,2.62-3.97,2.67-5.52
												C177.37,262.35,176.9,261.44,176.65,261.47z"/>
										</g>
									</g>
								</g>
							</g>
						</g>
					</g>
				</g>
			</g>
		</g>
		<g>
			<g>
				<g>
					<g>
						<g>
							<path class="st4" d="M175.12,220.82c0.48,0.88,3.84-0.09,7.94-0.22c4.1-0.21,7.53,0.47,7.93-0.45
								c0.18-0.44-0.52-1.23-1.98-1.93c-1.44-0.7-3.65-1.24-6.11-1.14c-2.46,0.11-4.61,0.83-5.99,1.65
								C175.54,219.55,174.9,220.4,175.12,220.82z"/>
						</g>
					</g>
				</g>
			</g>
		</g>
		<g>
			<g>
				<g>
					<g>
						<g>
							<path class="st4" d="M143.74,219.08c0.65,0.76,3-0.18,5.87-0.36c2.86-0.28,5.33,0.26,5.85-0.59c0.23-0.41-0.2-1.18-1.3-1.87
								c-1.09-0.69-2.87-1.21-4.84-1.05c-1.97,0.16-3.65,0.96-4.6,1.82C143.74,217.88,143.45,218.7,143.74,219.08z"/>
						</g>
					</g>
				</g>
			</g>
		</g>
		<g>
			<path class="st4" d="M218.1,252.74c0,0-17.76,5.53-27.82-38.31c-3.44-14.99-17.33-27.13-17.33-27.13l5.64-1.7
				c0,0,35.03,9.87,35.62,10.31c0.59,0.44,8.84,18.12,8.84,18.12L218.1,252.74z"/>
		</g>
		<g>
			<path class="st8" d="M213.72,251.1c-0.09-1.87,1.85-6.39,3.69-6.77c4.9-1.02,13.81-1.07,14.52,11.46
				c0.97,17.13-16.43,14.57-16.48,14.08C215.41,269.49,214.03,257.57,213.72,251.1z"/>
		</g>
		<g>
			<path class="st9" d="M220.32,263.09c0.07-0.06,0.31,0.19,0.83,0.39c0.51,0.2,1.36,0.3,2.23-0.08c1.77-0.77,3.13-3.73,3.04-6.82
				c-0.04-1.56-0.46-3.03-1.08-4.23c-0.59-1.22-1.45-2.05-2.37-2.16c-0.92-0.16-1.53,0.42-1.71,0.92c-0.2,0.49-0.07,0.83-0.16,0.86
				c-0.04,0.05-0.38-0.27-0.29-0.98c0.05-0.34,0.23-0.76,0.61-1.11c0.39-0.36,0.99-0.56,1.63-0.53c1.33,0.02,2.58,1.16,3.27,2.48
				c0.76,1.32,1.26,2.96,1.31,4.72c0.09,3.46-1.5,6.79-3.93,7.64c-1.19,0.38-2.21,0.08-2.75-0.3
				C220.37,263.5,220.26,263.12,220.32,263.09z"/>
		</g>
		<g>
			<path class="st4" d="M206.05,244.35c0.01-0.06-0.94-0.06-2.57-0.52c-1.61-0.45-3.88-1.5-6.1-3.54c-1.1-1.02-2.19-2.26-3.18-3.73
				c-0.97-1.47-1.84-3.16-2.59-5.01c-1.52-3.69-2.49-7.99-3.69-12.46c-1.2-4.47-2.51-8.69-3.94-12.44
				c-1.41-3.76-2.98-7.03-4.46-9.68c-1.49-2.65-2.89-4.67-3.92-6.02c-0.51-0.68-0.95-1.17-1.23-1.52c-0.29-0.34-0.44-0.52-0.46-0.51
				c-0.01,0.01,0.12,0.2,0.39,0.56c0.26,0.36,0.67,0.87,1.16,1.57c0.98,1.37,2.34,3.42,3.78,6.07c1.44,2.65,2.97,5.92,4.35,9.67
				c1.4,3.74,2.69,7.95,3.89,12.41c1.2,4.45,2.19,8.77,3.74,12.5c0.77,1.86,1.66,3.57,2.66,5.06c1.02,1.48,2.14,2.74,3.28,3.75
				c2.29,2.04,4.62,3.07,6.27,3.47C205.1,244.42,206.05,244.35,206.05,244.35z"/>
		</g>
		<g>
			<g>
				<path class="st10" d="M229.47,317.44c0.02,0,0.08-0.28,0.19-0.83c0.11-0.6,0.25-1.41,0.43-2.43c0.36-2.2,0.88-5.33,1.54-9.3
					l-0.41-0.06c-0.09,0.62-0.18,1.31-0.28,2.02l0.02-0.06c-0.11,0.23-0.23,0.5-0.36,0.77l0.43,0.16
					c2.03-7.01,4.25-16.43,5.49-27.57c0.64-5.57,1-11.55,1.05-17.84c-0.06-6.26-0.02-12.91-1.69-19.55
					c-0.69-2.74-1.74-5.38-3.12-7.78c-1.37-2.4-3-4.58-4.74-6.6c-3.48-4.02-7.24-7.48-10.66-10.92
					c-6.91-6.8-13.14-12.93-18.39-18.09c-5.22-5.1-9.46-9.24-12.45-12.15c-1.45-1.39-2.59-2.49-3.41-3.27
					c-0.37-0.34-0.67-0.62-0.9-0.84c-0.21-0.19-0.32-0.28-0.33-0.27c-0.01,0.01,0.08,0.12,0.27,0.32c0.22,0.23,0.5,0.53,0.85,0.89
					c0.8,0.81,1.9,1.94,3.31,3.38c2.94,2.95,7.12,7.15,12.27,12.33c5.21,5.2,11.4,11.37,18.27,18.21
					c3.41,3.45,7.16,6.93,10.59,10.91c3.43,3.96,6.38,8.65,7.68,14.07c1.65,6.5,1.62,13.12,1.69,19.36
					c-0.03,6.25-0.37,12.22-0.98,17.76c-1.18,11.1-3.32,20.51-5.24,27.53l0.43,0.16c0.12-0.27,0.24-0.54,0.35-0.77l0.01-0.03l0-0.03
					c0.09-0.71,0.17-1.4,0.25-2.03l-0.41-0.06c-0.58,3.98-1.03,7.12-1.35,9.33c-0.14,1.03-0.24,1.84-0.33,2.45
					C229.47,317.15,229.45,317.44,229.47,317.44z"/>
			</g>
		</g>
		<g>
			<g>
				<path class="st10" d="M242.95,238.25c0.02-0.01-0.08-0.26-0.3-0.72c-0.27-0.54-0.6-1.2-1-2.01c-0.87-1.75-2.24-4.22-4.03-7.2
					c-1.78-3-4.08-6.47-6.78-10.21c-2.73-3.72-5.89-7.69-9.44-11.66c-3.57-3.95-7.19-7.52-10.6-10.63
					c-3.43-3.08-6.64-5.73-9.43-7.82c-2.78-2.1-5.09-3.73-6.73-4.78c-0.76-0.48-1.38-0.88-1.89-1.21c-0.44-0.27-0.67-0.4-0.69-0.38
					c-0.01,0.02,0.19,0.2,0.6,0.51c0.49,0.36,1.08,0.79,1.81,1.33c1.59,1.12,3.84,2.81,6.57,4.96c2.74,2.14,5.89,4.82,9.28,7.92
					c3.36,3.13,6.95,6.69,10.5,10.62c3.53,3.95,6.69,7.89,9.44,11.57c2.72,3.7,5.05,7.12,6.89,10.07c1.85,2.94,3.29,5.36,4.24,7.06
					c0.45,0.78,0.82,1.42,1.13,1.94C242.78,238.04,242.93,238.26,242.95,238.25z"/>
			</g>
		</g>
	</g>
	<g>
		<g>
			<path class="st4" d="M220.12,376.32c0.05,0.03,0.46-0.58,1.18-1.71c0.72-1.12,1.75-2.75,3.07-4.73
				c2.62-3.97,6.41-9.35,11.04-14.93c4.65-5.56,9.34-10.19,13.14-13.02c3.77-2.89,6.51-4.02,6.44-4.17
				c-0.02-0.05-0.7,0.23-1.92,0.78c-0.63,0.25-1.32,0.69-2.14,1.17c-0.84,0.46-1.73,1.08-2.7,1.77c-3.93,2.75-8.73,7.37-13.41,12.97
				c-4.66,5.61-8.39,11.07-10.91,15.13c-1.27,2.02-2.23,3.7-2.87,4.87C220.4,375.63,220.08,376.29,220.12,376.32z"/>
		</g>
	</g>
	<g>
		<g>
			<path class="st10" d="M234.31,461.36l28.39-126.42l-28.97-15.49c-0.6-0.86-15.27-7.48-15.27-7.48
				c-3.59,5.89-8.54,11.21-15.03,15.87c-17.57,10.61-35.18,1.95-36.69-14.31v0l-16.07,4.52l-31.05,5.36c0,0-25.29,65.9-21.94,91.68
				c3.35,25.78-1.32,70.39-1.32,70.39l-2.61,14.74l26.39,0.54h4.34l58.86-0.33l51.37-0.22C228.68,482.8,234.31,461.36,234.31,461.36
				z"/>
			<g>
				<path class="st8" d="M76.34,472.06c-10.17,0.38-19.97-4.72-24.91-13.62c-1.58-2.84-2.63-6.03-2.63-9.46
					c0-13.73,8.55-33.43,11.38-40.52c4.09-10.22,43.08-80.98,47.77-79.98c4.69,1,7.24,1.37,7.24,1.37L93,430.56l70.61,11.58
					l-7.75,26.98L76.34,472.06z"/>
			</g>
			<path class="st10" d="M74.51,365.49l35.89,19.04l11.86-61.12c0,0-15.21,1.36-20.22,7.74C97.02,337.53,74.51,365.49,74.51,365.49z
				"/>
			<g>
				<g>
					<path class="st8" d="M118.02,434.66l-9.66-20.99l-4.23-15.52l-12.84-9.96c0,0-4.26,0.5-2.94,3.8c1.32,3.31,7.77,9.26,7.77,9.26
						l3.8,10.61l-6.18-10.78l-9.03-4.46l-8.93,0.66c0,0-1.65,3.97,2.48,4.13h4.47l6.78,5.46l4.24,10.25l-6.39-9.92l-9.43-3.35
						l-5.95,1.53c0,0-1.65,2.65,1.32,2.98c2.98,0.33,4.96,0.33,4.96,0.33l5.46,3.17l4.8,10.06l-8.43-6.95l-10.91-1.3
						c0,0-1.82,2.63,0.99,3.62c2.81,0.99,8.43,3.97,8.43,3.97l6.08,8.39L118.02,434.66z"/>
					<g>
						<path class="st9" d="M118.02,434.66c-1.26-0.18-12.61-1.83-33.38-4.84l-0.07-0.01l-0.04-0.06c-1.9-2.61-3.94-5.42-6.09-8.38
							l0.06,0.06c-1.9-0.99-3.9-2-5.99-2.95c-0.52-0.23-1.05-0.47-1.59-0.68c-0.52-0.23-1.11-0.36-1.66-0.74
							c-0.55-0.34-0.9-1.03-0.88-1.69c0.03-0.66,0.26-1.27,0.61-1.82l0.07-0.1l0.13,0.02c3.42,0.4,7.11,0.84,10.92,1.29l0.06,0.01
							l0.05,0.04c2.64,2.17,5.5,4.52,8.44,6.94l-0.36,0.28c-1.51-3.15-3.14-6.56-4.8-10.05l0.1,0.11c-1.7-0.98-3.57-2.07-5.46-3.17
							l0.12,0.03c-1.45-0.02-2.94-0.12-4.47-0.27c-0.71-0.08-1.7-0.11-2.27-0.92c-0.27-0.4-0.29-0.89-0.22-1.31
							c0.09-0.43,0.24-0.81,0.46-1.18l0.05-0.08l0.1-0.03c1.86-0.48,3.9-1,5.95-1.53l0.08-0.02l0.07,0.03
							c2.97,1.06,6.18,2.19,9.43,3.35l0.08,0.03l0.05,0.07c2.03,3.15,4.2,6.52,6.39,9.92l-0.46,0.24c-0.72-1.74-1.49-3.61-2.27-5.5
							c-0.66-1.59-1.31-3.18-1.96-4.76l0.08,0.1c-2.28-1.84-4.54-3.66-6.78-5.46l0.16,0.06c-0.88,0-1.75,0-2.63,0
							c-0.88-0.02-1.72,0.06-2.65-0.09c-0.88-0.15-1.87-0.73-2.12-1.7c-0.27-0.93-0.1-1.85,0.21-2.7l0.05-0.15l0.16-0.01
							c3.01-0.22,5.99-0.44,8.93-0.66l0.07-0.01l0.06,0.03c3.06,1.51,6.07,3,9.03,4.47l0.07,0.03l0.04,0.07
							c2.11,3.68,4.17,7.28,6.18,10.78l-0.43,0.2c-1.3-3.65-2.57-7.18-3.79-10.62l0.06,0.09c-2.29-2.18-4.44-4.38-6.26-6.78
							c-0.46-0.6-0.86-1.23-1.23-1.88c-0.34-0.66-0.65-1.41-0.57-2.21c0.05-0.82,0.65-1.48,1.28-1.86c0.65-0.38,1.35-0.6,2.08-0.71
							l0.08-0.01l0.07,0.05c4.63,3.61,8.89,6.92,12.83,9.98l0.05,0.04l0.02,0.06c1.58,5.86,2.97,11.01,4.19,15.53l-0.01-0.02
							C114.45,426.79,117.59,433.71,118.02,434.66c-0.44-0.94-3.66-7.83-9.79-20.93l0-0.01l0-0.01c-1.24-4.52-2.65-9.66-4.26-15.51
							l0.06,0.09c-3.94-3.05-8.22-6.35-12.86-9.94l0.15,0.04c-0.66,0.1-1.33,0.31-1.91,0.65c-0.57,0.35-1.04,0.88-1.07,1.55
							c-0.08,1.34,0.89,2.61,1.73,3.78c1.79,2.35,3.95,4.55,6.22,6.7l0.04,0.04l0.02,0.05c1.23,3.43,2.5,6.96,3.81,10.61l-0.43,0.2
							c-2.01-3.5-4.08-7.09-6.19-10.77l0.11,0.1c-2.96-1.46-5.97-2.95-9.03-4.46l0.13,0.03c-2.94,0.22-5.91,0.44-8.93,0.67
							l0.22-0.16c-0.28,0.74-0.42,1.61-0.19,2.34c0.2,0.76,0.93,1.2,1.72,1.35c0.78,0.14,1.7,0.06,2.56,0.08c0.87,0,1.74,0,2.62,0
							h0.09l0.07,0.06c2.24,1.8,4.5,3.62,6.78,5.46l0.05,0.04l0.03,0.06c0.65,1.58,1.31,3.16,1.96,4.76
							c0.78,1.88,1.55,3.76,2.27,5.5l-0.46,0.24c-2.19-3.4-4.36-6.77-6.38-9.92l0.13,0.1c-3.24-1.15-6.45-2.29-9.42-3.35l0.15,0.01
							c-2.05,0.53-4.09,1.05-5.95,1.53l0.15-0.11c-0.35,0.61-0.6,1.43-0.25,1.95c0.17,0.25,0.46,0.44,0.81,0.52
							c0.34,0.1,0.71,0.13,1.09,0.17c1.51,0.15,3,0.26,4.41,0.28l0.07,0l0.06,0.03c1.89,1.1,3.76,2.19,5.45,3.18l0.07,0.04
							l0.03,0.07c1.66,3.49,3.29,6.91,4.79,10.06l0.45,0.95l-0.81-0.67c-2.93-2.42-5.79-4.78-8.43-6.95l0.12,0.05
							c-3.81-0.46-7.49-0.9-10.91-1.32l0.2-0.09c-0.3,0.47-0.52,1.04-0.54,1.59c-0.01,0.54,0.24,1.05,0.7,1.35
							c0.43,0.31,1.02,0.46,1.57,0.69c0.55,0.22,1.08,0.46,1.61,0.69c2.1,0.96,4.1,1.97,6,2.98l0.04,0.02l0.03,0.04
							c2.14,2.97,4.17,5.78,6.06,8.4l-0.11-0.07C105.43,432.71,116.76,434.47,118.02,434.66z"/>
					</g>
				</g>
			</g>
			<g class="st6">
				<path d="M234.89,469.34c0,0-8.2,17.18-18.85,22.21c-9.89,4.67-16.16,5.67-27.94,4.82c-5.75-0.42-24.49-4.06-31.27-6l-45.67-19.6
					l96.03,15.13L234.89,469.34z"/>
			</g>
			<g>
				<path class="st8" d="M258.32,341.21c0,0,17.18-6.08,17.51,32.42c0.33,38.51-44.87,103.13-52.57,109.5
					c-7.7,6.36-16.5,10.64-39.71,7.2c-29.11-4.32-70.91-19.56-70.91-19.56l25.56-23.81l51.9-2.34l42.19-86.73
					C232.3,357.89,243.92,339.54,258.32,341.21z"/>
			</g>
			<g>
				<g>
					<g>
						<path class="st8" d="M155.86,469.12c0,0,12.87,8.09,27.4,7.68c14.53-0.42,27.4,4.28,29.26,2.97c1.87-1.31,2.08-3.59,0-4.63
							c-2.08-1.04-10.87-2.28-10.87-2.28l-7.6-3.11c0,0,25.94,2.28,28.02,1.25c2.08-1.04,4.15-2.49,3.32-4.77
							c-0.83-2.28-2.91-2.28-2.91-2.28s5.6,0.21,5.4-2.08c-0.21-2.28-2.28-4.36-3.11-4.77c-0.83-0.42-11.71-4.84-11.71-4.84
							l-13.99-2.78l13.44-0.54l11.74,3.27c0,0,4.68,0.53,3.64-3.41c-1.04-3.94-15.36-8.3-15.36-8.3l-18.26-1.26
							c0,0,14.11-2.06,15.57-6.42c1.45-4.36-1.04-6.85-1.04-6.85s-9.96,3.94-14.74,4.77c-4.77,0.83-10.58,2.7-18.26,5.81
							c-7.68,3.11-12.17,5.6-12.17,5.6"/>
						<g>
							<path class="st9" d="M163.61,442.14c0,0,0.24-0.16,0.74-0.42s1.23-0.66,2.21-1.14c1.96-0.98,4.88-2.35,8.72-3.94
								c3.85-1.57,8.57-3.48,14.28-5.06c1.43-0.38,2.92-0.73,4.48-1.01c1.54-0.29,3.1-0.74,4.7-1.23c3.19-1,6.52-2.21,9.97-3.56
								l0.12-0.05l0.08,0.09c1.28,1.46,1.77,3.53,1.47,5.5l-0.14,0.74l-0.21,0.73c-0.16,0.5-0.46,0.96-0.81,1.34
								c-0.72,0.76-1.61,1.32-2.54,1.79c-1.86,0.94-3.88,1.6-5.96,2.16c-2.08,0.56-4.23,1.01-6.44,1.36l-0.02-0.44
								c5.81,0.39,11.92,0.81,18.26,1.24l0.03,0l0.02,0.01c3.67,1.17,7.38,2.52,10.95,4.4c0.89,0.48,1.76,1,2.58,1.62
								c0.41,0.31,0.81,0.65,1.16,1.04c0.35,0.39,0.69,0.83,0.84,1.39c0.11,0.52,0.22,1.06,0.11,1.62
								c-0.08,0.55-0.39,1.11-0.87,1.44c-0.95,0.66-2.07,0.74-3.15,0.67l-0.02,0l-0.02-0.01c-3.71-1.03-7.7-2.14-11.74-3.27
								l0.08,0.01c-4.27,0.17-8.83,0.35-13.44,0.54l0.04-0.51c3.18,0.63,6.57,1.31,10,1.99c1.34,0.27,2.67,0.53,3.99,0.79l0.03,0
								l0.02,0.01c3.93,1.63,7.83,3.24,11.67,4.82c1,0.55,1.67,1.39,2.27,2.26c0.57,0.9,1.05,1.87,1.03,3.04
								c-0.05,0.65-0.58,1.1-1.05,1.34c-0.49,0.26-1,0.39-1.52,0.49c-1.03,0.2-2.05,0.25-3.08,0.23l0.01-0.51
								c0.95,0.05,1.81,0.49,2.41,1.19c0.58,0.7,0.95,1.56,0.93,2.5c-0.05,0.94-0.61,1.76-1.26,2.32c-0.65,0.59-1.39,1.02-2.13,1.4
								c-0.17,0.09-0.4,0.2-0.64,0.25c-0.22,0.04-0.43,0.08-0.64,0.09c-0.42,0.04-0.84,0.06-1.25,0.07c-0.83,0.02-1.65,0.02-2.47,0
								c-1.64-0.03-3.26-0.1-4.86-0.18c-6.42-0.34-12.61-0.83-18.55-1.34l0.11-0.45c2.59,1.06,5.12,2.1,7.59,3.12l-0.05-0.01
								c2.8,0.42,5.52,0.87,8.17,1.47c0.66,0.16,1.32,0.32,1.96,0.53c0.64,0.2,1.31,0.51,1.79,1.05c0.48,0.54,0.7,1.3,0.58,2
								c-0.12,0.7-0.49,1.32-0.98,1.79c-0.12,0.12-0.24,0.23-0.38,0.33c-0.12,0.1-0.28,0.21-0.47,0.28
								c-0.35,0.12-0.68,0.11-1.01,0.13c-0.65,0-1.29-0.08-1.91-0.17c-1.25-0.18-2.46-0.41-3.66-0.63
								c-2.39-0.45-4.72-0.89-6.98-1.25c-4.52-0.73-8.79-1.15-12.75-1.21c-0.99-0.02-1.96,0-2.91,0.01c-0.95-0.01-1.89,0-2.8-0.04
								c-0.91-0.07-1.8-0.12-2.66-0.21c-0.86-0.12-1.7-0.24-2.52-0.35c-6.52-1.13-11.34-3.19-14.54-4.65
								c-1.6-0.76-2.79-1.4-3.58-1.85c-0.79-0.45-1.18-0.72-1.18-0.72s0.11,0.05,0.31,0.16c0.22,0.12,0.51,0.28,0.9,0.5
								c0.8,0.43,2,1.05,3.6,1.79c3.21,1.42,8.03,3.43,14.52,4.51c0.81,0.11,1.65,0.22,2.5,0.34c0.86,0.09,1.74,0.13,2.65,0.2
								c0.9,0.03,1.83,0.02,2.78,0.03c0.95-0.02,1.93-0.04,2.92-0.02c3.98,0.05,8.27,0.45,12.8,1.16c2.27,0.35,4.6,0.79,6.99,1.23
								c1.2,0.22,2.41,0.45,3.64,0.62c0.62,0.08,1.24,0.16,1.85,0.16c0.3-0.01,0.62-0.01,0.88-0.11c0.22-0.07,0.49-0.31,0.69-0.51
								c0.44-0.42,0.75-0.97,0.86-1.56c0.1-0.59-0.08-1.2-0.48-1.65c-0.41-0.45-0.98-0.73-1.61-0.93c-0.62-0.21-1.27-0.36-1.92-0.52
								c-2.62-0.59-5.35-1.03-8.13-1.44l-0.03,0l-0.03-0.01c-2.48-1.01-5.01-2.05-7.6-3.11l-1.41-0.57l1.52,0.13
								c5.93,0.5,12.12,0.98,18.53,1.31c1.6,0.08,3.22,0.15,4.85,0.18c0.81,0.02,1.63,0.02,2.45,0c0.41-0.01,0.82-0.03,1.22-0.07
								c0.2-0.02,0.4-0.05,0.58-0.08c0.17-0.03,0.32-0.1,0.51-0.21c0.72-0.38,1.43-0.79,2.02-1.33c0.6-0.52,1.05-1.21,1.09-1.97
								c0.03-0.75-0.31-1.55-0.8-2.14c-0.5-0.59-1.28-0.97-2.03-1.01l0.01-0.51c0.98,0.01,1.99-0.03,2.96-0.23
								c0.48-0.09,0.96-0.23,1.38-0.45c0.41-0.21,0.75-0.53,0.78-0.94c0.02-0.89-0.41-1.89-0.95-2.7c-0.55-0.81-1.25-1.63-2.07-2.08
								c-3.83-1.58-7.71-3.18-11.63-4.8l0.05,0.01c-1.33-0.26-2.66-0.53-3.99-0.79c-3.43-0.68-6.82-1.36-10-1.99l-2.15-0.43
								l2.19-0.09c4.62-0.18,9.18-0.37,13.44-0.54l0.04,0l0.04,0.01c4.05,1.13,8.04,2.24,11.74,3.28l-0.04-0.01
								c0.96,0.07,2.04-0.04,2.79-0.57c0.78-0.54,0.83-1.61,0.58-2.53c-0.27-0.87-1.05-1.58-1.82-2.17
								c-0.79-0.6-1.65-1.11-2.52-1.58c-3.51-1.86-7.22-3.21-10.85-4.38l0.05,0.01c-6.34-0.44-12.46-0.87-18.26-1.27l-1.97-0.14
								l1.95-0.3c2.19-0.34,4.33-0.79,6.4-1.34c2.06-0.55,4.06-1.2,5.88-2.11c0.9-0.46,1.76-1,2.43-1.7
								c0.32-0.36,0.58-0.75,0.73-1.19l0.2-0.7l0.14-0.7c0.3-1.87-0.18-3.85-1.34-5.18l0.2,0.04c-3.47,1.34-6.81,2.54-10.01,3.53
								c-1.61,0.49-3.18,0.93-4.74,1.22c-1.55,0.27-3.03,0.61-4.46,0.99c-5.69,1.54-10.43,3.43-14.28,4.96
								c-3.85,1.56-6.78,2.9-8.75,3.85c-0.97,0.48-1.72,0.84-2.23,1.09C163.87,442.02,163.61,442.14,163.61,442.14z"/>
						</g>
					</g>
				</g>
				<g>
					<g>
						<path class="st9" d="M194.72,459.84c0,0.12,1.67,0.17,4.36,0.33c2.69,0.16,6.39,0.48,10.45,1.09
							c4.06,0.62,7.69,1.42,10.3,2.06c2.61,0.64,4.22,1.08,4.26,0.97c0.03-0.09-1.52-0.73-4.12-1.51c-2.59-0.78-6.24-1.67-10.33-2.3
							c-4.09-0.62-7.84-0.85-10.54-0.87C196.39,459.6,194.72,459.74,194.72,459.84z"/>
					</g>
				</g>
			</g>
			<g>
				<g>
					<path class="st4" d="M103.74,385.23c-0.53,2.51-0.97,4.59-1.31,6.19c-0.29,1.47-0.43,2.28-0.38,2.29
						c0.05,0.01,0.29-0.78,0.67-2.23c0.4-1.59,0.93-3.65,1.56-6.14c1.28-5.19,3-12.37,4.85-20.32c3.04-13.04,5.49-24.08,6.12-27.51
						l0.05-0.27l-0.22,0.15c-0.76,0.53-1.09,0.79-1.07,0.82c0.02,0.03,0.4-0.17,1.19-0.63l-0.17-0.12
						c-0.95,3.37-3.63,14.35-6.67,27.39"/>
				</g>
			</g>
			<path class="st10" d="M211.2,388.18l57.98,25.84c0,0,22.51-69.46-10.65-80.65l-16.63,3.89L211.2,388.18z"/>
		</g>
		<g>
			<line class="st10" x1="76.34" y1="472.06" x2="155.86" y2="469.12"/>
			<g>
				<path class="st9" d="M155.86,469.12c0.01,0.14-17.79,0.92-39.75,1.73c-21.96,0.81-39.77,1.35-39.77,1.21
					c-0.01-0.14,17.79-0.92,39.76-1.73C138.05,469.52,155.86,468.98,155.86,469.12z"/>
			</g>
		</g>
		<g>
			<path class="st9" d="M84.66,429.65c0.01,0.1-1.14,0.2-2.93,0.64c-1.78,0.46-4.21,1.31-6.55,2.86c-2.36,1.52-4.12,3.42-5.12,4.95
				c-1.02,1.53-1.38,2.63-1.47,2.6c-0.03-0.01,0.04-0.29,0.2-0.79c0.17-0.49,0.47-1.2,0.96-2.01c0.95-1.62,2.72-3.63,5.15-5.19
				c2.41-1.59,4.93-2.41,6.76-2.78c0.92-0.17,1.67-0.28,2.2-0.29C84.37,429.61,84.66,429.61,84.66,429.65z"/>
		</g>
		<g>
			<path class="st4" d="M221.2,379.93c0.02,0.01-0.04,0.19-0.17,0.54c-0.15,0.4-0.35,0.9-0.58,1.52c-0.51,1.32-1.29,3.21-2.28,5.53
				c-1.98,4.65-4.88,11-8.3,17.92c-3.42,6.91-6.69,13.09-9.1,17.53c-1.2,2.22-2.19,4.01-2.89,5.24c-0.33,0.57-0.6,1.04-0.81,1.41
				c-0.19,0.32-0.3,0.48-0.31,0.47c-0.02-0.01,0.06-0.19,0.22-0.52c0.19-0.38,0.43-0.87,0.73-1.46c0.68-1.32,1.61-3.12,2.74-5.32
				c2.32-4.48,5.53-10.68,8.95-17.58c3.42-6.91,6.36-13.23,8.43-17.83c1.01-2.26,1.83-4.11,2.43-5.46c0.27-0.6,0.49-1.09,0.67-1.48
				C221.09,380.1,221.19,379.93,221.2,379.93z"/>
		</g>
	</g>
</g>
<g id="Plant">
	<g>
		<g>
			<path class="st10" d="M373.03,430.48c0,0-24.78-28.52-34.13-57.03c-9.35-28.52-4.91-25.24-4.91-25.24s12.62,27.7,22.21,41.08
				c9.58,13.38,26.65,33.01,26.65,33.01L373.03,430.48z"/>
		</g>
		<g>
			<path class="st10" d="M377.96,352.64c-0.8-1.39-2.93-0.67-2.69,0.92c1.51,10.02,4.78,33.52,4.65,48.77
				c-0.17,19.81,0.01,27.46,0.01,27.46h10.31c0,0-1.83-40.94-4.16-53.42C384.45,367.62,380.98,357.9,377.96,352.64z"/>
		</g>
		<g>
			<path class="st10" d="M383.59,426.46c0,0,6.49-13.65,8.49-30.79c0.85-7.29-0.67-17.14-2.92-30.29
				c-1.09-6.37-1.34-11.21-1.3-14.57c0.03-2.54,3.38-3.37,4.62-1.15c1.24,2.22,4.85,9.81,5.76,14.56
				c2.5,12.98,5.33,19.47,3.16,31.79c-2.16,12.32-10.15,31.29-10.15,31.29L383.59,426.46z"/>
		</g>
		<g>
			<path class="st10" d="M392.87,427.3c0,0,27.2-58.46,29.09-67.13c1.89-8.67,8.3-28.66,9.05-27.53c0.75,1.13,1.89,11.69-3.02,23.76
				c-4.9,12.07-25.83,72.69-25.83,72.69h-9.29"/>
		</g>
		<g>
			<g>
				<path class="st4" d="M380.61,424.68c-0.01,0.02-0.27-0.16-0.76-0.52c-0.48-0.37-1.22-0.88-2.11-1.61
					c-1.81-1.42-4.35-3.59-7.31-6.45c-5.94-5.7-13.33-14.5-19.74-25.33c-6.42-10.83-10.74-21.43-13.47-29.18
					c-1.37-3.88-2.37-7.06-3.01-9.27c-0.33-1.1-0.56-1.97-0.72-2.55c-0.16-0.59-0.23-0.89-0.21-0.9c0.02-0.01,0.13,0.29,0.32,0.87
					c0.21,0.63,0.48,1.46,0.83,2.52c0.71,2.19,1.77,5.34,3.18,9.2c2.83,7.71,7.19,18.24,13.58,29.03
					c6.38,10.79,13.68,19.58,19.52,25.33c2.91,2.89,5.4,5.1,7.17,6.57c0.87,0.75,1.58,1.3,2.04,1.69
					C380.38,424.45,380.62,424.66,380.61,424.68z"/>
			</g>
		</g>
		<g>
			<g>
				<path class="st4" d="M383.58,396.63c-0.04,0-0.12-0.61-0.24-1.72c-0.13-1.21-0.3-2.79-0.5-4.69c-0.43-3.95-1.1-9.41-2.06-15.4
					c-0.97-5.99-2.04-11.38-2.87-15.27c-0.4-1.87-0.74-3.42-0.99-4.61c-0.23-1.09-0.34-1.7-0.31-1.71c0.04-0.01,0.22,0.58,0.53,1.65
					c0.3,1.07,0.71,2.63,1.17,4.57c0.93,3.87,2.07,9.27,3.04,15.27c0.96,6.01,1.57,11.48,1.9,15.45c0.16,1.99,0.27,3.59,0.32,4.71
					C383.61,396.01,383.62,396.63,383.58,396.63z"/>
			</g>
		</g>
		<g>
			<g>
				<path class="st4" d="M389.96,349.2c0.02-0.01,0.13,0.25,0.32,0.74c0.21,0.55,0.48,1.27,0.82,2.17c0.36,0.94,0.77,2.1,1.17,3.48
					c0.4,1.37,0.93,2.92,1.32,4.68c0.22,0.88,0.44,1.79,0.67,2.75c0.23,0.96,0.39,1.97,0.6,3.01c0.44,2.08,0.72,4.33,1.05,6.69
					c0.53,4.74,0.82,9.99,0.65,15.49c-0.22,5.51-0.89,10.72-1.76,15.41c-0.5,2.33-0.93,4.56-1.53,6.6
					c-0.28,1.02-0.52,2.02-0.81,2.96c-0.3,0.94-0.59,1.83-0.87,2.69c-0.52,1.73-1.15,3.23-1.65,4.57c-0.49,1.35-0.99,2.47-1.41,3.39
					c-0.4,0.87-0.72,1.57-0.97,2.11c-0.23,0.48-0.36,0.73-0.37,0.72c-0.02-0.01,0.07-0.27,0.27-0.77c0.22-0.54,0.51-1.26,0.87-2.15
					c0.39-0.92,0.86-2.06,1.32-3.41c0.47-1.35,1.08-2.86,1.57-4.59c0.26-0.86,0.54-1.76,0.83-2.69c0.28-0.94,0.51-1.93,0.78-2.95
					c0.57-2.03,0.98-4.25,1.47-6.58c0.84-4.67,1.48-9.86,1.7-15.33c0.17-5.47-0.1-10.69-0.6-15.41c-0.31-2.35-0.57-4.59-0.99-6.66
					c-0.2-1.04-0.35-2.05-0.56-3c-0.22-0.95-0.43-1.87-0.63-2.75c-0.37-1.76-0.86-3.31-1.23-4.69c-0.36-1.38-0.74-2.55-1.07-3.5
					c-0.29-0.91-0.53-1.65-0.71-2.2C390.01,349.47,389.94,349.2,389.96,349.2z"/>
			</g>
		</g>
		<g>
			<g>
				<path class="st4" d="M430.7,333.81c0.01,0,0,0.09-0.02,0.26c-0.03,0.21-0.07,0.45-0.12,0.76c-0.12,0.67-0.27,1.65-0.54,2.91
					c-0.53,2.52-1.4,6.13-2.76,10.52c-1.35,4.39-3.21,9.54-5.42,15.2c-2.19,5.66-4.75,11.83-7.16,18.39
					c-2.45,6.55-4.34,12.95-6.12,18.75c-1.76,5.81-3.43,11.02-5.04,15.33c-1.6,4.31-3.13,7.7-4.3,10c-0.56,1.16-1.06,2.02-1.38,2.62
					c-0.15,0.27-0.28,0.49-0.38,0.67c-0.09,0.15-0.14,0.22-0.15,0.22c-0.01,0,0.02-0.09,0.09-0.25c0.09-0.19,0.2-0.42,0.33-0.69
					c0.29-0.61,0.76-1.49,1.28-2.66c1.1-2.32,2.57-5.72,4.11-10.04c1.56-4.31,3.18-9.52,4.91-15.34c1.75-5.81,3.62-12.23,6.08-18.8
					c2.42-6.58,4.99-12.74,7.21-18.38c2.23-5.64,4.12-10.76,5.52-15.13c1.41-4.36,2.34-7.95,2.93-10.45
					c0.3-1.25,0.49-2.23,0.64-2.88c0.07-0.3,0.13-0.55,0.18-0.75C430.66,333.89,430.69,333.81,430.7,333.81z"/>
			</g>
		</g>
		<g>
			<g>
				<path class="st10" d="M346.82,320.9c-1.71-1.7-4.57,0.08-3.86,2.39c0.72,2.34,1.81,5.37,3.42,8.79
					c3.74,7.95,14.73,36.46,19.87,52.12c5.14,15.66,12.39,44.88,12.39,44.88l10.98-1.78c0,0-10.05-48.01-19.86-65.3
					C361.87,348.09,353.98,328.01,346.82,320.9z"/>
			</g>
			<g>
				<g>
					<path class="st4" d="M369.25,393.99c0.04-0.01,0.24,0.46,0.57,1.32c0.32,0.86,0.77,2.12,1.27,3.69
						c1.01,3.13,2.25,7.51,3.5,12.37c1.24,4.86,2.28,9.29,3,12.49c0.33,1.52,0.61,2.79,0.83,3.8c0.18,0.9,0.27,1.4,0.23,1.41
						c-0.04,0.01-0.2-0.48-0.45-1.36c-0.27-1-0.6-2.26-1.01-3.76c-0.84-3.3-1.94-7.64-3.17-12.45c-1.25-4.86-2.42-9.24-3.33-12.39
						c-0.43-1.49-0.8-2.74-1.09-3.73C369.34,394.5,369.21,394.01,369.25,393.99z"/>
				</g>
			</g>
			<g>
				<g>
					<path class="st4" d="M384.15,428.19c-0.01,0-0.03-0.1-0.06-0.29c-0.03-0.23-0.07-0.51-0.12-0.86
						c-0.12-0.76-0.22-1.89-0.45-3.33c-0.4-2.88-1.12-7.04-2.3-12.11c-1.17-5.07-2.88-11.04-5.14-17.54
						c-2.25-6.51-5.08-13.54-8.28-20.81c-6.46-14.53-12.91-27.42-17.15-36.95c-2.14-4.75-3.8-8.64-4.9-11.34
						c-0.56-1.35-0.96-2.41-1.23-3.12c-0.12-0.33-0.22-0.6-0.3-0.82c-0.07-0.19-0.09-0.28-0.09-0.29c0.01,0,0.06,0.09,0.14,0.26
						c0.09,0.21,0.21,0.47,0.36,0.8c0.32,0.75,0.77,1.77,1.33,3.08c1.16,2.68,2.87,6.53,5.06,11.26
						c4.33,9.48,10.84,22.34,17.31,36.89c3.21,7.29,6.02,14.34,8.25,20.87c2.24,6.53,3.91,12.53,5.03,17.63
						c1.13,5.1,1.79,9.28,2.13,12.17c0.2,1.45,0.26,2.58,0.34,3.34c0.03,0.35,0.05,0.64,0.07,0.87
						C384.16,428.08,384.16,428.18,384.15,428.19z"/>
				</g>
			</g>
			<g>
				<g>
					<path class="st4" d="M389.62,427.3c-0.04,0.01-0.17-0.65-0.37-1.85c-0.22-1.29-0.51-2.99-0.85-5.05
						c-0.76-4.25-1.91-10.11-3.57-16.49c-1.64-6.38-3.5-12.06-4.92-16.14c-0.7-1.97-1.28-3.59-1.72-4.82
						c-0.41-1.14-0.62-1.77-0.58-1.79c0.04-0.02,0.32,0.59,0.79,1.71c0.47,1.11,1.13,2.74,1.89,4.77c1.53,4.05,3.45,9.73,5.1,16.14
						c1.67,6.4,2.76,12.29,3.42,16.57c0.31,2.14,0.55,3.88,0.67,5.08C389.6,426.62,389.66,427.29,389.62,427.3z"/>
				</g>
			</g>
		</g>
	</g>
	<g>
		<g>
			<rect x="369.29" y="447.72" class="st5" width="42.86" height="52.22"/>
		</g>
		<g class="st6">
			<rect x="369.29" y="447.72" width="42.86" height="52.22"/>
		</g>
		<g>
			<rect x="360.45" y="447.72" class="st5" width="38.03" height="52.22"/>
		</g>
	</g>
</g>
</svg>
